<svg xmlns="http://www.w3.org/2000/svg" version="1.1" xmlns:xlink="http://www.w3.org/1999/xlink" xmlns:svgjs="http://svgjs.dev/svgjs" viewBox="0 0 8.96285462995227 1.739773826540816"><g transform="matrix(1,0,0,1,1.8671846599461084,0.332886913270408)"><g><path d=" M 0.8505 0.8189999999999998 L 0.8505 1.0739999999999998 L 0.0915 1.0739999999999998 L 0.0915 0.008999999999999897 L 0.837 0.008999999999999897 L 0.837 0.2639999999999998 L 0.384 0.2639999999999998 L 0.384 0.4139999999999998 L 0.771 0.4139999999999998 L 0.771 0.6509999999999998 L 0.384 0.6509999999999998 L 0.384 0.8189999999999998 L 0.8505 0.8189999999999998 M 1.636477294921875 0.3569999999999999 Q 1.636477294921875 0.3569999999999999 1.610977294921875 0.34199999999999986 Q 1.585477294921875 0.32699999999999985 1.543477294921875 0.3082499999999998 Q 1.5014772949218749 0.28949999999999987 1.451977294921875 0.27449999999999986 Q 1.4024772949218751 0.25949999999999984 1.354477294921875 0.25949999999999984 Q 1.316977294921875 0.25949999999999984 1.292977294921875 0.27149999999999985 Q 1.268977294921875 0.28349999999999986 1.268977294921875 0.31199999999999983 Q 1.268977294921875 0.33899999999999986 1.292977294921875 0.3554999999999998 Q 1.316977294921875 0.3719999999999998 1.3612272949218749 0.38549999999999984 Q 1.405477294921875 0.3989999999999998 1.466977294921875 0.41849999999999987 Q 1.565977294921875 0.4484999999999998 1.637977294921875 0.4874999999999998 Q 1.709977294921875 0.5264999999999999 1.748977294921875 0.5872499999999998 Q 1.787977294921875 0.6479999999999999 1.787977294921875 0.7484999999999998 Q 1.787977294921875 0.8444999999999998 1.753477294921875 0.9097499999999998 Q 1.7189772949218751 0.9749999999999999 1.6604772949218751 1.0139999999999998 Q 1.6019772949218751 1.053 1.529977294921875 1.07025 Q 1.457977294921875 1.0875 1.3829772949218748 1.0875 Q 1.306477294921875 1.0875 1.223227294921875 1.0717499999999998 Q 1.139977294921875 1.0559999999999998 1.0619772949218749 1.0282499999999999 Q 0.9839772949218749 1.0005 0.9194772949218749 0.9629999999999999 L 1.045477294921875 0.7064999999999999 Q 1.045477294921875 0.7064999999999999 1.075477294921875 0.7244999999999998 Q 1.105477294921875 0.7424999999999998 1.154977294921875 0.7649999999999999 Q 1.204477294921875 0.7874999999999999 1.265227294921875 0.8054999999999999 Q 1.3259772949218749 0.8234999999999999 1.387477294921875 0.8234999999999999 Q 1.435477294921875 0.8234999999999999 1.4542272949218749 0.8107499999999999 Q 1.4729772949218751 0.7979999999999998 1.4729772949218751 0.7769999999999999 Q 1.4729772949218751 0.7454999999999998 1.439977294921875 0.7282499999999998 Q 1.4069772949218748 0.7109999999999999 1.353727294921875 0.6952499999999998 Q 1.300477294921875 0.6794999999999998 1.235977294921875 0.6584999999999999 Q 1.142977294921875 0.6269999999999998 1.082977294921875 0.5872499999999998 Q 1.022977294921875 0.5474999999999999 0.994477294921875 0.4927499999999998 Q 0.965977294921875 0.43799999999999983 0.965977294921875 0.3599999999999999 Q 0.965977294921875 0.24149999999999983 1.021477294921875 0.1619999999999998 Q 1.076977294921875 0.0824999999999998 1.1677272949218749 0.04124999999999979 Q 1.258477294921875 -2.220446049250313e-16 1.363477294921875 -2.220446049250313e-16 Q 1.4414772949218748 -2.220446049250313e-16 1.514227294921875 0.018749999999999822 Q 1.586977294921875 0.03749999999999987 1.650727294921875 0.06449999999999978 Q 1.714477294921875 0.0914999999999998 1.762477294921875 0.11549999999999983 L 1.636477294921875 0.3569999999999999 M 1.9214838867187498 1.0739999999999998 L 1.9214838867187498 0.008999999999999897 L 2.38048388671875 0.008999999999999897 Q 2.45848388671875 0.008999999999999897 2.52448388671875 0.04049999999999976 Q 2.59048388671875 0.07199999999999984 2.63848388671875 0.12524999999999986 Q 2.68648388671875 0.17849999999999977 2.71273388671875 0.24449999999999983 Q 2.73898388671875 0.3104999999999998 2.73898388671875 0.3779999999999998 Q 2.73898388671875 0.4724999999999998 2.69473388671875 0.5564999999999999 Q 2.65048388671875 0.6404999999999998 2.57173388671875 0.6937499999999999 Q 2.4929838867187497 0.7469999999999999 2.38798388671875 0.7469999999999999 L 2.21398388671875 0.7469999999999999 L 2.21398388671875 1.0739999999999998 L 1.9214838867187498 1.0739999999999998 M 2.21398388671875 0.4919999999999999 L 2.36848388671875 0.4919999999999999 Q 2.38648388671875 0.4919999999999999 2.40298388671875 0.4814999999999998 Q 2.41948388671875 0.47099999999999986 2.43073388671875 0.4454999999999998 Q 2.44198388671875 0.4199999999999998 2.44198388671875 0.3779999999999998 Q 2.44198388671875 0.33299999999999985 2.42923388671875 0.3082499999999998 Q 2.41648388671875 0.28349999999999986 2.3977338867187497 0.2737499999999998 Q 2.37898388671875 0.2639999999999998 2.36098388671875 0.2639999999999998 L 2.21398388671875 0.2639999999999998 L 2.21398388671875 0.4919999999999999 M 3.3404626464843745 1.0829999999999997 Q 3.218962646484375 1.0829999999999997 3.1199626464843746 1.0372499999999998 Q 3.0209626464843744 0.9914999999999998 2.949712646484375 0.9142499999999998 Q 2.8784626464843748 0.8369999999999999 2.8402126464843747 0.7402499999999999 Q 2.8019626464843745 0.6434999999999998 2.8019626464843745 0.5399999999999998 Q 2.8019626464843745 0.4334999999999999 2.8424626464843747 0.3374999999999998 Q 2.8829626464843745 0.24149999999999983 2.9557126464843746 0.16574999999999984 Q 3.0284626464843747 0.08999999999999986 3.1282126464843745 0.046499999999999764 Q 3.2279626464843747 0.0029999999999998916 3.3464626464843747 0.0029999999999998916 Q 3.4679626464843745 0.0029999999999998916 3.5669626464843747 0.04874999999999985 Q 3.665962646484375 0.0944999999999998 3.736462646484375 0.17249999999999988 Q 3.806962646484375 0.25049999999999983 3.8452126464843746 0.34724999999999984 Q 3.8834626464843747 0.44399999999999984 3.8834626464843747 0.5459999999999998 Q 3.8834626464843747 0.6509999999999998 3.8437126464843745 0.7469999999999999 Q 3.8039626464843748 0.8429999999999999 3.7312126464843747 0.9187499999999998 Q 3.6584626464843746 0.9944999999999998 3.5594626464843744 1.0387499999999998 Q 3.4604626464843746 1.0829999999999997 3.3404626464843745 1.0829999999999997 M 3.0989626464843747 0.5429999999999998 Q 3.0989626464843747 0.5969999999999998 3.113962646484375 0.6472499999999999 Q 3.1289626464843745 0.6974999999999998 3.1589626464843747 0.7372499999999998 Q 3.1889626464843746 0.7769999999999999 3.2347126464843745 0.8002499999999999 Q 3.2804626464843745 0.8234999999999999 3.3434626464843746 0.8234999999999999 Q 3.406462646484375 0.8234999999999999 3.452962646484375 0.7994999999999999 Q 3.4994626464843748 0.7754999999999999 3.5287126464843745 0.7342499999999998 Q 3.5579626464843748 0.6929999999999998 3.572212646484375 0.6427499999999998 Q 3.5864626464843745 0.5924999999999998 3.5864626464843745 0.5399999999999998 Q 3.5864626464843745 0.4859999999999999 3.571462646484375 0.4364999999999998 Q 3.5564626464843747 0.3869999999999998 3.526462646484375 0.34724999999999984 Q 3.4964626464843747 0.3074999999999998 3.4499626464843747 0.2849999999999998 Q 3.4034626464843747 0.26249999999999984 3.3419626464843746 0.26249999999999984 Q 3.2789626464843744 0.26249999999999984 3.2332126464843745 0.28649999999999987 Q 3.1874626464843745 0.3104999999999998 3.1574626464843747 0.35024999999999984 Q 3.1274626464843744 0.3899999999999998 3.113212646484375 0.4402499999999998 Q 3.0989626464843747 0.4904999999999998 3.0989626464843747 0.5429999999999998 M 4.012484619140625 1.0739999999999998 L 4.012484619140625 0.008999999999999897 L 4.501484619140625 0.008999999999999897 Q 4.579484619140625 0.008999999999999897 4.645484619140625 0.04049999999999976 Q 4.7114846191406246 0.07199999999999984 4.759484619140625 0.12524999999999986 Q 4.807484619140625 0.17849999999999977 4.833734619140625 0.24449999999999983 Q 4.859984619140625 0.3104999999999998 4.859984619140625 0.3779999999999998 Q 4.859984619140625 0.4394999999999998 4.841984619140625 0.49649999999999983 Q 4.823984619140624 0.5534999999999999 4.789484619140625 0.6007499999999999 Q 4.754984619140624 0.6479999999999999 4.706984619140625 0.6824999999999999 L 4.931984619140625 1.0739999999999998 L 4.610984619140625 1.0739999999999998 L 4.423484619140625 0.7469999999999999 L 4.304984619140625 0.7469999999999999 L 4.304984619140625 1.0739999999999998 L 4.012484619140625 1.0739999999999998 M 4.304984619140625 0.4919999999999999 L 4.489484619140625 0.4919999999999999 Q 4.507484619140625 0.4919999999999999 4.5239846191406246 0.4784999999999998 Q 4.540484619140625 0.46499999999999986 4.551734619140625 0.4394999999999998 Q 4.562984619140625 0.4139999999999998 4.562984619140625 0.3779999999999998 Q 4.562984619140625 0.3404999999999998 4.550234619140625 0.31574999999999986 Q 4.537484619140625 0.2909999999999998 4.518734619140625 0.27749999999999986 Q 4.4999846191406245 0.2639999999999998 4.481984619140625 0.2639999999999998 L 4.304984619140625 0.2639999999999998 L 4.304984619140625 0.4919999999999999 M 5.84395166015625 0.2639999999999998 L 5.53795166015625 0.2639999999999998 L 5.53795166015625 1.0739999999999998 L 5.24545166015625 1.0739999999999998 L 5.24545166015625 0.2639999999999998 L 4.93795166015625 0.2639999999999998 L 4.93795166015625 0.008999999999999897 L 5.84395166015625 0.008999999999999897 L 5.84395166015625 0.2639999999999998 M 6.5999868164062505 0.3569999999999999 Q 6.5999868164062505 0.3569999999999999 6.57448681640625 0.34199999999999986 Q 6.54898681640625 0.32699999999999985 6.5069868164062505 0.3082499999999998 Q 6.46498681640625 0.28949999999999987 6.415486816406251 0.27449999999999986 Q 6.3659868164062505 0.25949999999999984 6.3179868164062505 0.25949999999999984 Q 6.28048681640625 0.25949999999999984 6.25648681640625 0.27149999999999985 Q 6.23248681640625 0.28349999999999986 6.23248681640625 0.31199999999999983 Q 6.23248681640625 0.33899999999999986 6.25648681640625 0.3554999999999998 Q 6.28048681640625 0.3719999999999998 6.32473681640625 0.38549999999999984 Q 6.368986816406251 0.3989999999999998 6.43048681640625 0.41849999999999987 Q 6.5294868164062505 0.4484999999999998 6.601486816406251 0.4874999999999998 Q 6.67348681640625 0.5264999999999999 6.71248681640625 0.5872499999999998 Q 6.75148681640625 0.6479999999999999 6.75148681640625 0.7484999999999998 Q 6.75148681640625 0.8444999999999998 6.7169868164062505 0.9097499999999998 Q 6.68248681640625 0.9749999999999999 6.6239868164062505 1.0139999999999998 Q 6.56548681640625 1.053 6.49348681640625 1.07025 Q 6.42148681640625 1.0875 6.34648681640625 1.0875 Q 6.26998681640625 1.0875 6.18673681640625 1.0717499999999998 Q 6.10348681640625 1.0559999999999998 6.02548681640625 1.0282499999999999 Q 5.94748681640625 1.0005 5.88298681640625 0.9629999999999999 L 6.00898681640625 0.7064999999999999 Q 6.00898681640625 0.7064999999999999 6.038986816406251 0.7244999999999998 Q 6.06898681640625 0.7424999999999998 6.11848681640625 0.7649999999999999 Q 6.16798681640625 0.7874999999999999 6.22873681640625 0.8054999999999999 Q 6.28948681640625 0.8234999999999999 6.35098681640625 0.8234999999999999 Q 6.39898681640625 0.8234999999999999 6.41773681640625 0.8107499999999999 Q 6.4364868164062505 0.7979999999999998 6.4364868164062505 0.7769999999999999 Q 6.4364868164062505 0.7454999999999998 6.40348681640625 0.7282499999999998 Q 6.37048681640625 0.7109999999999999 6.3172368164062505 0.6952499999999998 Q 6.26398681640625 0.6794999999999998 6.19948681640625 0.6584999999999999 Q 6.1064868164062505 0.6269999999999998 6.04648681640625 0.5872499999999998 Q 5.98648681640625 0.5474999999999999 5.95798681640625 0.4927499999999998 Q 5.92948681640625 0.43799999999999983 5.92948681640625 0.3599999999999999 Q 5.92948681640625 0.24149999999999983 5.98498681640625 0.1619999999999998 Q 6.04048681640625 0.0824999999999998 6.1312368164062505 0.04124999999999979 Q 6.22198681640625 -2.220446049250313e-16 6.32698681640625 -2.220446049250313e-16 Q 6.40498681640625 -2.220446049250313e-16 6.47773681640625 0.018749999999999822 Q 6.55048681640625 0.03749999999999987 6.61423681640625 0.06449999999999978 Q 6.67798681640625 0.0914999999999998 6.72598681640625 0.11549999999999983 L 6.5999868164062505 0.3569999999999999" fill="#404040" fill-rule="nonzero"></path></g><g></g><g clip-path="url(#SvgjsClipPath1139)"><g clip-path="url(#SvgjsClipPath11373c038598-8686-448b-af0b-e44f5f7d5f37)"><path d=" M -0.6259774435403385 0.013068791551642304 C -0.6588010052398842 0.04618524165163573 -0.9801677874193495 0.05146124502957308 -0.9801677874193495 0.05146124502957308 C -0.9801677874193495 0.05146124502957308 -1.3018435066787393 0.046269497218887526 -1.334667068378285 0.013149034949025501 C -1.334667068378285 0.013149034949025501 -1.3386792382474382 0.4378211669194576 -1.075328432375935 0.6223809809005227 L -1.0770697140991472 0.6223809809005227 C -1.0236115627625448 0.6625026795920591 -1.0134607729935863 0.7878308297948101 -1.0134607729935863 0.7878308297948101 C -1.010760582671646 0.890919522412843 -1.0637252371143424 0.9317433508314811 -1.0936279391491444 0.948923462211196 C -1.1006251634009478 0.95293563208035 -1.0981175572327266 0.9625327424073652 -1.0898364386227946 0.9634635658170091 C -1.0613500325518044 0.9666492286931172 -1.0131598602533995 0.9714598203662321 -0.9798147164708639 0.9714598203662321 C -0.9464695726883291 0.9714598203662321 -0.898118913595158 0.9666853382219394 -0.8696646048831214 0.9634996753458313 C -0.8614035471225339 0.9625728641060568 -0.8589039652940516 0.9530680336860322 -0.8658690921869021 0.9490558638168781 C -0.8955591492186394 0.9318757524371625 -0.9481667205429803 0.8909235345827116 -0.94546653022104 0.7878308297948101 C -0.94546653022104 0.7878308297948101 -0.9370409734958184 0.6625066917619278 -0.8835667734797383 0.6223849930703921 L -0.8853160795426885 0.6223849930703921 C -0.6219813223506613 0.4378211669194576 -0.6259774435403385 0.013068791551642304 -0.6259774435403385 0.013068791551642304 Z" fill="#dce2e3" transform="matrix(1,0,0,1,0,0)" fill-rule="nonzero"></path></g><g clip-path="url(#SvgjsClipPath11373c038598-8686-448b-af0b-e44f5f7d5f37)"><path d=" M -0.6309003759697903 0.09835548646024009 C -0.6309003759697903 0.09835548646024009 -0.5923353991874857 0.02203197903933151 -0.49569025137931444 0.04080492185710123 C -0.4514881759308489 0.049394977546959484 -0.41519408729448526 0.07822643022669648 -0.4037553909975278 0.11688368691599163 C -0.39813835318071233 0.13591340860538692 -0.3984994484689375 0.15948891875653362 -0.4069169808544211 0.18855708945855165 C -0.4193540518434853 0.23005961826507804 -0.44198954933750323 0.2677854474217746 -0.4727566884072325 0.2982899353799022 C -0.49772442150297524 0.3234983986677938 -0.545521401154202 0.35391064627597907 -0.5806278875092968 0.3703886279285922 C -0.5806278875092968 0.3703886279285922 -0.7152161257700542 0.43575489943684237 -0.7609829474674887 0.4947658938723539 L -0.7037814416429652 0.3895186538647169 C -0.7037814416429652 0.3895186538647169 -0.47371559700595967 0.31105264773368013 -0.4558975506170486 0.15925621290412204 C -0.4558975506170486 0.15925621290412204 -0.4521461717893904 0.07480404932830818 -0.5524945523867912 0.09219279354122065 C -0.5524945523867912 0.09219279354122065 -0.6079266912990176 0.10471878787271835 -0.6439720254034927 0.18953204673675575 Z" fill="#404040" transform="matrix(1,0,0,1,0,0)" fill-rule="nonzero"></path></g><g clip-path="url(#SvgjsClipPath11373c038598-8686-448b-af0b-e44f5f7d5f37)"><path d=" M -1.329611734343151 0.09835548646024009 C -1.329611734343151 0.09835548646024009 -1.3681767111254566 0.02203197903933151 -1.4648017980842816 0.04080492185710123 C -1.5090038735327471 0.049394977546959484 -1.5452979621691108 0.07822643022669648 -1.5567366584660673 0.11688368691599163 C -1.562353696282883 0.13591340860538692 -1.561996613164527 0.15948891875653362 -1.553575068609174 0.18855708945855165 C -1.541137997620109 0.23005961826507804 -1.5185025001260912 0.2677854474217746 -1.4877353610563628 0.29828993537990306 C -1.4627676279606208 0.3234983986677938 -1.414970648309394 0.35391064627597907 -1.3798641619543 0.3703886279285922 C -1.3798641619543 0.3703886279285922 -1.2452759236935418 0.43575489943684237 -1.1995091019961073 0.4947658938723539 L -1.25671060782063 0.3895186538647169 C -1.25671060782063 0.3895186538647169 -1.4867764524576363 0.31105264773368013 -1.5045944988465465 0.15925621290412204 C -1.5045944988465465 0.15925621290412204 -1.5083458776742056 0.07480404932830818 -1.4079974970768048 0.09219279354122065 C -1.4079974970768048 0.09219279354122065 -1.3525653581645785 0.10471878787271835 -1.3165200240601025 0.18953204673675575 Z" fill="#404040" transform="matrix(1,0,0,1,0,0)" fill-rule="nonzero"></path></g><g clip-path="url(#SvgjsClipPath11373c038598-8686-448b-af0b-e44f5f7d5f37)"><path d=" M -1.3346710805481545 0.012808000510147334 C -1.3346710805481545 -0.008741363857077366 -1.169473998355624 -0.026210351467371384 -0.9761034593418965 -0.026210351467371384 C -0.7827329203281689 -0.026210351467371384 -0.6259774435403377 -0.00874136385707654 -0.6259774435403377 0.012808000510147334 C -0.6259774435403377 0.03435736487737038 -0.7827329203281689 0.05182635248766522 -0.9761034593418965 0.05182635248766522 C -1.169473998355624 0.05182635248766522 -1.3346710805481545 0.034357364877371205 -1.3346710805481545 0.012808000510147334 Z" fill="#4e888f" transform="matrix(1,0,0,1,0,0)" fill-rule="nonzero"></path></g><g clip-path="url(#SvgjsClipPath11373c038598-8686-448b-af0b-e44f5f7d5f37)"><path d=" M -1.0994656463087624 0.9571524226128298 C -1.082478119082766 0.97587721939217 -0.9787675401350138 0.9740637186113125 -0.9787675401350138 0.9740637186113125 C -0.9787675401350138 0.9740637186113125 -0.8753177522287574 0.97587721939217 -0.8583302250027609 0.9571524226128298 L -0.8231274465708077 1.0912471639796815 C -0.8231274465708077 1.0912471639796815 -0.9377792127517415 1.1027259819753308 -0.9787675401350138 1.0997048180638576 C -1.0197518553484175 1.1027259819753308 -1.1345400353049029 1.0912471639796815 -1.1345400353049029 1.0912471639796815 Z" fill="#bab9b4" transform="matrix(1,0,0,1,0,0)" fill-rule="nonzero"></path></g></g></g><defs><clipPath id="SvgjsClipPath1139"><path d=" M -1.560508098143072 -0.026210351467371384 h 1.1605080981430718 v 1.1264207029347426 h -1.1605080981430718 Z"></path></clipPath><clipPath id="SvgjsClipPath11373c038598-8686-448b-af0b-e44f5f7d5f37"><path d=" M -1.560508098143072 -0.026210351467371384 L -0.40000000000000013 -0.026210351467371384 L -0.40000000000000013 1.1002103514673713 L -1.560508098143072 1.1002103514673713 Z"></path></clipPath></defs></svg>