<svg xmlns="http://www.w3.org/2000/svg" version="1.1" xmlns:xlink="http://www.w3.org/1999/xlink" xmlns:svgjs="http://svgjs.dev/svgjs" viewBox="0 0 17.78206928500828 3.6150734166788263"><g transform="matrix(1,0,0,1,4.210294073678604,0.6802492083394132)"><rect width="17.78206928500828" height="17.78206928500828" x="-4.210294073678604" y="-7.76374714250414" fill="#ffffff"></rect><g><path d=" M 0.0915 1.371 L 0.0915 0.30600000000000005 L 0.501 0.30600000000000005 Q 0.678 0.30600000000000005 0.79725 0.37725 Q 0.9165 0.4485 0.9772500000000001 0.56925 Q 1.038 0.69 1.038 0.837 Q 1.038 0.999 0.9712500000000001 1.119 Q 0.9045 1.2389999999999999 0.7837500000000001 1.305 Q 0.663 1.371 0.501 1.371 L 0.0915 1.371 M 0.741 0.837 Q 0.741 0.7545 0.7125 0.69225 Q 0.684 0.63 0.63 0.5955 Q 0.5760000000000001 0.5609999999999999 0.501 0.5609999999999999 L 0.384 0.5609999999999999 L 0.384 1.116 L 0.501 1.116 Q 0.5775 1.116 0.63075 1.08 Q 0.684 1.044 0.7125 0.9802500000000001 Q 0.741 0.9165 0.741 0.837 M 1.929005126953125 1.116 L 1.929005126953125 1.371 L 1.1700051269531249 1.371 L 1.1700051269531249 0.30600000000000005 L 1.915505126953125 0.30600000000000005 L 1.915505126953125 0.5609999999999999 L 1.462505126953125 0.5609999999999999 L 1.462505126953125 0.711 L 1.849505126953125 0.711 L 1.849505126953125 0.948 L 1.462505126953125 0.948 L 1.462505126953125 1.116 L 1.929005126953125 1.116 M 1.642505126953125 0.2609999999999999 L 1.462505126953125 0.21300000000000008 L 1.537505126953125 0 L 1.791005126953125 0 L 1.642505126953125 0.2609999999999999 M 2.275482421875 0.30600000000000005 L 2.483982421875 1.0335 L 2.6894824218749998 0.30600000000000005 L 2.996982421875 0.30600000000000005 L 2.629482421875 1.371 L 2.3384824218749998 1.371 L 1.9664824218749999 0.30600000000000005 L 2.275482421875 0.30600000000000005 M 3.84147802734375 1.116 L 3.84147802734375 1.371 L 3.0824780273437495 1.371 L 3.0824780273437495 0.30600000000000005 L 3.8279780273437494 0.30600000000000005 L 3.8279780273437494 0.5609999999999999 L 3.3749780273437495 0.5609999999999999 L 3.3749780273437495 0.711 L 3.7619780273437495 0.711 L 3.7619780273437495 0.948 L 3.3749780273437495 0.948 L 3.3749780273437495 1.116 L 3.84147802734375 1.116 M 3.9824553222656247 1.371 L 3.9824553222656247 0.30600000000000005 L 4.274955322265625 0.30600000000000005 L 4.274955322265625 1.116 L 4.757955322265625 1.116 L 4.757955322265625 1.371 L 3.9824553222656247 1.371 M 5.331030029296875 1.38 Q 5.209530029296875 1.38 5.110530029296875 1.33425 Q 5.011530029296875 1.2885 4.940280029296875 1.21125 Q 4.869030029296875 1.134 4.830780029296875 1.03725 Q 4.792530029296875 0.9405 4.792530029296875 0.837 Q 4.792530029296875 0.7305 4.833030029296875 0.6345 Q 4.873530029296875 0.5385 4.946280029296875 0.46275 Q 5.019030029296875 0.387 5.118780029296875 0.3434999999999999 Q 5.218530029296875 0.30000000000000004 5.337030029296875 0.30000000000000004 Q 5.458530029296875 0.30000000000000004 5.557530029296875 0.34575 Q 5.656530029296875 0.39149999999999996 5.727030029296875 0.46950000000000003 Q 5.797530029296875 0.5475 5.835780029296875 0.64425 Q 5.8740300292968755 0.741 5.8740300292968755 0.843 Q 5.8740300292968755 0.948 5.834280029296875 1.044 Q 5.794530029296875 1.14 5.721780029296875 1.2157499999999999 Q 5.649030029296875 1.2915 5.550030029296875 1.33575 Q 5.451030029296875 1.38 5.331030029296875 1.38 M 5.089530029296875 0.84 Q 5.089530029296875 0.8939999999999999 5.104530029296875 0.94425 Q 5.119530029296875 0.9944999999999999 5.149530029296875 1.0342500000000001 Q 5.179530029296875 1.074 5.225280029296875 1.09725 Q 5.271030029296875 1.1205 5.3340300292968745 1.1205 Q 5.397030029296875 1.1205 5.443530029296875 1.0965 Q 5.490030029296875 1.0725 5.519280029296875 1.03125 Q 5.548530029296875 0.99 5.562780029296875 0.93975 Q 5.577030029296875 0.8895 5.577030029296875 0.837 Q 5.577030029296875 0.783 5.562030029296875 0.7334999999999999 Q 5.547030029296875 0.6839999999999999 5.517030029296875 0.64425 Q 5.487030029296875 0.6044999999999999 5.440530029296875 0.582 Q 5.394030029296875 0.5595 5.332530029296875 0.5595 Q 5.269530029296875 0.5595 5.223780029296875 0.5835 Q 5.178030029296875 0.6074999999999999 5.148030029296875 0.64725 Q 5.118030029296875 0.6869999999999999 5.103780029296875 0.73725 Q 5.089530029296875 0.7875 5.089530029296875 0.84 M 6.003052001953125 1.371 L 6.003052001953125 0.30600000000000005 L 6.462052001953126 0.30600000000000005 Q 6.540052001953125 0.30600000000000005 6.606052001953125 0.3374999999999999 Q 6.6720520019531255 0.369 6.720052001953125 0.42225 Q 6.768052001953125 0.4754999999999999 6.794302001953125 0.5415 Q 6.820552001953125 0.6074999999999999 6.820552001953125 0.6749999999999999 Q 6.820552001953125 0.7695 6.776302001953125 0.8535 Q 6.732052001953125 0.9375 6.653302001953125 0.99075 Q 6.574552001953125 1.044 6.469552001953125 1.044 L 6.2955520019531255 1.044 L 6.2955520019531255 1.371 L 6.003052001953125 1.371 M 6.2955520019531255 0.789 L 6.450052001953125 0.789 Q 6.468052001953125 0.789 6.4845520019531255 0.7785 Q 6.501052001953125 0.768 6.512302001953125 0.7424999999999999 Q 6.523552001953125 0.717 6.523552001953125 0.6749999999999999 Q 6.523552001953125 0.63 6.510802001953126 0.60525 Q 6.498052001953125 0.5805 6.479302001953125 0.57075 Q 6.4605520019531255 0.5609999999999999 6.442552001953125 0.5609999999999999 L 6.2955520019531255 0.5609999999999999 L 6.2955520019531255 0.789 M 6.94203076171875 1.371 L 6.94203076171875 0.30600000000000005 L 7.401030761718751 0.30600000000000005 Q 7.47903076171875 0.30600000000000005 7.54503076171875 0.3374999999999999 Q 7.611030761718751 0.369 7.65903076171875 0.42225 Q 7.70703076171875 0.4754999999999999 7.73328076171875 0.5415 Q 7.75953076171875 0.6074999999999999 7.75953076171875 0.6749999999999999 Q 7.75953076171875 0.7695 7.71528076171875 0.8535 Q 7.67103076171875 0.9375 7.59228076171875 0.99075 Q 7.513530761718751 1.044 7.40853076171875 1.044 L 7.234530761718751 1.044 L 7.234530761718751 1.371 L 6.94203076171875 1.371 M 7.234530761718751 0.789 L 7.38903076171875 0.789 Q 7.40703076171875 0.789 7.423530761718751 0.7785 Q 7.44003076171875 0.768 7.45128076171875 0.7424999999999999 Q 7.46253076171875 0.717 7.46253076171875 0.6749999999999999 Q 7.46253076171875 0.63 7.449780761718751 0.60525 Q 7.43703076171875 0.5805 7.4182807617187505 0.57075 Q 7.399530761718751 0.5609999999999999 7.38153076171875 0.5609999999999999 L 7.234530761718751 0.5609999999999999 L 7.234530761718751 0.789 M 8.640009521484375 1.116 L 8.640009521484375 1.371 L 7.881009521484375 1.371 L 7.881009521484375 0.30600000000000005 L 8.626509521484376 0.30600000000000005 L 8.626509521484376 0.5609999999999999 L 8.173509521484375 0.5609999999999999 L 8.173509521484375 0.711 L 8.560509521484375 0.711 L 8.560509521484375 0.948 L 8.173509521484375 0.948 L 8.173509521484375 1.116 L 8.640009521484375 1.116 M 9.58648681640625 1.371 L 9.58648681640625 0.8099999999999999 L 9.40798681640625 1.2045 L 9.25198681640625 1.2045 L 9.07348681640625 0.8099999999999999 L 9.07348681640625 1.371 L 8.78098681640625 1.371 L 8.78098681640625 0.30600000000000005 L 9.10048681640625 0.30600000000000005 L 9.32998681640625 0.8069999999999999 L 9.560986816406249 0.30600000000000005 L 9.87898681640625 0.30600000000000005 L 9.87898681640625 1.371 L 9.58648681640625 1.371 M 10.82549267578125 1.116 L 10.82549267578125 1.371 L 10.06649267578125 1.371 L 10.06649267578125 0.30600000000000005 L 10.81199267578125 0.30600000000000005 L 10.81199267578125 0.5609999999999999 L 10.35899267578125 0.5609999999999999 L 10.35899267578125 0.711 L 10.74599267578125 0.711 L 10.74599267578125 0.948 L 10.35899267578125 0.948 L 10.35899267578125 1.116 L 10.82549267578125 1.116 M 11.258969970703125 0.8475 L 11.258969970703125 1.371 L 10.966469970703125 1.371 L 10.966469970703125 0.30600000000000005 L 11.194469970703125 0.30600000000000005 L 11.621969970703125 0.8475 L 11.621969970703125 0.30600000000000005 L 11.914469970703125 0.30600000000000005 L 11.914469970703125 1.371 L 11.681969970703125 1.371 L 11.258969970703125 0.8475 M 12.931512451171875 0.5609999999999999 L 12.625512451171875 0.5609999999999999 L 12.625512451171875 1.371 L 12.333012451171875 1.371 L 12.333012451171875 0.5609999999999999 L 12.025512451171876 0.5609999999999999 L 12.025512451171876 0.30600000000000005 L 12.931512451171875 0.30600000000000005 L 12.931512451171875 0.5609999999999999" fill="#404040" fill-rule="nonzero"></path></g><g><path d=" M 0.06675 2.254575 L 0.06675 1.722075 L 0.2475 1.722075 Q 0.33225 1.722075 0.388875 1.7577 Q 0.4455 1.793325 0.47400000000000003 1.8537 Q 0.5025000000000001 1.914075 0.5025000000000001 1.987575 Q 0.5025000000000001 2.068575 0.471375 2.128575 Q 0.44025000000000003 2.188575 0.382875 2.221575 Q 0.3255 2.254575 0.2475 2.254575 L 0.06675 2.254575 M 0.45 1.987575 Q 0.45 1.923825 0.426375 1.874325 Q 0.40275 1.824825 0.35775 1.7967 Q 0.31275000000000003 1.768575 0.2475 1.768575 L 0.11925000000000001 1.768575 L 0.11925000000000001 2.208075 L 0.2475 2.208075 Q 0.3135 2.208075 0.3585 2.178825 Q 0.4035 2.149575 0.42675 2.0997 Q 0.45 2.049825 0.45 1.987575 M 0.9618951416015624 2.208075 L 0.9618951416015624 2.254575 L 0.6041451416015624 2.254575 L 0.6041451416015624 1.722075 L 0.9551451416015624 1.722075 L 0.9551451416015624 1.768575 L 0.6566451416015624 1.768575 L 0.6566451416015624 1.960575 L 0.9168951416015625 1.960575 L 0.9168951416015625 2.004825 L 0.6566451416015624 2.004825 L 0.6566451416015624 2.208075 L 0.9618951416015624 2.208075 M 1.1929222412109375 2.187825 Q 1.2086722412109374 2.199075 1.2345472412109375 2.207325 Q 1.2604222412109374 2.215575 1.2941722412109373 2.215575 Q 1.3331722412109375 2.215575 1.3571722412109375 2.20245 Q 1.3811722412109373 2.189325 1.3939222412109373 2.1627 Q 1.4066722412109374 2.136075 1.4111722412109373 2.096325 Q 1.4156722412109375 2.056575 1.4156722412109375 2.003325 L 1.4156722412109375 1.722075 L 1.4681722412109375 1.722075 L 1.4681722412109375 1.992825 Q 1.4681722412109375 2.052825 1.4621722412109375 2.102325 Q 1.4561722412109375 2.151825 1.4389222412109375 2.187825 Q 1.4216722412109375 2.223825 1.3871722412109375 2.243325 Q 1.3526722412109373 2.262825 1.2956722412109374 2.262825 Q 1.2589222412109373 2.262825 1.2304222412109374 2.254575 Q 1.2019222412109374 2.246325 1.1779222412109374 2.229825 L 1.1929222412109375 2.187825 M 1.9538107910156248 2.208075 L 1.9538107910156248 2.254575 L 1.596060791015625 2.254575 L 1.596060791015625 1.722075 L 1.947060791015625 1.722075 L 1.947060791015625 1.768575 L 1.648560791015625 1.768575 L 1.648560791015625 1.960575 L 1.908810791015625 1.960575 L 1.908810791015625 2.004825 L 1.648560791015625 2.004825 L 1.648560791015625 2.208075 L 1.9538107910156248 2.208075 M 2.2706923828125 2.258325 Q 2.2076923828124997 2.258325 2.1641923828125 2.235825 Q 2.1206923828125 2.213325 2.0951923828125 2.17545 Q 2.0696923828125 2.137575 2.0580673828125 2.089575 Q 2.0464423828125 2.041575 2.0464423828125 1.990575 L 2.0464423828125 1.722075 L 2.0981923828125 1.722075 L 2.0981923828125 1.990575 Q 2.0981923828125 2.031825 2.1068173828125 2.071575 Q 2.1154423828124997 2.111325 2.1349423828124996 2.142825 Q 2.1544423828125 2.174325 2.1874423828125 2.1927 Q 2.2204423828124997 2.211075 2.2699423828125 2.211075 Q 2.3209423828124995 2.211075 2.3543173828125 2.19195 Q 2.3876923828125 2.172825 2.4068173828124997 2.141325 Q 2.4259423828125 2.109825 2.4341923828125 2.07045 Q 2.4424423828124997 2.031075 2.4424423828124997 1.990575 L 2.4424423828124997 1.722075 L 2.4949423828125 1.722075 L 2.4949423828125 1.990575 Q 2.4949423828125 2.043825 2.4829423828125 2.092575 Q 2.4709423828125 2.141325 2.4443173828124998 2.178075 Q 2.4176923828124997 2.214825 2.3749423828125 2.236575 Q 2.3321923828125 2.258325 2.2706923828125 2.258325 M 2.618321044921875 1.722075 L 2.792321044921875 1.953825 L 2.965571044921875 1.722075 L 3.024821044921875 1.722075 L 2.8208210449218747 1.992075 L 3.0188210449218746 2.254575 L 2.9595710449218746 2.254575 L 2.792321044921875 2.030325 L 2.624321044921875 2.254575 L 2.5643210449218747 2.254575 L 2.7623210449218747 1.992075 L 2.558321044921875 1.722075 L 2.618321044921875 1.722075" fill="#4e888f" fill-rule="nonzero"></path></g><g clip-path="url(#SvgjsClipPath1123)"><g clip-path="url(#SvgjsClipPath1120642778ba-7c7b-46c9-bfd1-d05f25a8ccb5)"><path d=" M -0.40419421443537074 2.2332019843587863 L -0.6256487366229453 1.6925877160891982 C -0.641620225311835 1.6535488237347828 -0.6796164523495851 1.6280469937474606 -0.7217961094413918 1.6280567311335665 L -3.2633502501281777 1.6280567311335665 C -3.3055371814426326 1.6280388802806172 -3.3435433539432964 1.6535420876221842 -3.359517595396319 1.6925877160891982 L -3.580912200234816 2.2332019843587863 C -3.5879072765093962 2.2502882869650884 -3.5859314717280064 2.269736398906152 -3.5756430631057263 2.285066809104914 C -3.5653546544834454 2.3003972193036764 -3.548105663469937 2.309595326262296 -3.5296429218748315 2.3095966044316096 L -0.4554834652450488 2.3095966044316096 C -0.43701718709141213 2.30960198323382 -0.41976205901609687 2.3004065946638255 -0.4094689158377469 2.2850751021960685 C -0.3991757726593925 2.2697436097283115 -0.3971977972270686 2.25029156024663 -0.40419421443537074 2.2332019843587863 Z M -1.7343593639386437 2.2118714080874726 L -2.250747050731544 2.2118714080874726 C -2.267986344480037 2.2118714089850924 -2.283916109203448 2.2026743557743593 -2.2925357563412865 2.187744689597045 C -2.3011554034791226 2.1728150234197305 -2.3011554034873853 2.1544209158875818 -2.292535756362956 2.1394912497025254 C -2.283916109238529 2.124561583517469 -2.2679863445233783 2.1153645302924273 -2.2507470507748852 2.1153645311745626 L -1.734379336388334 2.1153645311745626 C -1.7077296991746544 2.1153645325621624 -1.6861259004323814 2.136968332439008 -1.6861259004443512 2.1636179696526887 C -1.686125900456321 2.190267606866369 -1.7077296992179978 2.2118714067238097 -1.7343793364316773 2.2118714080874726 Z" fill="#404040" transform="matrix(1,0,0,1,0,0)" fill-rule="nonzero"></path></g><g clip-path="url(#SvgjsClipPath1120642778ba-7c7b-46c9-bfd1-d05f25a8ccb5)"><path d=" M -0.8577086295970937 0.060678796635544346 C -0.8032670708041767 0.06002371574392365 -0.7585807214897371 0.10358396905564105 -0.7578463811358884 0.15802451643552853 L -0.7578463811358884 1.3147888577107614 C -0.7585807214897371 1.3692294050906488 -0.8032670708041767 1.4127896584023663 -0.8577086295970937 1.4121345775107457 L -1.5487553889486438 1.4121345775107457 L -1.8569902050490041 1.1039397063097696 C -1.872562837988531 1.0882772964931346 -1.878466188248885 1.0654275888877294 -1.8724289086611074 1.0441821368305837 C -1.8563111417594675 0.9867213990660053 -1.862302876667143 0.9288612123075823 -1.893759484932422 0.8974046040423023 C -1.9365804170725858 0.854583671902137 -2.050702994614052 0.8043329884764578 -2.10654596395356 0.8104645305319758 L -1.9830563075064314 0.9339541869791039 L -2.036043216539949 1.0505333758327164 L -2.1526224053935614 1.1035202848662329 L -2.27611206184069 0.9800306284191047 C -2.282243603896208 1.0359534875573804 -2.231992920470528 1.1499961753000782 -2.189171988330364 1.1928171074402436 C -2.157715380065083 1.2242737157055237 -2.0998551933066603 1.2302654506131963 -2.042394455542082 1.2141476837115575 C -2.0211490034849358 1.2081104041237791 -1.9982992958795307 1.2140137543841327 -1.9826368860628967 1.2295863873236599 L -1.6843882948086562 1.5278349785778995 L -0.783630813688573 1.5278349785778995 C -0.7206656067661461 1.527823949464589 -0.6696280698793191 1.4767774711732606 -0.669628070845262 1.413812263284894 L -0.669628070845262 0.059001110861396075 C -0.669628070845262 -0.003964098776177941 -0.7206656085151848 -0.05501057628454628 -0.7836308154377796 -0.05502160443191599 L -2.188492925040828 -0.05502160443191599 L -2.072792523973675 0.060678796635544374 Z" fill="#4e888f" transform="matrix(1,0,0,1,0,0)" fill-rule="nonzero"></path></g><g clip-path="url(#SvgjsClipPath1120642778ba-7c7b-46c9-bfd1-d05f25a8ccb5)"><path d=" M -3.201435656082231 1.5278349785778995 L -1.7966334620790523 1.5278349785778995 L -1.912333863146208 1.4121345775107457 L -3.1273778126233993 1.4121345775107457 C -3.1818193714163145 1.412789658402366 -3.2265057207307564 1.3692294050906488 -3.227240061084606 1.3147888577107614 L -3.227240061084606 0.15802451643552853 C -3.2265057207307564 0.10358396905564093 -3.1818193714163145 0.06002371574392365 -3.1273778126233993 0.060678796635544374 L -2.436331053271849 0.060678796635544374 L -2.1281561545205667 0.36887366783652026 C -2.112572085417839 0.3845295628154004 -2.1066670106480023 0.4073859453656542 -2.112717450908465 0.42863123731570635 C -2.128835217810103 0.48609197508028457 -2.1228434829024296 0.5439521618387076 -2.091386874637151 0.5754087701039877 C -2.0485659424969844 0.6182297022441531 -1.9344433649555188 0.6684803856698321 -1.8786003956160127 0.6623488436143143 L -2.002090052063139 0.5388591871671862 L -1.9491031430296237 0.42227999831357355 L -1.8325239541760117 0.36929308928005744 L -1.7090342977288828 0.4927827457271854 C -1.702902755673365 0.4368598865889097 -1.7531534390990422 0.32281719884621174 -1.7959743712392084 0.2799962667060465 C -1.8274309795044896 0.24853965844076636 -1.88527119381322 0.24254792353309396 -1.942751904027491 0.25866569043473264 C -1.9639973560846349 0.2647029700225107 -1.986847063690042 0.25879961976215704 -2.002509473506676 0.24322698682263016 L -2.3006781749621465 -0.05502160443160964 L -3.201435656082231 -0.05502160443160964 C -3.2644008630046577 -0.055010575318299684 -3.3154383998914874 -0.003964097026971043 -3.3154383989255454 0.05900111086139605 L -3.3154383989255454 1.4137723183855093 C -3.3154489946480004 1.4440164828189603 -3.3034433410108326 1.4730258424885398 -3.282063105166502 1.4944173153173599 C -3.260682869322174 1.5158087881461801 -3.2316798219080303 1.5278296828045486 -3.2014356560822037 1.5278349785778995 Z" fill="#404040" transform="matrix(1,0,0,1,0,0)" fill-rule="nonzero"></path></g></g></g><defs><clipPath id="SvgjsClipPath1123"><path d=" M -3.585066469770801 -0.05502160443160964 h 3.185066469770801 v 2.3646182088632193 h -3.185066469770801 Z"></path></clipPath><clipPath id="SvgjsClipPath1120642778ba-7c7b-46c9-bfd1-d05f25a8ccb5"><path d=" M -3.585066469770801 -0.05502160443160964 L -0.3999999999999999 -0.05502160443160964 L -0.3999999999999999 2.3095966044316096 L -3.585066469770801 2.3095966044316096 Z"></path></clipPath></defs></svg>