<svg xmlns="http://www.w3.org/2000/svg" version="1.1" xmlns:xlink="http://www.w3.org/1999/xlink" xmlns:svgjs="http://svgjs.dev/svgjs" viewBox="0 0 10.255610001185845 2.931898440882181"><g transform="matrix(1,0,0,1,2.945230978495676,0.4866929704410904)"><g><path d=" M 0.033 0.5294999999999997 Q 0.033 0.4319999999999997 0.06975 0.3382499999999997 Q 0.1065 0.24449999999999972 0.177 0.1679999999999997 Q 0.2475 0.09149999999999969 0.34875 0.045749999999999735 Q 0.45 -2.220446049250313e-16 0.5775 -2.220446049250313e-16 Q 0.7305 -2.220446049250313e-16 0.8445 0.06374999999999975 Q 0.9585 0.12749999999999972 1.014 0.2324999999999997 L 0.7905 0.39149999999999974 Q 0.771 0.33899999999999975 0.7342500000000001 0.31049999999999967 Q 0.6975 0.2819999999999997 0.65475 0.2707499999999997 Q 0.612 0.25949999999999973 0.5715 0.25949999999999973 Q 0.5085000000000001 0.25949999999999973 0.46275 0.28424999999999967 Q 0.417 0.3089999999999997 0.38775 0.3494999999999997 Q 0.3585 0.3899999999999997 0.34425 0.43949999999999967 Q 0.33 0.48899999999999977 0.33 0.5384999999999998 Q 0.33 0.5939999999999996 0.34650000000000003 0.6449999999999998 Q 0.363 0.6959999999999997 0.3945 0.7357499999999997 Q 0.426 0.7754999999999997 0.47175 0.7979999999999997 Q 0.5175 0.8204999999999998 0.5745 0.8204999999999998 Q 0.615 0.8204999999999998 0.657 0.8077499999999997 Q 0.6990000000000001 0.7949999999999997 0.7335 0.7664999999999997 Q 0.768 0.7379999999999998 0.786 0.6899999999999997 L 1.0245 0.8324999999999997 Q 0.993 0.9104999999999998 0.9195 0.9659999999999997 Q 0.846 1.0214999999999996 0.753 1.0507499999999996 Q 0.66 1.0799999999999996 0.5685 1.0799999999999996 Q 0.45 1.0799999999999996 0.35175 1.0327499999999998 Q 0.2535 0.9854999999999997 0.18225 0.9067499999999997 Q 0.111 0.8279999999999997 0.07200000000000001 0.7297499999999997 Q 0.033 0.6314999999999997 0.033 0.5294999999999997 M 1.597468505859375 1.0799999999999996 Q 1.469968505859375 1.0799999999999996 1.378468505859375 1.0379999999999998 Q 1.286968505859375 0.9959999999999998 1.229218505859375 0.9224999999999998 Q 1.171468505859375 0.8489999999999998 1.1444685058593749 0.7537499999999997 Q 1.117468505859375 0.6584999999999996 1.117468505859375 0.5534999999999998 L 1.117468505859375 0.005999999999999783 L 1.409968505859375 0.005999999999999783 L 1.409968505859375 0.5534999999999998 Q 1.409968505859375 0.6059999999999997 1.420468505859375 0.6539999999999997 Q 1.4309685058593749 0.7019999999999997 1.453468505859375 0.7394999999999997 Q 1.475968505859375 0.7769999999999997 1.511218505859375 0.7987499999999997 Q 1.546468505859375 0.8204999999999998 1.597468505859375 0.8204999999999998 Q 1.649968505859375 0.8204999999999998 1.685968505859375 0.7987499999999997 Q 1.721968505859375 0.7769999999999997 1.743718505859375 0.7387499999999998 Q 1.765468505859375 0.7004999999999997 1.775968505859375 0.6524999999999997 Q 1.786468505859375 0.6044999999999997 1.786468505859375 0.5534999999999998 L 1.786468505859375 0.005999999999999783 L 2.078968505859375 0.005999999999999783 L 2.078968505859375 0.5534999999999998 Q 2.078968505859375 0.6644999999999996 2.049718505859375 0.7604999999999997 Q 2.020468505859375 0.8564999999999997 1.961968505859375 0.9284999999999997 Q 1.903468505859375 1.0004999999999997 1.812718505859375 1.0402499999999997 Q 1.721968505859375 1.0799999999999996 1.597468505859375 1.0799999999999996 M 2.25143994140625 1.0709999999999997 L 2.25143994140625 0.005999999999999783 L 2.54393994140625 0.005999999999999783 L 2.54393994140625 0.8159999999999997 L 3.02693994140625 0.8159999999999997 L 3.02693994140625 1.0709999999999997 L 2.25143994140625 1.0709999999999997 M 3.820516845703125 0.2609999999999997 L 3.514516845703125 0.2609999999999997 L 3.514516845703125 1.0709999999999997 L 3.2220168457031253 1.0709999999999997 L 3.2220168457031253 0.2609999999999997 L 2.914516845703125 0.2609999999999997 L 2.914516845703125 0.005999999999999783 L 3.820516845703125 0.005999999999999783 L 3.820516845703125 0.2609999999999997 M 4.396552001953125 1.0799999999999996 Q 4.269052001953125 1.0799999999999996 4.177552001953125 1.0379999999999998 Q 4.086052001953124 0.9959999999999998 4.028302001953125 0.9224999999999998 Q 3.970552001953125 0.8489999999999998 3.9435520019531247 0.7537499999999997 Q 3.9165520019531246 0.6584999999999996 3.9165520019531246 0.5534999999999998 L 3.9165520019531246 0.005999999999999783 L 4.209052001953125 0.005999999999999783 L 4.209052001953125 0.5534999999999998 Q 4.209052001953125 0.6059999999999997 4.219552001953125 0.6539999999999997 Q 4.2300520019531245 0.7019999999999997 4.252552001953124 0.7394999999999997 Q 4.275052001953124 0.7769999999999997 4.310302001953125 0.7987499999999997 Q 4.345552001953125 0.8204999999999998 4.396552001953125 0.8204999999999998 Q 4.449052001953125 0.8204999999999998 4.485052001953125 0.7987499999999997 Q 4.521052001953125 0.7769999999999997 4.542802001953125 0.7387499999999998 Q 4.564552001953125 0.7004999999999997 4.575052001953125 0.6524999999999997 Q 4.585552001953125 0.6044999999999997 4.585552001953125 0.5534999999999998 L 4.585552001953125 0.005999999999999783 L 4.878052001953125 0.005999999999999783 L 4.878052001953125 0.5534999999999998 Q 4.878052001953125 0.6644999999999996 4.848802001953125 0.7604999999999997 Q 4.819552001953125 0.8564999999999997 4.761052001953125 0.9284999999999997 Q 4.702552001953125 1.0004999999999997 4.611802001953125 1.0402499999999997 Q 4.521052001953125 1.0799999999999996 4.396552001953125 1.0799999999999996 M 5.0505234375 1.0709999999999997 L 5.0505234375 0.005999999999999783 L 5.5395234375 0.005999999999999783 Q 5.6175234375 0.005999999999999783 5.6835234375 0.037499999999999645 Q 5.7495234375 0.06899999999999973 5.7975234375 0.12224999999999975 Q 5.8455234375 0.17549999999999966 5.8717734375 0.24149999999999971 Q 5.8980234375 0.30749999999999966 5.8980234375 0.37499999999999967 Q 5.8980234375 0.43649999999999967 5.8800234375 0.4934999999999997 Q 5.8620234374999995 0.5504999999999998 5.8275234375 0.5977499999999998 Q 5.7930234375 0.6449999999999998 5.7450234375 0.6794999999999998 L 5.9700234375 1.0709999999999997 L 5.6490234375 1.0709999999999997 L 5.4615234375 0.7439999999999998 L 5.3430234375 0.7439999999999998 L 5.3430234375 1.0709999999999997 L 5.0505234375 1.0709999999999997 M 5.3430234375 0.48899999999999977 L 5.5275234375 0.48899999999999977 Q 5.5455234375 0.48899999999999977 5.5620234375 0.4754999999999997 Q 5.5785234375 0.46199999999999974 5.5897734375 0.43649999999999967 Q 5.6010234375 0.4109999999999997 5.6010234375 0.37499999999999967 Q 5.6010234375 0.3374999999999997 5.5882734375 0.31274999999999975 Q 5.5755234375 0.2879999999999997 5.5567734375 0.27449999999999974 Q 5.5380234375 0.2609999999999997 5.5200234375 0.2609999999999997 L 5.3430234375 0.2609999999999997 L 5.3430234375 0.48899999999999977 M 6.826505126953125 0.8159999999999997 L 6.826505126953125 1.0709999999999997 L 6.067505126953125 1.0709999999999997 L 6.067505126953125 0.005999999999999783 L 6.813005126953125 0.005999999999999783 L 6.813005126953125 0.2609999999999997 L 6.3600051269531255 0.2609999999999997 L 6.3600051269531255 0.4109999999999997 L 6.747005126953125 0.4109999999999997 L 6.747005126953125 0.6479999999999997 L 6.3600051269531255 0.6479999999999997 L 6.3600051269531255 0.8159999999999997 L 6.826505126953125 0.8159999999999997" fill="#404040" fill-rule="nonzero"></path></g><g><path d=" M 0.2805 1.9622625 Q 0.22725 1.9622625 0.1815 1.9393875 Q 0.13575 1.9165125 0.10200000000000001 1.8775125000000001 Q 0.06825 1.8385125000000002 0.049875 1.7905125000000002 Q 0.0315 1.7425125000000001 0.0315 1.6915125 Q 0.0315 1.6375125000000001 0.049875 1.5891375 Q 0.06825 1.5407625 0.10125 1.5032625000000002 Q 0.13425 1.4657625 0.17925 1.4440125000000001 Q 0.22425 1.4222625 0.2775 1.4222625 Q 0.35625 1.4222625 0.40575 1.4545125 Q 0.45525 1.4867625000000002 0.48075 1.5385125000000002 L 0.44025000000000003 1.5655125 Q 0.41475 1.5160125 0.372 1.4927625 Q 0.32925 1.4695125 0.27675 1.4695125 Q 0.2325 1.4695125 0.196875 1.4882625 Q 0.16125 1.5070125 0.13575 1.5385125000000002 Q 0.11025 1.5700125 0.097125 1.6097625 Q 0.084 1.6495125000000002 0.084 1.6922625 Q 0.084 1.7372625000000002 0.099 1.7773875000000001 Q 0.114 1.8175125 0.14175000000000001 1.8486375000000002 Q 0.1695 1.8797625 0.205875 1.8973875 Q 0.24225 1.9150125 0.28425 1.9150125 Q 0.333 1.9150125 0.3765 1.8906375000000002 Q 0.42 1.8662625000000002 0.45975 1.8152625 L 0.45975 1.8707625 Q 0.384 1.9622625 0.2805 1.9622625 M 0.4515 1.7372625000000002 L 0.333 1.7372625000000002 L 0.333 1.6967625000000002 L 0.49575 1.6967625000000002 L 0.49575 1.9585125 L 0.4515 1.9585125 L 0.4515 1.7372625000000002 M 0.7698775634765624 1.4260125000000001 L 0.8141275634765625 1.4260125000000001 L 1.0353775634765625 1.9585125 L 0.9798775634765624 1.9585125 L 0.9108775634765625 1.7920125 L 0.6716275634765625 1.7920125 L 0.6033775634765625 1.9585125 L 0.5471275634765624 1.9585125 L 0.7698775634765624 1.4260125000000001 M 0.8988775634765624 1.7507625 L 0.7916275634765624 1.4875125 L 0.6828775634765625 1.7507625 L 0.8988775634765624 1.7507625 M 1.5847716064453123 1.9585125 L 1.5847716064453123 1.5250125 L 1.3920216064453124 1.8617625000000002 L 1.3590216064453124 1.8617625000000002 L 1.1655216064453124 1.5250125 L 1.1655216064453124 1.9585125 L 1.1130216064453125 1.9585125 L 1.1130216064453125 1.4260125000000001 L 1.1670216064453123 1.4260125000000001 L 1.3747716064453124 1.7905125000000002 L 1.5840216064453125 1.4260125000000001 L 1.6372716064453123 1.4260125000000001 L 1.6372716064453123 1.9585125 L 1.5847716064453123 1.9585125 M 2.1296572265625002 1.9120125000000001 L 2.1296572265625002 1.9585125 L 1.7719072265625002 1.9585125 L 1.7719072265625002 1.4260125000000001 L 2.1229072265625 1.4260125000000001 L 2.1229072265625 1.4725125000000001 L 1.8244072265625002 1.4725125000000001 L 1.8244072265625002 1.6645125 L 2.0846572265625003 1.6645125 L 2.0846572265625003 1.7087625000000002 L 1.8244072265625002 1.7087625000000002 L 1.8244072265625002 1.9120125000000001 L 2.1296572265625002 1.9120125000000001 M 2.229788818359375 1.9585125 L 2.229788818359375 1.4260125000000001 L 2.454788818359375 1.4260125000000001 Q 2.489288818359375 1.4260125000000001 2.5177888183593753 1.4402625000000002 Q 2.546288818359375 1.4545125 2.5676638183593754 1.4788875000000001 Q 2.5890388183593753 1.5032625000000002 2.6006638183593753 1.5328875000000002 Q 2.6122888183593753 1.5625125 2.6122888183593753 1.5932625 Q 2.6122888183593753 1.6315125000000001 2.597663818359375 1.6652625 Q 2.583038818359375 1.6990125 2.556413818359375 1.7222625 Q 2.5297888183593753 1.7455125 2.4937888183593753 1.7530125 L 2.6242888183593753 1.9585125 L 2.5650388183593753 1.9585125 L 2.439788818359375 1.7620125 L 2.2822888183593752 1.7620125 L 2.2822888183593752 1.9585125 L 2.229788818359375 1.9585125 M 2.2822888183593752 1.7155125 L 2.456288818359375 1.7155125 Q 2.487788818359375 1.7155125 2.511038818359375 1.6982625000000002 Q 2.534288818359375 1.6810125 2.547038818359375 1.6528875 Q 2.559788818359375 1.6247625 2.559788818359375 1.5932625 Q 2.559788818359375 1.5610125000000001 2.545163818359375 1.5336375000000002 Q 2.5305388183593753 1.5062625 2.5061638183593753 1.4893875 Q 2.4817888183593753 1.4725125000000001 2.451788818359375 1.4725125000000001 L 2.2822888183593752 1.4725125000000001 L 2.2822888183593752 1.7155125" fill="#4e888f" fill-rule="nonzero"></path></g><g clip-path="url(#SvgjsClipPath1156)"><g clip-path="url(#SvgjsClipPath115495f08b18-8a22-4a6f-9cfe-874fbf74525f)"><path d=" M -1.2850717949453876 1.5725112830407295 C -1.264008852622375 1.5725112830407295 -1.209049828403435 1.5631440278780162 -1.2059720159928298 1.4997143286333672 C -1.2028942035822237 1.4362846293887164 -1.217881811842563 1.3528491494751318 -1.195039091038636 1.3030019702164148 C -1.144188277298199 1.2250797890557399 -1.0673232577916025 1.0989965345656363 -1.050221326223108 1.0524412764069577 C -1.0499705185885682 1.05177860971587 -1.049808530220755 1.0510856594757816 -1.0497395816718826 1.0503804802711612 C -0.9842810577989574 0.9153356658945532 -0.9929106404510437 0.7561119708322445 -1.0725811396447342 0.628932838126194 C -1.1522516388384254 0.5017537054201436 -1.291753071871161 0.42451378732168116 -1.4418261191968282 0.42448725388492486 L -1.464575167449128 0.42448725388492486 C -1.6146422440260229 0.42452848990157765 -1.7541327888426606 0.5017713082481365 -1.8338001200588985 0.6289453838674512 C -1.9134674512751357 0.7561194594867644 -1.922104394452051 0.9153346229980346 -1.8566617049740737 1.0503804802711612 C -1.8565861332495839 1.0510845503716846 -1.856424339569321 1.0517766677817018 -1.856179960422847 1.0524412764069577 C -1.8390780288543538 1.0989965345656363 -1.7622263911408467 1.2250664072626498 -1.7113488138142312 1.3030019702164148 C -1.6885194748033927 1.3528759130613106 -1.703520464856822 1.436324774767984 -1.7004292706531274 1.4997143286333672 C -1.6973380764494328 1.563103882498749 -1.6423924340235823 1.5725112830407295 -1.6213294917005694 1.5725112830407295 L -1.5319391138621175 1.5725112830407295 L -1.5319391138621175 1.1131946170336917 L -1.5502721703948539 1.0073178701088663 L -1.3554332630104444 1.0073178701088663 L -1.3745424635423769 1.1131946170336917 L -1.3745424635423769 1.5725112830407295 Z" fill="#4e888f" transform="matrix(1,0,0,1,0,0)" fill-rule="nonzero"></path></g><g clip-path="url(#SvgjsClipPath115495f08b18-8a22-4a6f-9cfe-874fbf74525f)"><path d=" M -1.118307889462935 1.7856966287509648 C -1.1441138683640724 1.7763662534621254 -1.1651075169370442 1.7570883392537024 -1.1765989801611825 1.732169456392611 C -1.182133770257768 1.7205703572174973 -1.195982429561399 1.715599186180516 -1.2076304453491935 1.7210302755090612 C -1.219278461136988 1.7264613648376081 -1.2243729841228876 1.7402651230770547 -1.2190460278413577 1.751961128372113 C -1.185183780877059 1.824756002987482 -1.1000609465946953 1.8580496832964397 -1.0257960564991253 1.827546050089369 C -0.9515311664035555 1.7970424168822987 -0.9143860831758048 1.713528293185878 -0.9414674937840215 1.637948251248818 C -0.9458316197384462 1.625753827009512 -0.9592549768152525 1.6194061159828204 -0.9714494011108774 1.623770241779877 C -0.9836438254065023 1.6281343675769353 -0.98999153660642 1.6415577245718267 -0.9856274109667291 1.6537521489237688 C -0.9721452433885998 1.6914881737685183 -0.9816863865341652 1.733616489006065 -1.0101117869184935 1.7618613651742434 C -1.0385371873028224 1.7901062413424205 -1.0807254339122785 1.7993787925177007 -1.1183747984283834 1.7856564833716972 Z" fill="#404040" transform="matrix(1,0,0,1,0,0)" fill-rule="nonzero"></path></g><g clip-path="url(#SvgjsClipPath115495f08b18-8a22-4a6f-9cfe-874fbf74525f)"><path d=" M -0.8993148455518178 0.36429594856795683 C -0.9028416967351931 0.3767162590026311 -0.8956626763438909 0.3896504607409612 -0.8832566938443127 0.3932273852276483 C -0.8811660757754105 0.39381416286298593 -0.8790048362425598 0.3941113332987527 -0.8768334331613092 0.3941105835715611 C -0.8663744069284149 0.39410359429199415 -0.8571880403831258 0.3871619344352385 -0.8543252571846212 0.3771023245546945 C -0.8355436700030223 0.31095681578200574 -0.8534769770641417 0.2398159876838311 -0.9013698750170207 0.1904779022575291 C -0.9492627729698997 0.14113981683123014 -1.019839191123559 0.1211001031296225 -1.0865136752487703 0.13790752751573296 C -1.153188159373981 0.15471495190184342 -1.2058312689792348 0.2058160667207175 -1.2246128537465069 0.271961576178938 C -1.2269943456295809 0.2800415961858258 -1.2248527511013154 0.2887781020564226 -1.2190044460022307 0.2948407378798886 C -1.213156140903146 0.3009033737033531 -1.2045023396054504 0.3033578970889499 -1.1963418711081801 0.3012686437378674 C -1.1881814026109097 0.29917939038678637 -1.1817717819323599 0.29286831086680376 -1.179556356433981 0.2847411886503553 C -1.1575879160945095 0.20737310868609893 -1.0770597554810786 0.16246282731132877 -0.9996916755168208 0.184431267650801 C -0.9223235955525628 0.20639970799027174 -0.8774133141777933 0.28692786860370345 -0.8993817545172649 0.3642959485679598 Z" fill="#404040" transform="matrix(1,0,0,1,0,0)" fill-rule="nonzero"></path></g><g clip-path="url(#SvgjsClipPath115495f08b18-8a22-4a6f-9cfe-874fbf74525f)"><path d=" M -0.4000133817930891 1.0937107262952512 C -0.3997935225757119 0.9942157075565766 -0.44543844240842834 0.9001711777260113 -0.5237414406994061 0.8387875679386045 C -0.45503986594496615 0.7649168874979965 -0.4314920242902338 0.6597493060236131 -0.4621326638259853 0.5636351290706842 C -0.4927733033617363 0.46752095211775535 -0.5728440415635778 0.3953863700951216 -0.6716236361324686 0.3749077104880019 C -0.6507956058429354 0.2386234048294601 -0.708047511080139 0.10215397763336367 -0.8198765684652178 0.02152221752025854 C -0.9317056258502976 -0.059109542592848105 -1.0792725939076677 -0.07032003548457261 -1.2019989736378918 -0.007507182238714161 C -1.3247253533681151 0.055305671007144286 -1.4019360898505346 0.18156012591612122 -1.4019349939967642 0.31942679633856924 L -1.4022160116516456 0.402862276252154 C -1.4152766417070834 0.4017382056326289 -1.4284577079003282 0.40104235239197084 -1.4417993556106488 0.40104235239197084 L -1.4645484038629493 0.40104235239197084 C -1.4779301969525374 0.40104235239197084 -1.491071117766514 0.4017382056326289 -1.5041317478219525 0.402862276252154 L -1.5044127654768338 0.3195070870971057 C -1.5040297345330598 0.18138966276747664 -1.581161100114871 0.05473301890674882 -1.7040495752030493 -0.008314521145609502 C -1.8269380502912276 -0.07136206119796784 -1.9748070597550875 -0.060141141861517214 -2.0867745157517743 0.020728249219296918 C -2.1987419717484613 0.10159764030011104 -2.255877699906149 0.23844303320198706 -2.2346572143756793 0.37492109228110254 C -2.33343147814231 0.3954025752463544 -2.413497014585974 0.46753463122515593 -2.4441370451424373 0.5636441253170243 C -2.4747770756988996 0.6597536194088927 -2.4512337698894435 0.7649165234069427 -2.3825394098087247 0.8387875679385881 C -2.466296221378005 0.9046482812841169 -2.5123214615535336 1.007476646575248 -2.505640468691793 1.1138166737569972 C -2.498959475830053 1.2201567009387477 -2.4404262148763967 1.3164160007689079 -2.3490849270847534 1.3712758785594947 C -2.3491919814294695 1.3714766054558396 -2.349339181153455 1.3716371869729156 -2.3494328537050824 1.3718512956623492 C -2.388575015900133 1.454035982291804 -2.3870077647112113 1.5498013239441892 -2.3451972911555776 1.630661177262997 C -2.3033868175999452 1.7115210305818067 -2.2261500326010277 1.7681596744666832 -2.1364616166842807 1.7837295051667943 C -2.0866500960445213 1.9348537388377043 -1.9344778613363933 2.0274459284833677 -1.77736721437735 2.002227558132061 C -1.6202565674183056 1.9770091877807512 -1.5047066587825388 1.8414439960326106 -1.5046937831317142 1.6823222771338924 L -1.5040113116841456 1.5105803446221149 C -1.5040056152333252 1.5089945463109773 -1.5041580292483758 1.507412130213547 -1.5044662926491914 1.5058565716614907 L -1.5044662926491914 1.250679159236125 C -1.5038032142028246 1.1769986340025427 -1.5090703364678393 1.1033842234167404 -1.520216663115638 1.0305486629123917 L -1.386251532495766 1.0305486629123917 C -1.3973872862631844 1.1033852679086853 -1.402649898200509 1.1769991848891066 -1.4019885211691219 1.250679159236125 L -1.4019885211691219 1.4633693786020459 C -1.4021370752164912 1.4642998016846493 -1.4022309090124925 1.4652381396446694 -1.4022695388240038 1.4661795551508603 L -1.4019885211691219 1.5534288460949774 L -1.4019885211691219 1.5725112830407308 C -1.4019885211691219 1.5727253917301631 -1.4019885211691219 1.5729127368334175 -1.4019885211691219 1.5731268455228529 L -1.4016405945487929 1.682228604582269 C -1.4016737318086738 1.8413680576910516 -1.2861379253288143 1.9769762571930376 -1.1290134125896527 2.002220150123127 C -0.9718888998504913 2.0274640430532163 -0.8196898251897196 1.9348705874338972 -0.7698727609961713 1.78372950516663 C -0.6801819123341033 1.7681632347800593 -0.602941520974072 1.7115260285760097 -0.5611281532789396 1.6306656588670063 C -0.5193147855838063 1.5498052891580043 -0.5177458822236007 1.4540379161842338 -0.5568881421823353 1.3718512956623519 C -0.5569818147339627 1.3716371869729187 -0.5571290144579475 1.3714766054558427 -0.5572360688026652 1.3712758785594992 C -0.45975669091464333 1.3127497792384601 -0.40008853379014564 1.2074100128688654 -0.40001338179308865 1.0937107262952512 Z M -1.8288409571408186 1.9595127391916312 C -1.951729963664096 1.9593257563742856 -2.0598708301512474 1.8783616521456854 -2.0946568950724043 1.7604987123632694 C -2.0948976026707062 1.758486334568603 -2.095406150973809 1.7565151473406444 -2.0961690376915296 1.7546374869900303 C -2.113268031751618 1.6927615197582035 -2.108139975693572 1.6268496634996752 -2.0816765557755037 1.5683629271829598 C -2.0766072820425814 1.5566243448150838 -2.081890793391121 1.5429895948742618 -2.093546189964401 1.5377318783636182 C -2.105201586537683 1.5324741618529765 -2.118919680962546 1.5375373410389623 -2.124364475731292 1.549106526927043 C -2.1432874928829646 1.5909440292671109 -2.1530250389820864 1.6363509276890214 -2.152921222184474 1.6822687499615379 C -2.152923998930648 1.6993471209859559 -2.151581669086296 1.7163991844424427 -2.1489066842576903 1.7332667634253678 C -2.2191612505781757 1.7147859463264208 -2.277541744907177 1.6659881410887252 -2.308192567187971 1.6001263784105948 C -2.338843389468764 1.534264615732463 -2.3385825653973784 1.458176246812383 -2.3074809323692214 1.3925261659857666 C -2.221727120159768 1.4284385970946776 -2.1246664304951746 1.425713350948588 -2.0410628137486033 1.3850457436486878 C -2.0011035700257995 1.4353979097933056 -1.9405702141104757 1.4650476027621453 -1.8762927954364992 1.4657513377719944 L -1.8760117777816179 1.4657513377719944 C -1.8630782973462687 1.4658252433744838 -1.8525337275464298 1.4554004982314588 -1.8524598219439419 1.4424670177961105 C -1.8523859163414547 1.4295335373607632 -1.8628106614844775 1.418988967560923 -1.8757441419198262 1.418915061958435 C -1.9403694943523595 1.4181410190578538 -1.9987447260558966 1.3801425970411634 -2.0256112818049226 1.3213614478381612 C -2.0524778375539494 1.2625802986351609 -2.043010416827516 1.193573663468757 -2.0013055064794356 1.1442002316222717 C -1.9956753262094322 1.137838681103573 -1.9939318124287828 1.1289269464526455 -1.9967494647450708 1.1209126410991406 C -1.9995671170613605 1.1128983357456375 -2.0065040091656825 1.107038439609625 -2.014876519595363 1.1055999251051412 C -2.0232490300250414 1.10416141060066 -2.0317439972487334 1.1073698972626662 -2.0370750394079056 1.1139841428259807 C -2.0885866564884386 1.174762592555687 -2.101922727066267 1.259186525416411 -2.071653592751403 1.3328835141854696 C -2.0699541050290247 1.3370586336294212 -2.068053890410303 1.3411133169355658 -2.0661135304123133 1.345127854862442 C -2.102565646849694 1.3621271531570094 -2.142314193901214 1.3708901087023886 -2.1825351302917326 1.3707941340082748 C -2.3228652412995676 1.3707832457612579 -2.441031432791402 1.265862698736267 -2.4576477411678717 1.1265198177915887 C -2.474264049544342 0.98717693684691 -2.3840835999833603 0.8574115465585612 -2.2476910808449406 0.8244021403672825 C -2.235574513785372 0.820989086130113 -2.228323782693638 0.8086079532465607 -2.2312751144321274 0.7963707240869734 C -2.234226446170616 0.7841334949273863 -2.2463238478900696 0.7764186764277103 -2.258664151178402 0.7789040438626816 C -2.288191266775241 0.7860608626768052 -2.316569218252234 0.797321954532755 -2.342969447642811 0.8123585265866538 C -2.403274114431846 0.7518494406991919 -2.4255027330910646 0.6631242828284034 -2.4008497045704167 0.581330453622085 C -2.376196676049768 0.49953662441576674 -2.3086402281833447 0.4378730899860521 -2.224942032592641 0.4207671154060205 C -2.204913172246462 0.4907540950973581 -2.1645177566252456 0.5532011594213919 -2.108895122919728 0.6001634335650464 C -2.107511028523029 0.6011846242743878 -2.106016207847523 0.6020465028620664 -2.1044389858208943 0.6027327378382469 C -2.104960875751388 0.6035891725959808 -2.1055362928542407 0.6044054619744458 -2.106044800991645 0.60527527852527 C -2.1458097290054456 0.6733860614366329 -2.14085764807304 0.7587000265522121 -2.09347929728052 0.8217525453355442 C -2.0857192090193113 0.8320993296838222 -2.0710406885593073 0.8341962611781095 -2.060693904211029 0.8264361729168992 C -2.0503471198627494 0.8186760846556904 -2.0482501883684625 0.8039975641956858 -2.056010276629673 0.7936507798474064 C -2.0907026969848097 0.747379248068588 -2.0955725604130944 0.6852411019963515 -2.068512176279575 0.6341299066101919 C -2.0414517921460553 0.5830187112240337 -1.987322781121029 0.5521170133328601 -1.9295523319330612 0.5547991549913396 C -1.9166188516090275 0.5553903996591991 -1.9056548956810824 0.5453850408726708 -1.9050636508463197 0.5324515605562662 C -1.904472406011557 0.5195180802398617 -1.9144777646565991 0.5085541241828013 -1.9274112449653735 0.507962879181134 C -1.9832227448424216 0.5051866200567308 -2.0375356108406644 0.5265306064343951 -2.0765245654360127 0.5665617511170915 C -2.077181647448593 0.5657772194099345 -2.077892604761118 0.5650394335195802 -2.0786522705372565 0.5643537552573088 C -2.192029322280333 0.4686002829186612 -2.22483365158952 0.30753118109865235 -2.1579377933414667 0.17506221312457712 C -2.0910419350934135 0.04259324515050045 -1.9419475474351713 -0.026618337343642672 -1.7975882077352066 0.007783179603295651 C -1.653228868035241 0.04218469655023248 -1.551372651626327 0.17119900103384408 -1.5514096228074683 0.3196007596487353 L -1.5511018415664075 0.4093256823144263 C -1.7672228573776638 0.4510226693733578 -1.9234783253148553 0.6400384847893729 -1.9237847791114486 0.8601449097095754 C -1.9239645164439088 0.9286511413049965 -1.9086628132003964 0.9963125740926785 -1.879022681226777 1.058075011297675 C -1.8787951907442517 1.0588913006761445 -1.8785409366755492 1.0597075900546082 -1.8782331554344887 1.0604971158468959 C -1.8599937714533792 1.1101970953816287 -1.7812419191211513 1.2387827451794835 -1.732077211310002 1.3142159128254955 C -1.7196187619435956 1.343080440519738 -1.721371776838331 1.3888997000584888 -1.7231381735261566 1.4332335805642957 C -1.7240213718700694 1.4559826288165962 -1.7249447155932511 1.4794542938957336 -1.7239009357322632 1.5008651628390757 C -1.7202610880118954 1.5759236402785781 -1.6577681142835166 1.5959428027406024 -1.6214097824591052 1.5959428027406024 L -1.5513962410143773 1.5959428027406024 L -1.5517441676347064 1.682241986375359 C -1.5519209483877878 1.8352162685372218 -1.6758400394972641 1.959207179453152 -1.8288141935546722 1.9594725938123623 Z M -1.4399928135435542 0.9837525324781023 L -1.530145953588113 0.9837525324781023 C -1.5370435109600198 0.9498559943908088 -1.551522968412764 0.9179600141821102 -1.57249932871666 0.8904546710574913 C -1.5936240824596137 0.8643387591404902 -1.6260740276643701 0.8500506130417287 -1.6596014199367928 0.8521024520627306 C -1.6843257180758275 0.8546010049747216 -1.7062649848912814 0.8690339440551386 -1.7183474916000865 0.8907490705054627 C -1.7326520449985723 0.9148235642516946 -1.732927963533471 0.944724958070686 -1.7190701084269242 0.9690593236657338 C -1.7038014825117027 0.9952474927420588 -1.6651147186897033 1.026132671192829 -1.568123482376365 1.0301605909127964 C -1.5559110097052358 1.1030258121669956 -1.5503080180465976 1.176845563180323 -1.5513828592212904 1.2507193046153944 L -1.5513828592212904 1.5491332905132187 L -1.6212759645282118 1.5491332905132187 C -1.6354891987979878 1.550346389640981 -1.6495664726909784 1.5455919938619642 -1.6601337025272034 1.536009651168774 C -1.670700932363429 1.5264273084755837 -1.6768055452844868 1.512880810014142 -1.676984369160169 1.4986170216000207 C -1.67792109467644 1.4792535669993874 -1.6770914235048857 1.4578025526767782 -1.676208225160973 1.4350802680106547 C -1.674227719783713 1.3844970901320108 -1.6721936872340963 1.3321876609448084 -1.690018235629428 1.2932332612610162 L -1.6917043415587156 1.2901688306434997 C -1.7486840165341835 1.2028793943201137 -1.8171318881874288 1.0886390267142967 -1.833551348308355 1.046058161103225 L -1.8337654569977884 1.0439170742088915 L -1.8355987626510624 1.0401434085576269 C -1.862920211503572 0.9840826696108892 -1.8770376895740353 0.9225086756012276 -1.8768682125393528 0.8601449097095708 C -1.8766174770868935 0.6325730825425431 -1.692200513529568 0.448150132587651 -1.4646286946214842 0.44789200999861595 L -1.4418796463691883 0.44789200999861595 C -1.2143026015296772 0.44814275944988186 -1.0298774961094976 0.6325678648700613 -1.0296267466582325 0.8601449097095708 C -1.0294647585369257 0.9225093521424563 -1.043586656236878 0.9840826571544753 -1.0709095783396108 1.0401434085576193 L -1.072742883992887 1.0439170742088915 L -1.07297037447541 1.0460983064824956 C -1.089309543837798 1.0886390267142967 -1.1577574154910433 1.202879394320115 -1.2148173812250491 1.290168830643501 L -1.2165034871543368 1.293233261261018 C -1.2343280355496684 1.3321608973586296 -1.2322940030000518 1.384470326545832 -1.2303134976227919 1.4350802680106565 C -1.229430299278879 1.457829316262957 -1.2286006281073247 1.4792401852062986 -1.2295373536235958 1.4986170216000239 C -1.2297161774992782 1.512880810014145 -1.2358207904203358 1.5264273084755868 -1.2463880202565614 1.536009651168777 C -1.2569552500927863 1.5455919938619669 -1.271032523985777 1.5503463896409841 -1.285245758255553 1.54913329051322 L -1.355312826872639 1.54913329051322 L -1.355312826872639 1.2507193046153957 C -1.3563876680473317 1.1768455631803212 -1.3507846763886937 1.1030258121669925 -1.3385722037175627 1.030160590912795 C -1.2415809674042262 1.026146052985922 -1.2029075853753153 0.9952474927420604 -1.1876389594600947 0.9690593236657353 C -1.1737754888593277 0.9447264175297905 -1.174051435282809 0.9148220014147052 -1.1883615762869324 0.8907490705054643 C -1.200437997661961 0.8690343753600862 -1.222373295341296 0.8546007595710862 -1.2470942661571363 0.8521024520627322 C -1.2805631378012443 0.8500832404368375 -1.3129492253250314 0.8643402948152863 -1.3340625394463714 0.8903877620920391 C -1.3550509193327434 0.9178859176570419 -1.3695316799804482 0.9497847686004228 -1.3764159145749193 0.9836856235126531 Z M -1.5791634616752748 0.9826552254447561 C -1.651599107669218 0.9775032351052636 -1.6726486681991406 0.9555838580245183 -1.6785500389516497 0.9454806042418782 C -1.6839777456438494 0.9355247544174523 -1.6835937630244662 0.9234113827179836 -1.6775464044699313 0.913819281791912 C -1.6729493246748968 0.9052432564300502 -1.6643424127827087 0.8995589721295408 -1.6546501564936444 0.8986978556006764 C -1.6533967296445669 0.898563922773621 -1.6521370529487647 0.898496918694058 -1.6508764908423812 0.8984971287043345 C -1.6338383328855193 0.8997710367901509 -1.6181109320085334 0.9081175747439978 -1.6075060994390242 0.921513812818426 C -1.5939722091724362 0.9397206018802454 -1.5843333378058597 0.9605197921731498 -1.5791902252614545 0.9826150800654857 Z M -1.3272779703499498 0.9826552254447561 C -1.322141476399839 0.9605429335933754 -1.31249729527421 0.9397284491517124 -1.2989487143792897 0.921513812818426 C -1.2883417377648576 0.9081201488693157 -1.2726155508852741 0.899774255184379 -1.2555783229759345 0.898497128704333 C -1.2543177514303185 0.8984965614545366 -1.2530580556627386 0.8985635665485571 -1.251804657324671 0.8986978556006764 C -1.2421115724616263 0.8995566002599017 -1.2335036329957505 0.9052415632034665 -1.228908409348384 0.9138192817919134 C -1.222862466565744 0.9234106577464127 -1.222473461846144 0.935520988885531 -1.2278913930735749 0.9454806042418782 C -1.2338329092053528 0.9555437126452478 -1.2548824697352763 0.9774630897259947 -1.3273047339361292 0.9826150800654857 Z M -0.7238393927680435 1.370727225042824 C -0.7640602819557278 1.3708227615285513 -0.8038087347780505 1.3620598267569175 -0.8402609926474645 1.3450609458969938 C -0.8383206326494734 1.3410464079701168 -0.8364204180307517 1.3370318700432393 -0.8347209303083738 1.3328166052200205 C -0.8044517959935094 1.259119616450962 -0.8177878665713383 1.174695683590238 -0.869299483651871 1.1139172338605312 C -0.8746305258110434 1.1073029882972172 -0.8831254930347348 1.104094501635211 -0.891498003464414 1.1055330161396917 C -0.8998705138940943 1.106971530644174 -0.9068074059984164 1.112831426780188 -0.9096250583147061 1.1208457321336915 C -0.912442710630994 1.128860037487196 -0.9106991968503446 1.137771772138124 -0.9050690165803412 1.1441333226568222 C -0.863364106232261 1.1935067545033076 -0.8538966855058272 1.26251338966971 -0.8807632412548534 1.3212945388727122 C -0.9076297970038802 1.3800756880757143 -0.9660050287074173 1.4180741100924044 -1.0306303811399509 1.418848152992986 C -1.0435638615752993 1.4189220585954736 -1.0539886067183222 1.4294666283953141 -1.053914701115835 1.442400108830661 C -1.053840795513347 1.4553335892660098 -1.0432962257135083 1.4657583344090348 -1.030362745278159 1.4656844288065454 L -1.0300817276232777 1.4656844288065454 C -0.9658006943469437 1.4649831896467127 -0.905264600056549 1.4353272389637204 -0.8653117093111733 1.384965452890147 C -0.7817071387098067 1.4256448489477838 -0.6846391390962188 1.4283750387912613 -0.5988802088974639 1.3924592570203158 C -0.5677788446507797 1.4581111767351826 -0.5675197821848026 1.5342013115003628 -0.5981733831842435 1.6000634870339674 C -0.6288269841836844 1.6659256625675734 -0.6872108456036443 1.714722183423461 -0.7574678388021794 1.7331998544605094 C -0.7547928539735413 1.7163322754775918 -0.753450524129158 1.699280212021105 -0.7534533008753013 1.6822018409960884 C -0.753354393408634 1.6362859516413728 -0.7630869581569897 1.5908810047070623 -0.7819966655353947 1.549039617961589 C -0.7874414603041402 1.5374704320735084 -0.8011595547290029 1.5324072528875243 -0.8128149513022849 1.537664969398166 C -0.8244703478755653 1.5429226859088097 -0.8297538592241043 1.5565574358496317 -0.8246845854911815 1.5682960182175072 C -0.7982322966538966 1.6267860661055544 -0.7931091638043861 1.692695501655638 -0.810205485368247 1.7545705780245795 C -0.8109683720859675 1.756448238375195 -0.8114769203890708 1.758419425603154 -0.811717627987371 1.7604318033978203 C -0.8505970798985101 1.8926707250241153 -0.9807465395766024 1.9762418557062973 -1.117171280386063 1.9565686691604522 C -1.2535960211955242 1.9368954826146072 -1.354830975829577 1.8199574661347673 -1.3547641733559643 1.6821215502375462 L -1.3550318092177556 1.595902657361329 L -1.2850985585315657 1.595902657361329 C -1.2487402267071543 1.595902657361329 -1.1862472529787755 1.5758299677269458 -1.1826074052584075 1.500825017459802 C -1.1815636253974195 1.4794141485164602 -1.1824869691206006 1.4559157198511428 -1.1833701674645143 1.4331934351850224 C -1.1850964187730715 1.3888595546792155 -1.1868895790470753 1.3430402951404643 -1.1744311296806689 1.3141757674462209 C -1.1252664218695205 1.2387425998002115 -1.0465145695372915 1.1101703317954437 -1.0281547494183763 1.0601625710196507 C -1.027887113556585 1.0594533359859026 -1.0276730048671516 1.0587307191590658 -1.0274722779708074 1.0580214841253173 C -0.9978363051582531 0.9962623538465362 -0.9825347671765727 0.9286062262683459 -0.9827101800861344 0.8601047643303034 C -0.98301663388273 0.6399983394100964 -1.1392721018199243 0.4509825239940813 -1.3553931176311813 0.40928553693515435 L -1.3550987181832048 0.31948032351092537 C -1.3550737259493912 0.1710952229216941 -1.2531860467856917 0.04213335996058412 -1.1088333437988973 0.007775888547839817 C -0.9644806408121014 -0.02658158286490598 -0.8154203460854761 0.04265200580256881 -0.7485504363071156 0.1751154115707484 C -0.6816805265287551 0.307578817338928 -0.7144917450282211 0.4686244171060303 -0.827856070453459 0.564367137050432 C -0.8286324508042393 0.5650627458122154 -0.8293569946096895 0.5658141245734213 -0.8300239209339293 0.5666152782894447 C -0.8690656552768818 0.5266844914578769 -0.923313542306649 0.5053456906531705 -0.9790970959519445 0.5079762609708702 C -0.9874635908820772 0.5083587292154711 -0.9949905066158757 0.5131756163949923 -0.9988425268009964 0.5206124477005611 C -1.002694546986117 0.5280492790061285 -1.0022864581115871 0.5369762228299924 -0.9977719833091758 0.5440305857801431 C -0.9932575085067654 0.5510849487302922 -0.9853225039045173 0.5551950052416135 -0.976956008984257 0.5548125367810772 C -0.9191879614510023 0.5521358848493205 -0.8650638757985594 0.5830396747499058 -0.8380069697597521 0.6341497092389204 C -0.8109500637209432 0.6852597437279336 -0.8158208663895048 0.7473945661650866 -0.8505114461540879 0.793664161640498 C -0.8582715344152976 0.8040109459887745 -0.8561746029210109 0.818689466448779 -0.8458278185727315 0.8264495547099879 C -0.8354810342244521 0.8342096429711983 -0.820802513764449 0.8321127114769108 -0.81304242550324 0.8217659271286343 C -0.7656507526442518 0.7587170810482301 -0.7607033261534499 0.6733924346285187 -0.8004903035852056 0.6052886603183601 C -0.8009988117226106 0.6044188437675345 -0.8015608470323723 0.6036159361821611 -0.8020827369628674 0.6027595014244271 C -0.8004994173783899 0.6020715986337641 -0.7989998576848498 0.601205086595282 -0.7976132180709437 0.6001768153581366 C -0.7419948755236099 0.5532107632961522 -0.7016003738857748 0.49076511189430616 -0.6815663083980321 0.4207804971991137 C -0.5978703785006088 0.4378902676029374 -0.5303176983917961 0.49955532711280437 -0.5056676534399305 0.5813485310391512 C -0.4810176084880644 0.6631417349654981 -0.5032478031073464 0.7518646891624128 -0.5635522751409501 0.8123719083797454 C -0.5899525045315273 0.7973353363258451 -0.6183304560085208 0.7860742444698968 -0.6478575716053583 0.7789174256557733 C -0.6601978748936923 0.776432058220802 -0.6722952766131456 0.7841468767204779 -0.6752466083516344 0.7963841058800651 C -0.6781979400901237 0.8086213350396523 -0.6709472089983894 0.8210024679232046 -0.6588306419388219 0.8244155221603742 C -0.522490323219889 0.8574417412284557 -0.4323435714561503 0.9871538540834087 -0.44892110275582997 1.1264542457207676 C -0.46549863405551006 1.2657546373581248 -0.5835694814628609 1.370687682998474 -0.723852774561133 1.3707941340082703 Z" fill="#404040" transform="matrix(1,0,0,1,0,0)" fill-rule="nonzero"></path></g><g clip-path="url(#SvgjsClipPath115495f08b18-8a22-4a6f-9cfe-874fbf74525f)"><path d=" M -0.6361351208588806 0.9811297010325429 C -0.6782026801944383 0.9465410686902829 -0.7361425410846241 0.9385381254048253 -0.7860112034622728 0.9604280671229478 C -0.7978693572937954 0.9656014593274947 -0.8032884273478369 0.9794082553267208 -0.7981150352316404 0.9912664091967888 C -0.7929416431154446 1.0031245630668582 -0.7791348471565926 1.0085436332237667 -0.7672766932479804 1.0033702411959204 C -0.7256840533719946 0.9852090997904391 -0.6770646680320549 0.9979000375363513 -0.6496545806929541 1.034072704704541 C -0.6222444933538527 1.0702453718727298 -0.6231777084655621 1.1204851334292836 -0.6519122549115053 1.1556149011276857 C -0.6536518880131519 1.1577470668266279 -0.6554673512756397 1.1597810993762447 -0.6573586446989677 1.1617169987765386 C -0.6632197715544392 1.1677229946242127 -0.6654191016275559 1.1764060883589713 -0.6631237573120974 1.184478026701878 C -0.6608284129966389 1.1925499650447882 -0.6543893290468696 1.1987766308833363 -0.6462449611052083 1.2008000104742802 C -0.6381005931635471 1.2028233900652245 -0.6294961320900294 1.2003341292891196 -0.6236900532855627 1.194274901363508 C -0.6209200221160183 1.1913978158492458 -0.6182168999119209 1.1884002941971783 -0.6156609774318089 1.185268954614214 C -0.5650423804305189 1.1232138346666556 -0.5742010657671484 1.0318963543984991 -0.6361351208588812 0.9811297010325429 Z" fill="#404040" transform="matrix(1,0,0,1,0,0)" fill-rule="nonzero"></path></g><g clip-path="url(#SvgjsClipPath115495f08b18-8a22-4a6f-9cfe-874fbf74525f)"><path d=" M -1.6985825832067638 1.7208886048180867 C -1.7103050020412633 1.7154423661912954 -1.7242242282411402 1.7205049910258148 -1.7297086339331473 1.7322096017718787 C -1.7529996476520364 1.782311163972794 -1.8115741589336976 1.8052369554091285 -1.8626863577305288 1.784256464729006 C -1.91379855652736 1.7632759740488817 -1.9393733687105903 1.7058086418795506 -1.9207471120801136 1.6537922942668906 C -1.916382986460385 1.6415978699078022 -1.9227306976822773 1.6281745129233034 -1.9349251219850463 1.6238103871462077 C -1.9471195462878146 1.6194462613691134 -1.9605429033542299 1.6257939724177781 -1.9649070292886914 1.6379883966642308 C -1.9919884398839733 1.7135684385651437 -1.9548433566562227 1.7970825622615663 -1.8805784665606529 1.8275861954686365 C -1.806313576465083 1.8580898286757055 -1.7211907421827193 1.8247961483667479 -1.6873284952184213 1.7520012737513788 C -1.6846940857898354 1.74638323401091 -1.6843998279136636 1.7399486645128088 -1.6865104793084011 1.7341136294441206 C -1.6886211307031398 1.7282785943754342 -1.6929637255237888 1.7235212692291713 -1.6985825832067638 1.720888604818088 Z" fill="#404040" transform="matrix(1,0,0,1,0,0)" fill-rule="nonzero"></path></g><g clip-path="url(#SvgjsClipPath115495f08b18-8a22-4a6f-9cfe-874fbf74525f)"><path d=" M -1.7959886551058788 0.19733131618916078 C -1.762185112836982 0.21605959634658511 -1.7372815466639944 0.24753600777111184 -1.7268315484188852 0.2847411886503538 C -1.723302555900097 0.2971868921092834 -1.71035250611467 0.3044153145317305 -1.6979068026557396 0.3008863220129406 C -1.685461099196809 0.2973573294941537 -1.678232676774363 0.2844072797087261 -1.6817616692931514 0.27196157624979644 C -1.7002363484131995 0.2054578128182697 -1.7529073880079462 0.1539382561073563 -1.8198032111192313 0.1369378687762132 C -1.8866990342305163 0.11993748144506858 -1.9575764797479263 0.14005938127105744 -2.005560544469701 0.18967383331803406 C -2.0535446091914755 0.23928828536501068 -2.071287920997537 0.3107982708344083 -2.052062647668246 0.3770889427616043 C -2.0498472221698654 0.3852160649780513 -2.0434376014913163 0.3915271444980354 -2.0352771329940453 0.39361639784911645 C -2.0271166644967757 0.39570565120019746 -2.018462863199079 0.39325112781460214 -2.012614558099995 0.38718849199113614 C -2.0067662530009107 0.38112585616767164 -2.004624658472644 0.3723893502970749 -2.0070061503355996 0.364309330361047 C -2.02310914825724 0.3076458277735248 -2.003487595073042 0.24686191550593206 -1.9572933895577298 0.21030846909715262 C -1.9110991840424172 0.1737550226883702 -1.8474324438255088 0.1686329596208764 -1.7959886551058788 0.19733131618916225 Z" fill="#404040" transform="matrix(1,0,0,1,0,0)" fill-rule="nonzero"></path></g><g clip-path="url(#SvgjsClipPath115495f08b18-8a22-4a6f-9cfe-874fbf74525f)"><path d=" M -2.120269647045878 0.9604280671229478 C -2.1816864114735357 0.9336238851761347 -2.253470017762975 0.9523685816212949 -2.293940674442184 1.005778403476023 C -2.3344113311213923 1.059188225330753 -2.33303874122321 1.1333661585299861 -2.2906198730763414 1.1852421910280353 C -2.2880371870100507 1.1884002941971783 -2.2853474465990433 1.191397815849247 -2.2825907972225874 1.194274901363508 C -2.2735868897230667 1.2035013577068776 -2.2588190946935813 1.203715332025491 -2.2495516541318743 1.1947536138670523 C -2.2402842135701677 1.1857918957086118 -2.240002863542849 1.1710252306415092 -2.2489222058091833 1.1617169987765386 C -2.250809038634815 1.1597766387785486 -2.252615580701909 1.1577024608496629 -2.254368595596645 1.155601519334597 C -2.2830964243984644 1.1204689128574965 -2.284023251859924 1.0702317023248122 -2.2566108558497926 1.034063363539004 C -2.2291984598396613 0.9978950247531942 -2.1805807669283723 0.9852081706422603 -2.138990775578213 1.003370241147437 C -2.127132621696376 1.0085436332366586 -2.1133258257094765 1.0031245631512133 -2.1081524335319033 0.9912664093079216 C -2.102979041354331 0.9794082554646287 -2.10839811133691 0.9656014594373542 -2.1202562651416565 0.9604280671714315 Z" fill="#404040" transform="matrix(1,0,0,1,0,0)" fill-rule="nonzero"></path></g></g></g><defs><clipPath id="SvgjsClipPath1156"><path d=" M -2.506334377680508 -0.04779636962592215 h 2.106334377680508 v 2.0541052392518444 h -2.106334377680508 Z"></path></clipPath><clipPath id="SvgjsClipPath115495f08b18-8a22-4a6f-9cfe-874fbf74525f"><path d=" M -2.506334377680508 -0.047796369625921965 L -0.3999999999999999 -0.047796369625921965 L -0.3999999999999999 2.0063088696259217 L -2.506334377680508 2.0063088696259217 Z"></path></clipPath></defs></svg>