<svg xmlns="http://www.w3.org/2000/svg" version="1.1" xmlns:xlink="http://www.w3.org/1999/xlink" xmlns:svgjs="http://svgjs.dev/svgjs" viewBox="0 0 14.68767558382197 3.3216234876005304"><g transform="matrix(1,0,0,1,3.346937397310714,0.601267993800265)"><rect width="14.68767558382197" height="14.68767558382197" x="-3.3469373973107137" y="-6.284294041910985" fill="#ffffff"></rect><g><path d=" M 0.921 0.26249999999999973 L 0.615 0.26249999999999973 L 0.615 1.0724999999999998 L 0.3225 1.0724999999999998 L 0.3225 0.26249999999999973 L 0.015 0.26249999999999973 L 0.015 0.00749999999999984 L 0.921 0.00749999999999984 L 0.921 0.26249999999999973 M 1.79103515625 0.8174999999999998 L 1.79103515625 1.0724999999999998 L 1.0320351562499999 1.0724999999999998 L 1.0320351562499999 0.00749999999999984 L 1.77753515625 0.00749999999999984 L 1.77753515625 0.26249999999999973 L 1.32453515625 0.26249999999999973 L 1.32453515625 0.41249999999999976 L 1.71153515625 0.41249999999999976 L 1.71153515625 0.6494999999999997 L 1.32453515625 0.6494999999999997 L 1.32453515625 0.8174999999999998 L 1.79103515625 0.8174999999999998 M 1.8570329589843748 0.5309999999999998 Q 1.8570329589843748 0.4334999999999998 1.8937829589843749 0.3397499999999998 Q 1.930532958984375 0.24599999999999977 2.001032958984375 0.16949999999999976 Q 2.071532958984375 0.09299999999999975 2.172782958984375 0.04724999999999979 Q 2.274032958984375 0.0014999999999998348 2.401532958984375 0.0014999999999998348 Q 2.554532958984375 0.0014999999999998348 2.668532958984375 0.06524999999999981 Q 2.782532958984375 0.12899999999999978 2.8380329589843747 0.23399999999999976 L 2.614532958984375 0.3929999999999998 Q 2.595032958984375 0.3404999999999998 2.5582829589843747 0.3119999999999997 Q 2.521532958984375 0.28349999999999975 2.478782958984375 0.27224999999999977 Q 2.436032958984375 0.2609999999999998 2.395532958984375 0.2609999999999998 Q 2.332532958984375 0.2609999999999998 2.286782958984375 0.2857499999999997 Q 2.2410329589843747 0.3104999999999998 2.211782958984375 0.35099999999999976 Q 2.1825329589843747 0.39149999999999974 2.168282958984375 0.4409999999999997 Q 2.154032958984375 0.4904999999999998 2.154032958984375 0.5399999999999998 Q 2.154032958984375 0.5954999999999997 2.170532958984375 0.6464999999999999 Q 2.187032958984375 0.6974999999999998 2.2185329589843747 0.7372499999999997 Q 2.250032958984375 0.7769999999999998 2.295782958984375 0.7994999999999998 Q 2.341532958984375 0.8219999999999998 2.398532958984375 0.8219999999999998 Q 2.4390329589843747 0.8219999999999998 2.481032958984375 0.8092499999999998 Q 2.523032958984375 0.7964999999999998 2.5575329589843747 0.7679999999999998 Q 2.592032958984375 0.7394999999999998 2.610032958984375 0.6914999999999998 L 2.848532958984375 0.8339999999999997 Q 2.817032958984375 0.9119999999999998 2.7435329589843747 0.9674999999999998 Q 2.670032958984375 1.0229999999999997 2.577032958984375 1.0522499999999997 Q 2.484032958984375 1.0814999999999997 2.3925329589843747 1.0814999999999997 Q 2.274032958984375 1.0814999999999997 2.175782958984375 1.03425 Q 2.0775329589843747 0.9869999999999998 2.0062829589843747 0.9082499999999998 Q 1.9350329589843749 0.8294999999999998 1.896032958984375 0.7312499999999997 Q 1.8570329589843748 0.6329999999999998 1.8570329589843748 0.5309999999999998 M 3.8985014648437497 0.00749999999999984 L 3.8985014648437497 1.0724999999999998 L 3.6060014648437497 1.0724999999999998 L 3.6060014648437497 0.6554999999999997 L 3.2490014648437495 0.6554999999999997 L 3.2490014648437495 1.0724999999999998 L 2.9565014648437495 1.0724999999999998 L 2.9565014648437495 0.00749999999999984 L 3.2490014648437495 0.00749999999999984 L 3.2490014648437495 0.40049999999999975 L 3.6060014648437497 0.40049999999999975 L 3.6060014648437497 0.00749999999999984 L 3.8985014648437497 0.00749999999999984 M 4.37850146484375 0.5489999999999998 L 4.37850146484375 1.0724999999999998 L 4.08600146484375 1.0724999999999998 L 4.08600146484375 0.00749999999999984 L 4.3140014648437495 0.00749999999999984 L 4.74150146484375 0.5489999999999998 L 4.74150146484375 0.00749999999999984 L 5.03400146484375 0.00749999999999984 L 5.03400146484375 1.0724999999999998 L 4.80150146484375 1.0724999999999998 L 4.37850146484375 0.5489999999999998 M 5.7015439453125 1.0814999999999997 Q 5.5800439453125 1.0814999999999997 5.4810439453125 1.0357499999999997 Q 5.3820439453125 0.9899999999999998 5.3107939453125 0.9127499999999997 Q 5.2395439453125 0.8354999999999998 5.2012939453125 0.7387499999999998 Q 5.1630439453125 0.6419999999999998 5.1630439453125 0.5384999999999998 Q 5.1630439453125 0.43199999999999983 5.2035439453125 0.33599999999999974 Q 5.2440439453125 0.23999999999999977 5.3167939453125 0.16424999999999979 Q 5.3895439453125 0.0884999999999998 5.4892939453125 0.04499999999999971 Q 5.5890439453125 0.0014999999999998348 5.7075439453125 0.0014999999999998348 Q 5.8290439453125 0.0014999999999998348 5.9280439453125 0.04724999999999979 Q 6.0270439453125 0.09299999999999975 6.0975439453125 0.17099999999999982 Q 6.1680439453125 0.24899999999999978 6.2062939453125 0.3457499999999998 Q 6.2445439453125005 0.4424999999999998 6.2445439453125005 0.5444999999999998 Q 6.2445439453125005 0.6494999999999997 6.2047939453125 0.7454999999999998 Q 6.1650439453125 0.8414999999999998 6.0922939453125 0.9172499999999998 Q 6.0195439453125 0.9929999999999998 5.9205439453125 1.0372499999999998 Q 5.8215439453125 1.0814999999999997 5.7015439453125 1.0814999999999997 M 5.4600439453125 0.5414999999999998 Q 5.4600439453125 0.5954999999999997 5.4750439453125 0.6457499999999998 Q 5.4900439453125 0.6959999999999997 5.5200439453125 0.7357499999999998 Q 5.5500439453125 0.7754999999999999 5.5957939453125 0.7987499999999998 Q 5.6415439453125 0.8219999999999998 5.7045439453124995 0.8219999999999998 Q 5.7675439453125 0.8219999999999998 5.8140439453125 0.7979999999999998 Q 5.8605439453125 0.7739999999999998 5.8897939453125 0.7327499999999998 Q 5.9190439453125 0.6914999999999998 5.9332939453125 0.6412499999999998 Q 5.9475439453125 0.5909999999999997 5.9475439453125 0.5384999999999998 Q 5.9475439453125 0.4844999999999998 5.9325439453125 0.4349999999999997 Q 5.9175439453125 0.38549999999999973 5.8875439453125 0.3457499999999998 Q 5.8575439453125 0.3059999999999997 5.8110439453125 0.28349999999999975 Q 5.7645439453125 0.2609999999999998 5.7030439453125 0.2609999999999998 Q 5.6400439453125 0.2609999999999998 5.5942939453125 0.2849999999999998 Q 5.5485439453125 0.3089999999999997 5.5185439453125 0.3487499999999998 Q 5.4885439453125 0.38849999999999973 5.4742939453125 0.43874999999999975 Q 5.4600439453125 0.48899999999999977 5.4600439453125 0.5414999999999998 M 6.37356591796875 1.0724999999999998 L 6.37356591796875 0.00749999999999984 L 6.6660659179687505 0.00749999999999984 L 6.6660659179687505 0.8174999999999998 L 7.14906591796875 0.8174999999999998 L 7.14906591796875 1.0724999999999998 L 6.37356591796875 1.0724999999999998 M 7.722140625000001 1.0814999999999997 Q 7.6006406250000005 1.0814999999999997 7.501640625 1.0357499999999997 Q 7.402640625 0.9899999999999998 7.331390625 0.9127499999999997 Q 7.260140625 0.8354999999999998 7.221890625 0.7387499999999998 Q 7.183640625000001 0.6419999999999998 7.183640625000001 0.5384999999999998 Q 7.183640625000001 0.43199999999999983 7.224140625 0.33599999999999974 Q 7.264640625 0.23999999999999977 7.337390625 0.16424999999999979 Q 7.410140625 0.0884999999999998 7.509890625000001 0.04499999999999971 Q 7.609640625 0.0014999999999998348 7.728140625 0.0014999999999998348 Q 7.849640625 0.0014999999999998348 7.948640625 0.04724999999999979 Q 8.047640625 0.09299999999999975 8.118140625 0.17099999999999982 Q 8.188640625 0.24899999999999978 8.226890625 0.3457499999999998 Q 8.265140625 0.4424999999999998 8.265140625 0.5444999999999998 Q 8.265140625 0.6494999999999997 8.225390625000001 0.7454999999999998 Q 8.185640625 0.8414999999999998 8.112890625 0.9172499999999998 Q 8.040140625000001 0.9929999999999998 7.941140625 1.0372499999999998 Q 7.842140625000001 1.0814999999999997 7.722140625000001 1.0814999999999997 M 7.480640625 0.5414999999999998 Q 7.480640625 0.5954999999999997 7.495640625 0.6457499999999998 Q 7.510640625000001 0.6959999999999997 7.540640625 0.7357499999999998 Q 7.570640625 0.7754999999999999 7.616390625 0.7987499999999998 Q 7.662140625 0.8219999999999998 7.725140625 0.8219999999999998 Q 7.7881406250000005 0.8219999999999998 7.8346406250000005 0.7979999999999998 Q 7.8811406250000005 0.7739999999999998 7.910390625000001 0.7327499999999998 Q 7.939640625 0.6914999999999998 7.9538906250000005 0.6412499999999998 Q 7.968140625 0.5909999999999997 7.968140625 0.5384999999999998 Q 7.968140625 0.4844999999999998 7.9531406250000005 0.4349999999999997 Q 7.938140625 0.38549999999999973 7.908140625000001 0.3457499999999998 Q 7.878140625 0.3059999999999997 7.831640625 0.28349999999999975 Q 7.785140625 0.2609999999999998 7.723640625000001 0.2609999999999998 Q 7.660640625 0.2609999999999998 7.614890625 0.2849999999999998 Q 7.569140625 0.3089999999999997 7.539140625 0.3487499999999998 Q 7.509140625000001 0.38849999999999973 7.494890625 0.43874999999999975 Q 7.480640625 0.48899999999999977 7.480640625 0.5414999999999998 M 8.85466259765625 1.0799999999999998 Q 8.751162597656249 1.0799999999999998 8.657412597656249 1.0432499999999998 Q 8.563662597656249 1.0064999999999997 8.49166259765625 0.9352499999999998 Q 8.41966259765625 0.8639999999999998 8.378412597656249 0.7627499999999998 Q 8.33716259765625 0.6614999999999998 8.33716259765625 0.5309999999999998 Q 8.33716259765625 0.41849999999999976 8.379162597656249 0.3224999999999998 Q 8.421162597656249 0.2264999999999998 8.49541259765625 0.15374999999999972 Q 8.569662597656249 0.08099999999999974 8.66866259765625 0.04049999999999976 Q 8.76766259765625 -2.220446049250313e-16 8.88316259765625 -2.220446049250313e-16 Q 9.02716259765625 -2.220446049250313e-16 9.14416259765625 0.062249999999999694 Q 9.26116259765625 0.12449999999999972 9.318162597656249 0.23249999999999982 L 9.10066259765625 0.3989999999999998 Q 9.06916259765625 0.33599999999999974 9.00616259765625 0.29774999999999974 Q 8.943162597656249 0.25949999999999973 8.87266259765625 0.25949999999999973 Q 8.82016259765625 0.25949999999999973 8.77666259765625 0.28049999999999975 Q 8.73316259765625 0.30149999999999977 8.700912597656249 0.33899999999999975 Q 8.66866259765625 0.3764999999999997 8.65141259765625 0.4282499999999998 Q 8.63416259765625 0.47999999999999976 8.63416259765625 0.5414999999999998 Q 8.63416259765625 0.6044999999999998 8.65216259765625 0.6554999999999997 Q 8.67016259765625 0.7064999999999998 8.702412597656249 0.7432499999999997 Q 8.73466259765625 0.7799999999999998 8.77966259765625 0.8002499999999998 Q 8.82466259765625 0.8204999999999998 8.88016259765625 0.8204999999999998 Q 8.95066259765625 0.8204999999999998 9.01516259765625 0.7852499999999998 Q 9.079662597656249 0.7499999999999998 9.132162597656249 0.6854999999999998 L 9.132162597656249 0.9704999999999998 Q 9.01216259765625 1.0799999999999998 8.85466259765625 1.0799999999999998 M 9.11716259765625 0.7154999999999998 L 8.92066259765625 0.7154999999999998 L 8.92066259765625 0.5054999999999997 L 9.358662597656249 0.5054999999999997 L 9.358662597656249 1.0724999999999998 L 9.11716259765625 1.0724999999999998 L 9.11716259765625 0.7154999999999998 M 9.50718310546875 1.0724999999999998 L 9.50718310546875 0.00749999999999984 L 9.79968310546875 0.00749999999999984 L 9.79968310546875 1.0724999999999998 L 9.50718310546875 1.0724999999999998 M 10.7462080078125 0.8174999999999998 L 10.7462080078125 1.0724999999999998 L 9.9872080078125 1.0724999999999998 L 9.9872080078125 0.00749999999999984 L 10.7327080078125 0.00749999999999984 L 10.7327080078125 0.26249999999999973 L 10.2797080078125 0.26249999999999973 L 10.2797080078125 0.41249999999999976 L 10.6667080078125 0.41249999999999976 L 10.6667080078125 0.6494999999999997 L 10.2797080078125 0.6494999999999997 L 10.2797080078125 0.8174999999999998 L 10.7462080078125 0.8174999999999998" fill="#404040" fill-rule="nonzero"></path></g><g><path d=" M 0.4245 2.0725875000000005 L 0.4245 2.1190875000000005 L 0.06675 2.1190875000000005 L 0.06675 1.5865875000000005 L 0.41775 1.5865875000000005 L 0.41775 1.6330875000000005 L 0.11925000000000001 1.6330875000000005 L 0.11925000000000001 1.8250875000000004 L 0.3795 1.8250875000000004 L 0.3795 1.8693375000000005 L 0.11925000000000001 1.8693375000000005 L 0.11925000000000001 2.0725875000000005 L 0.4245 2.0725875000000005 M 0.902631591796875 1.6330875000000005 L 0.7128815917968749 1.6330875000000005 L 0.7128815917968749 2.1190875000000005 L 0.660381591796875 2.1190875000000005 L 0.660381591796875 1.6330875000000005 L 0.4706315917968749 1.6330875000000005 L 0.4706315917968749 1.5865875000000005 L 0.902631591796875 1.5865875000000005 L 0.902631591796875 1.6330875000000005 M 1.6256304931640624 2.1190875000000005 L 1.6256304931640624 1.6855875000000005 L 1.4328804931640624 2.0223375000000003 L 1.3998804931640625 2.0223375000000003 L 1.2063804931640625 1.6855875000000005 L 1.2063804931640625 2.1190875000000005 L 1.1538804931640625 2.1190875000000005 L 1.1538804931640625 1.5865875000000005 L 1.2078804931640623 1.5865875000000005 L 1.4156304931640624 1.9510875000000005 L 1.6248804931640626 1.5865875000000005 L 1.6781304931640624 1.5865875000000005 L 1.6781304931640624 2.1190875000000005 L 1.6256304931640624 2.1190875000000005 M 1.97776611328125 1.5865875000000005 L 2.02201611328125 1.5865875000000005 L 2.2432661132812504 2.1190875000000005 L 2.18776611328125 2.1190875000000005 L 2.11876611328125 1.9525875000000004 L 1.8795161132812501 1.9525875000000004 L 1.8112661132812502 2.1190875000000005 L 1.75501611328125 2.1190875000000005 L 1.97776611328125 1.5865875000000005 M 2.10676611328125 1.9113375000000004 L 1.9995161132812502 1.6480875000000004 L 1.89076611328125 1.9113375000000004 L 2.10676611328125 1.9113375000000004 M 2.647915283203125 1.6330875000000005 L 2.458165283203125 1.6330875000000005 L 2.458165283203125 2.1190875000000005 L 2.4056652832031253 2.1190875000000005 L 2.4056652832031253 1.6330875000000005 L 2.2159152832031253 1.6330875000000005 L 2.2159152832031253 1.5865875000000005 L 2.647915283203125 1.5865875000000005 L 2.647915283203125 1.6330875000000005 M 3.0862792968750004 2.0725875000000005 L 3.0862792968750004 2.1190875000000005 L 2.728529296875 2.1190875000000005 L 2.728529296875 1.5865875000000005 L 3.079529296875 1.5865875000000005 L 3.079529296875 1.6330875000000005 L 2.7810292968750003 1.6330875000000005 L 2.7810292968750003 1.8250875000000004 L 3.0412792968750004 1.8250875000000004 L 3.0412792968750004 1.8693375000000005 L 2.7810292968750003 1.8693375000000005 L 2.7810292968750003 2.0725875000000005 L 3.0862792968750004 2.0725875000000005 M 2.9317792968750003 1.5138375000000004 L 2.8980292968750003 1.5010875000000006 L 2.9422792968750002 1.4313375000000006 L 2.9962792968750005 1.4313375000000006 L 2.9317792968750003 1.5138375000000004 M 3.186410888671875 2.1190875000000005 L 3.186410888671875 1.5865875000000005 L 3.4114108886718753 1.5865875000000005 Q 3.4459108886718752 1.5865875000000005 3.4744108886718754 1.6008375000000004 Q 3.502910888671875 1.6150875000000005 3.5242858886718755 1.6394625000000005 Q 3.5456608886718755 1.6638375000000005 3.5572858886718755 1.6934625000000003 Q 3.5689108886718754 1.7230875000000005 3.5689108886718754 1.7538375000000004 Q 3.5689108886718754 1.7920875000000005 3.5542858886718753 1.8258375000000004 Q 3.5396608886718752 1.8595875000000004 3.513035888671875 1.8828375000000004 Q 3.4864108886718754 1.9060875000000004 3.4504108886718754 1.9135875000000004 L 3.5809108886718755 2.1190875000000005 L 3.5216608886718754 2.1190875000000005 L 3.396410888671875 1.9225875000000006 L 3.2389108886718754 1.9225875000000006 L 3.2389108886718754 2.1190875000000005 L 3.186410888671875 2.1190875000000005 M 3.2389108886718754 1.8760875000000006 L 3.4129108886718753 1.8760875000000006 Q 3.444410888671875 1.8760875000000006 3.467660888671875 1.8588375000000004 Q 3.490910888671875 1.8415875000000004 3.503660888671875 1.8134625000000004 Q 3.5164108886718752 1.7853375000000005 3.5164108886718752 1.7538375000000004 Q 3.5164108886718752 1.7215875000000005 3.501785888671875 1.6942125000000003 Q 3.4871608886718755 1.6668375000000004 3.4627858886718754 1.6499625000000004 Q 3.4384108886718754 1.6330875000000005 3.408410888671875 1.6330875000000005 L 3.2389108886718754 1.6330875000000005 L 3.2389108886718754 1.8760875000000006 M 3.6772972412109377 2.1190875000000005 L 3.6772972412109377 1.5865875000000005 L 3.729797241210938 1.5865875000000005 L 3.729797241210938 2.1190875000000005 L 3.6772972412109377 2.1190875000000005 M 4.2221616210937505 2.0725875000000005 L 4.2221616210937505 2.1190875000000005 L 3.8644116210937502 2.1190875000000005 L 3.8644116210937502 1.5865875000000005 L 4.21541162109375 1.5865875000000005 L 4.21541162109375 1.6330875000000005 L 3.9169116210937505 1.6330875000000005 L 3.9169116210937505 1.8250875000000004 L 4.1771616210937506 1.8250875000000004 L 4.1771616210937506 1.8693375000000005 L 3.9169116210937505 1.8693375000000005 L 3.9169116210937505 2.0725875000000005 L 4.2221616210937505 2.0725875000000005 M 4.322293212890625 2.1190875000000005 L 4.322293212890625 1.5865875000000005 L 4.3747932128906255 1.5865875000000005 L 4.3747932128906255 2.0725875000000005 L 4.682293212890626 2.0725875000000005 L 4.682293212890626 2.1190875000000005 L 4.322293212890625 2.1190875000000005" fill="#4e888f" fill-rule="nonzero"></path></g><g clip-path="url(#SvgjsClipPath1241)"><g clip-path="url(#ac9ac13df-ee94-4edb-8a15-1d4986919a58c60dca05-3019-48d1-9b00-2755fcfccdff)"><path d=" M -1.3883810509226162 0.7435263960640339 L -1.3883810509226162 0.5621548111279646 L -1.5780173431822229 0.48267157116488113 L -1.6084288834118023 0.40906402156462524 L -1.5306244121238126 0.21878204904536702 L -1.6588565116905742 0.09054994947860534 L -1.8491384842098326 0.1684189887925603 L -1.9226814657841234 0.13794288053701578 L -2.002164705747207 -0.0516934117225911 L -2.1836008587092413 -0.0516934117225911 L -2.2630840986723246 0.13794288053701578 L -2.3366270802466156 0.1684189887925603 L -2.5269090527658737 0.09054994947860534 L -2.6552057203586004 0.21878204904536702 L -2.5772721130186804 0.40912858959059045 L -2.60781278930019 0.48267157116488124 L -2.797384513533832 0.5621548111279647 L -2.797384513533832 0.7435263960640339 L -2.6077482212742247 0.8230096360271174 L -2.5773366810446454 0.8966171856273734 L -2.6552057203586004 1.0868345901206664 L -2.5269090527658737 1.2151312577133935 L -2.3366270802466156 1.1372622183994383 L -2.2630840986723246 1.1677383266549828 L -2.1836008587092413 1.3573100508886247 L -2.0021647057472065 1.3573100508886247 L -1.9226814657841231 1.1676737586290178 L -1.8491384842098322 1.1372622183994383 L -1.658856511690574 1.2151312577133935 L -1.5306244121238124 1.0868345901206664 L -1.6084934514377673 0.8965526176014083 L -1.5779527751562576 0.8230096360271174 Z M -2.092882782228224 0.9081748622751329 C -2.2339178293740938 0.9081748622751329 -2.3482493249203404 0.7938433667288867 -2.3482493249203404 0.6528083195830168 C -2.3482493249203404 0.5117732724371468 -2.233917829374094 0.39744177689090066 -2.092882782228224 0.39744177689090054 C -1.951847735082354 0.39744177689090054 -1.8375162395361078 0.5117732724371468 -1.8375162395361078 0.6528083195830167 C -1.8375162395361078 0.7938433667288867 -1.951847735082354 0.9081748622751329 -2.092882782228224 0.9081748622751329" fill="#4e888f" transform="matrix(1,0,0,1,0,0)" fill-rule="nonzero"></path></g><g clip-path="url(#ac9ac13df-ee94-4edb-8a15-1d4986919a58c60dca05-3019-48d1-9b00-2755fcfccdff)"><path d=" M -0.39997370944830113 1.3498847279026338 L -0.39997370944830113 1.201830244364575 L -0.5548078357126993 1.1369393782696127 L -0.579601957683312 1.0768265460960702 L -0.5160670201336175 0.9215404436499162 L -0.6207963582490694 0.8168111055344642 L -0.7761470287211885 0.880410611110124 L -0.8361307248428005 0.8554873530875812 L -0.9010215909377628 0.7007177948491482 L -1.0491406425017868 0.7007177948491482 L -1.1140315085967494 0.8555519211135464 L -1.1740797727443266 0.880410611110124 L -1.3293658751904807 0.8168111055344642 L -1.4340952133059328 0.9215404436499162 L -1.370495707730273 1.0768911141220354 L -1.395418965752816 1.1369393782696127 L -1.5501885239912487 1.201830244364575 L -1.5501885239912487 1.3498847279026338 L -1.3953543977268508 1.4147755939975963 L -1.370560275756238 1.4748238581451736 L -1.4340952133059324 1.6301745286172926 L -1.3293658751904807 1.7348392987067796 L -1.1740152047183614 1.6713043611570848 L -1.1139669405707842 1.6961630511536625 L -1.0491406425017868 1.8509326093920955 L -0.9010215909377628 1.8509326093920955 L -0.8361307248428005 1.6961630511536625 L -0.776082460695223 1.6713043611570848 L -0.6207963582490694 1.7348392987067796 L -0.516067020133617 1.6301745286172926 L -0.579666525709277 1.4748238581451736 L -0.5547432676867339 1.4147755939975963 Z M -0.9750811167197748 1.4843153579620487 C -1.0504305577789501 1.4856297952179056 -1.120624503651058 1.4461796597040493 -1.158677065901785 1.3811314581963656 C -1.1967296281525124 1.3160832566886824 -1.1967171579336968 1.2355630537974096 -1.158644449390041 1.170526641862406 C -1.1205717408463844 1.1054902299274025 -1.050365579002902 1.0660618382741185 -0.9750165486938098 1.0673996143051603 C -0.8613187457324811 1.0694182493819466 -0.7702098162803521 1.1621734869621745 -0.7702274275115744 1.2758892069645158 C -0.7702450387427966 1.3896049269668573 -0.8613826939577425 1.4823319398940473 -0.9750811167197748 1.4843153579620487" fill="#4e888f" transform="matrix(1,0,0,1,0,0)" fill-rule="nonzero"></path></g><g clip-path="url(#ac9ac13df-ee94-4edb-8a15-1d4986919a58c60dca05-3019-48d1-9b00-2755fcfccdff)"><path d=" M -1.4701887398204445 1.838858388536615 L -1.4701887398204445 1.7407795570955722 L -1.572787333079047 1.697777251802791 L -1.5891876116741916 1.6580033478082667 L -1.5470892587449225 1.5550819144198387 L -1.6164998866574445 1.4857358545332817 L -1.7194213200458726 1.5278342074625508 L -1.759195224040397 1.5113047928154757 L -1.8021329613072128 1.4088353356088037 L -1.900276360774221 1.4088353356088037 L -1.9432140980410368 1.511369360841441 L -1.9830525700615262 1.5278342074625508 L -2.0859094354239893 1.4857358545332817 L -2.1553200633365113 1.5550819144198387 L -2.1131571423812767 1.6580033478082667 L -2.129686557028352 1.697777251802791 L -2.2322205822609895 1.7407795570955722 L -2.2322205822609895 1.838858388536615 L -2.129621989002387 1.8818606938293962 L -2.1131571423812767 1.9216345978239204 L -2.1553200633365113 2.0245560312123487 L -2.0859094354239893 2.0939020910989052 L -1.9829880020355612 2.0518037381696366 L -1.9432140980410368 2.068268584790746 L -1.900276360774221 2.1708026100233835 L -1.8021329613072128 2.1708026100233835 L -1.7591306560144317 2.068268584790746 L -1.7193567520199076 2.0518037381696366 L -1.6164998866574445 2.0939020910989052 L -1.5470892587449225 2.0245560312123487 L -1.5892521797001569 1.9216345978239204 L -1.5727227650530817 1.8818606938293962 Z M -1.851204661040717 1.9278976963425387 C -1.9274812642885086 1.9278976963425387 -1.9893156685801445 1.8660632920509026 -1.9893156685801445 1.789786688803111 C -1.9893156685801445 1.7135100855553194 -1.9274812642885086 1.6516756812636835 -1.851204661040717 1.6516756812636835 C -1.7749280577929254 1.6516756812636835 -1.7130936535012893 1.7135100855553194 -1.7130936535012893 1.789786688803111 C -1.7130936535012893 1.8660632920509026 -1.7749280577929254 1.9278976963425387 -1.851204661040717 1.9278976963425387" fill="#4e888f" transform="matrix(1,0,0,1,0,0)" fill-rule="nonzero"></path></g></g></g><defs><clipPath id="SvgjsClipPath1241"><path d=" M -2.797384513533832 -0.051715110023383026 h 2.397384513533832 v 2.2225177200467665 h -2.397384513533832 Z"></path></clipPath><clipPath id="ac9ac13df-ee94-4edb-8a15-1d4986919a58c60dca05-3019-48d1-9b00-2755fcfccdff"><path d=" M -2.797384513533832 2.1708026100233835 L -0.39997370944830113 2.1708026100233835 L -0.39997370944830113 -0.05169341172259131 L -2.797384513533832 -0.05169341172259131 Z"></path></clipPath></defs></svg>