<svg xmlns="http://www.w3.org/2000/svg" version="1.1" xmlns:xlink="http://www.w3.org/1999/xlink" xmlns:svgjs="http://svgjs.dev/svgjs" viewBox="0 0 11.115358605320369 3.1809863371783282"><g transform="matrix(1,0,0,1,3.631295696716393,0.5278369185891643)"><g><path d=" M 1.0335 0.008999999999999897 L 1.0335 1.0739999999999998 L 0.741 1.0739999999999998 L 0.741 0.6569999999999998 L 0.384 0.6569999999999998 L 0.384 1.0739999999999998 L 0.0915 1.0739999999999998 L 0.0915 0.008999999999999897 L 0.384 0.008999999999999897 L 0.384 0.4019999999999998 L 0.741 0.4019999999999998 L 0.741 0.008999999999999897 L 1.0335 0.008999999999999897 M 1.2209999999999999 1.0739999999999998 L 1.2209999999999999 0.008999999999999897 L 1.5135 0.008999999999999897 L 1.5135 1.0739999999999998 L 1.2209999999999999 1.0739999999999998 M 2.34602490234375 0.3569999999999999 Q 2.34602490234375 0.3569999999999999 2.3205249023437498 0.34199999999999986 Q 2.2950249023437497 0.32699999999999985 2.25302490234375 0.3082499999999998 Q 2.21102490234375 0.28949999999999987 2.16152490234375 0.27449999999999986 Q 2.11202490234375 0.25949999999999984 2.06402490234375 0.25949999999999984 Q 2.0265249023437497 0.25949999999999984 2.00252490234375 0.27149999999999985 Q 1.97852490234375 0.28349999999999986 1.97852490234375 0.31199999999999983 Q 1.97852490234375 0.33899999999999986 2.00252490234375 0.3554999999999998 Q 2.0265249023437497 0.3719999999999998 2.07077490234375 0.38549999999999984 Q 2.11502490234375 0.3989999999999998 2.17652490234375 0.41849999999999987 Q 2.27552490234375 0.4484999999999998 2.34752490234375 0.4874999999999998 Q 2.41952490234375 0.5264999999999999 2.4585249023437497 0.5872499999999998 Q 2.49752490234375 0.6479999999999999 2.49752490234375 0.7484999999999998 Q 2.49752490234375 0.8444999999999998 2.46302490234375 0.9097499999999998 Q 2.42852490234375 0.9749999999999999 2.37002490234375 1.0139999999999998 Q 2.31152490234375 1.053 2.23952490234375 1.07025 Q 2.16752490234375 1.0875 2.09252490234375 1.0875 Q 2.0160249023437498 1.0875 1.93277490234375 1.0717499999999998 Q 1.8495249023437499 1.0559999999999998 1.7715249023437498 1.0282499999999999 Q 1.69352490234375 1.0005 1.62902490234375 0.9629999999999999 L 1.7550249023437499 0.7064999999999999 Q 1.7550249023437499 0.7064999999999999 1.7850249023437499 0.7244999999999998 Q 1.81502490234375 0.7424999999999998 1.8645249023437498 0.7649999999999999 Q 1.91402490234375 0.7874999999999999 1.97477490234375 0.8054999999999999 Q 2.03552490234375 0.8234999999999999 2.0970249023437497 0.8234999999999999 Q 2.1450249023437498 0.8234999999999999 2.16377490234375 0.8107499999999999 Q 2.18252490234375 0.7979999999999998 2.18252490234375 0.7769999999999999 Q 2.18252490234375 0.7454999999999998 2.14952490234375 0.7282499999999998 Q 2.11652490234375 0.7109999999999999 2.0632749023437498 0.6952499999999998 Q 2.01002490234375 0.6794999999999998 1.94552490234375 0.6584999999999999 Q 1.8525249023437498 0.6269999999999998 1.79252490234375 0.5872499999999998 Q 1.73252490234375 0.5474999999999999 1.70402490234375 0.4927499999999998 Q 1.67552490234375 0.43799999999999983 1.67552490234375 0.3599999999999999 Q 1.67552490234375 0.24149999999999983 1.7310249023437498 0.1619999999999998 Q 1.78652490234375 0.0824999999999998 1.8772749023437498 0.04124999999999979 Q 1.96802490234375 -2.220446049250313e-16 2.07302490234375 -2.220446049250313e-16 Q 2.15102490234375 -2.220446049250313e-16 2.2237749023437496 0.018749999999999822 Q 2.2965249023437497 0.03749999999999987 2.36027490234375 0.06449999999999978 Q 2.42402490234375 0.0914999999999998 2.47202490234375 0.11549999999999983 L 2.34602490234375 0.3569999999999999 M 3.460531494140625 0.2639999999999998 L 3.154531494140625 0.2639999999999998 L 3.154531494140625 1.0739999999999998 L 2.8620314941406244 1.0739999999999998 L 2.8620314941406244 0.2639999999999998 L 2.5545314941406247 0.2639999999999998 L 2.5545314941406247 0.008999999999999897 L 3.460531494140625 0.008999999999999897 L 3.460531494140625 0.2639999999999998 M 4.035087158203125 1.0829999999999997 Q 3.913587158203125 1.0829999999999997 3.8145871582031248 1.0372499999999998 Q 3.7155871582031246 0.9914999999999998 3.644337158203125 0.9142499999999998 Q 3.573087158203125 0.8369999999999999 3.534837158203125 0.7402499999999999 Q 3.4965871582031247 0.6434999999999998 3.4965871582031247 0.5399999999999998 Q 3.4965871582031247 0.4334999999999999 3.537087158203125 0.3374999999999998 Q 3.5775871582031247 0.24149999999999983 3.6503371582031248 0.16574999999999984 Q 3.723087158203125 0.08999999999999986 3.8228371582031246 0.046499999999999764 Q 3.922587158203125 0.0029999999999998916 4.0410871582031245 0.0029999999999998916 Q 4.162587158203125 0.0029999999999998916 4.261587158203125 0.04874999999999985 Q 4.360587158203125 0.0944999999999998 4.431087158203125 0.17249999999999988 Q 4.501587158203125 0.25049999999999983 4.539837158203125 0.34724999999999984 Q 4.578087158203125 0.44399999999999984 4.578087158203125 0.5459999999999998 Q 4.578087158203125 0.6509999999999998 4.538337158203125 0.7469999999999999 Q 4.498587158203125 0.8429999999999999 4.425837158203125 0.9187499999999998 Q 4.353087158203125 0.9944999999999998 4.2540871582031246 1.0387499999999998 Q 4.155087158203125 1.0829999999999997 4.035087158203125 1.0829999999999997 M 3.793587158203125 0.5429999999999998 Q 3.793587158203125 0.5969999999999998 3.808587158203125 0.6472499999999999 Q 3.8235871582031247 0.6974999999999998 3.853587158203125 0.7372499999999998 Q 3.8835871582031247 0.7769999999999999 3.9293371582031247 0.8002499999999999 Q 3.9750871582031246 0.8234999999999999 4.038087158203124 0.8234999999999999 Q 4.101087158203125 0.8234999999999999 4.147587158203125 0.7994999999999999 Q 4.194087158203125 0.7754999999999999 4.223337158203125 0.7342499999999998 Q 4.2525871582031245 0.6929999999999998 4.266837158203125 0.6427499999999998 Q 4.281087158203125 0.5924999999999998 4.281087158203125 0.5399999999999998 Q 4.281087158203125 0.4859999999999999 4.266087158203125 0.4364999999999998 Q 4.251087158203124 0.3869999999999998 4.221087158203125 0.34724999999999984 Q 4.191087158203125 0.3074999999999998 4.144587158203125 0.2849999999999998 Q 4.098087158203125 0.26249999999999984 4.036587158203125 0.26249999999999984 Q 3.9735871582031246 0.26249999999999984 3.9278371582031246 0.28649999999999987 Q 3.8820871582031247 0.3104999999999998 3.852087158203125 0.35024999999999984 Q 3.8220871582031246 0.3899999999999998 3.807837158203125 0.4402499999999998 Q 3.793587158203125 0.4904999999999998 3.793587158203125 0.5429999999999998 M 4.707109130859375 1.0739999999999998 L 4.707109130859375 0.008999999999999897 L 4.999609130859375 0.008999999999999897 L 4.999609130859375 1.0739999999999998 L 4.707109130859375 1.0739999999999998 M 5.187134033203125 1.0739999999999998 L 5.187134033203125 0.008999999999999897 L 5.676134033203125 0.008999999999999897 Q 5.754134033203125 0.008999999999999897 5.820134033203125 0.04049999999999976 Q 5.886134033203125 0.07199999999999984 5.934134033203125 0.12524999999999986 Q 5.982134033203125 0.17849999999999977 6.008384033203125 0.24449999999999983 Q 6.034634033203125 0.3104999999999998 6.034634033203125 0.3779999999999998 Q 6.034634033203125 0.4394999999999998 6.016634033203125 0.49649999999999983 Q 5.998634033203125 0.5534999999999999 5.964134033203125 0.6007499999999999 Q 5.929634033203125 0.6479999999999999 5.881634033203126 0.6824999999999999 L 6.106634033203125 1.0739999999999998 L 5.7856340332031255 1.0739999999999998 L 5.5981340332031255 0.7469999999999999 L 5.4796340332031255 0.7469999999999999 L 5.4796340332031255 1.0739999999999998 L 5.187134033203125 1.0739999999999998 M 5.4796340332031255 0.4919999999999999 L 5.664134033203125 0.4919999999999999 Q 5.682134033203125 0.4919999999999999 5.698634033203125 0.4784999999999998 Q 5.7151340332031255 0.46499999999999986 5.726384033203125 0.4394999999999998 Q 5.7376340332031255 0.4139999999999998 5.7376340332031255 0.3779999999999998 Q 5.7376340332031255 0.3404999999999998 5.724884033203125 0.31574999999999986 Q 5.712134033203125 0.2909999999999998 5.693384033203126 0.27749999999999986 Q 5.674634033203125 0.2639999999999998 5.656634033203125 0.2639999999999998 L 5.4796340332031255 0.2639999999999998 L 5.4796340332031255 0.4919999999999999 M 6.963115722656251 0.8189999999999998 L 6.963115722656251 1.0739999999999998 L 6.20411572265625 1.0739999999999998 L 6.20411572265625 0.008999999999999897 L 6.94961572265625 0.008999999999999897 L 6.94961572265625 0.2639999999999998 L 6.496615722656251 0.2639999999999998 L 6.496615722656251 0.4139999999999998 L 6.88361572265625 0.4139999999999998 L 6.88361572265625 0.6509999999999998 L 6.496615722656251 0.6509999999999998 L 6.496615722656251 0.8189999999999998 L 6.963115722656251 0.8189999999999998" fill="#404040" fill-rule="nonzero"></path></g><g><path d=" M 0.06675 2.1253124999999997 L 0.06675 1.5928124999999997 L 0.2475 1.5928124999999997 Q 0.33225 1.5928124999999997 0.388875 1.6284374999999998 Q 0.4455 1.6640624999999998 0.47400000000000003 1.7244374999999996 Q 0.5025000000000001 1.7848124999999997 0.5025000000000001 1.8583124999999998 Q 0.5025000000000001 1.9393124999999998 0.471375 1.9993124999999998 Q 0.44025000000000003 2.0593125 0.382875 2.0923125 Q 0.3255 2.1253124999999997 0.2475 2.1253124999999997 L 0.06675 2.1253124999999997 M 0.45 1.8583124999999998 Q 0.45 1.7945624999999996 0.426375 1.7450624999999997 Q 0.40275 1.6955624999999996 0.35775 1.6674374999999997 Q 0.31275000000000003 1.6393124999999997 0.2475 1.6393124999999997 L 0.11925000000000001 1.6393124999999997 L 0.11925000000000001 2.0788124999999997 L 0.2475 2.0788124999999997 Q 0.3135 2.0788124999999997 0.3585 2.0495624999999995 Q 0.4035 2.0203124999999997 0.42675 1.9704374999999996 Q 0.45 1.9205624999999997 0.45 1.8583124999999998 M 0.8208951416015624 2.1290625 Q 0.7578951416015625 2.1290625 0.7143951416015624 2.1065625 Q 0.6708951416015625 2.0840625 0.6453951416015624 2.0461875 Q 0.6198951416015624 2.0083124999999997 0.6082701416015625 1.9603124999999997 Q 0.5966451416015625 1.9123124999999996 0.5966451416015625 1.8613124999999997 L 0.5966451416015625 1.5928124999999997 L 0.6483951416015624 1.5928124999999997 L 0.6483951416015624 1.8613124999999997 Q 0.6483951416015624 1.9025624999999997 0.6570201416015624 1.9423124999999997 Q 0.6656451416015624 1.9820624999999996 0.6851451416015624 2.0135625 Q 0.7046451416015624 2.0450625 0.7376451416015625 2.0634374999999996 Q 0.7706451416015625 2.0818125 0.8201451416015624 2.0818125 Q 0.8711451416015624 2.0818125 0.9045201416015625 2.0626874999999996 Q 0.9378951416015624 2.0435624999999997 0.9570201416015625 2.0120625 Q 0.9761451416015625 1.9805624999999998 0.9843951416015624 1.9411874999999996 Q 0.9926451416015625 1.9018124999999997 0.9926451416015625 1.8613124999999997 L 0.9926451416015625 1.5928124999999997 L 1.0451451416015625 1.5928124999999997 L 1.0451451416015625 1.8613124999999997 Q 1.0451451416015625 1.9145624999999997 1.0331451416015625 1.9633124999999998 Q 1.0211451416015624 2.0120625 0.9945201416015624 2.0488125 Q 0.9678951416015624 2.0855624999999995 0.9251451416015624 2.1073125 Q 0.8823951416015625 2.1290625 0.8208951416015624 2.1290625 M 1.3024193115234375 2.0585625 Q 1.3181693115234374 2.0698125 1.3440443115234375 2.0780624999999997 Q 1.3699193115234374 2.0863124999999996 1.4036693115234373 2.0863124999999996 Q 1.4426693115234375 2.0863124999999996 1.4666693115234375 2.0731874999999995 Q 1.4906693115234373 2.0600625 1.5034193115234373 2.0334375 Q 1.5161693115234374 2.0068124999999997 1.5206693115234373 1.9670624999999997 Q 1.5251693115234375 1.9273124999999998 1.5251693115234375 1.8740624999999997 L 1.5251693115234375 1.5928124999999997 L 1.5776693115234375 1.5928124999999997 L 1.5776693115234375 1.8635624999999998 Q 1.5776693115234375 1.9235624999999996 1.5716693115234375 1.9730624999999997 Q 1.5656693115234375 2.0225625 1.5484193115234375 2.0585625 Q 1.5311693115234375 2.0945625 1.4966693115234375 2.1140624999999997 Q 1.4621693115234373 2.1335624999999996 1.4051693115234374 2.1335624999999996 Q 1.3684193115234373 2.1335624999999996 1.3399193115234374 2.1253124999999997 Q 1.3114193115234374 2.1170625 1.2874193115234374 2.1005624999999997 L 1.3024193115234375 2.0585625 M 2.063307861328125 2.0788124999999997 L 2.063307861328125 2.1253124999999997 L 1.705557861328125 2.1253124999999997 L 1.705557861328125 1.5928124999999997 L 2.056557861328125 1.5928124999999997 L 2.056557861328125 1.6393124999999997 L 1.758057861328125 1.6393124999999997 L 1.758057861328125 1.8313124999999997 L 2.018307861328125 1.8313124999999997 L 2.018307861328125 1.8755624999999998 L 1.758057861328125 1.8755624999999998 L 1.758057861328125 2.0788124999999997 L 2.063307861328125 2.0788124999999997 M 2.380189453125 2.1290625 Q 2.3171894531249997 2.1290625 2.273689453125 2.1065625 Q 2.230189453125 2.0840625 2.204689453125 2.0461875 Q 2.179189453125 2.0083124999999997 2.167564453125 1.9603124999999997 Q 2.155939453125 1.9123124999999996 2.155939453125 1.8613124999999997 L 2.155939453125 1.5928124999999997 L 2.207689453125 1.5928124999999997 L 2.207689453125 1.8613124999999997 Q 2.207689453125 1.9025624999999997 2.216314453125 1.9423124999999997 Q 2.2249394531249997 1.9820624999999996 2.2444394531249996 2.0135625 Q 2.263939453125 2.0450625 2.296939453125 2.0634374999999996 Q 2.3299394531249997 2.0818125 2.379439453125 2.0818125 Q 2.4304394531249995 2.0818125 2.463814453125 2.0626874999999996 Q 2.497189453125 2.0435624999999997 2.5163144531249997 2.0120625 Q 2.535439453125 1.9805624999999998 2.543689453125 1.9411874999999996 Q 2.5519394531249997 1.9018124999999997 2.5519394531249997 1.8613124999999997 L 2.5519394531249997 1.5928124999999997 L 2.604439453125 1.5928124999999997 L 2.604439453125 1.8613124999999997 Q 2.604439453125 1.9145624999999997 2.592439453125 1.9633124999999998 Q 2.580439453125 2.0120625 2.5538144531249998 2.0488125 Q 2.5271894531249997 2.0855624999999995 2.484439453125 2.1073125 Q 2.441689453125 2.1290625 2.380189453125 2.1290625 M 2.8954493408203126 1.5928124999999997 L 3.0859493408203122 2.0600625 L 3.2756993408203123 1.5928124999999997 L 3.330449340820312 1.5928124999999997 L 3.1099493408203123 2.1253124999999997 L 3.0619493408203122 2.1253124999999997 L 2.8406993408203123 1.5928124999999997 L 2.8954493408203126 1.5928124999999997 M 3.4080864257812498 2.1253124999999997 L 3.4080864257812498 1.5928124999999997 L 3.46058642578125 1.5928124999999997 L 3.46058642578125 2.1253124999999997 L 3.4080864257812498 2.1253124999999997 M 3.5952008056640623 2.1253124999999997 L 3.5952008056640623 1.5928124999999997 L 3.7759508056640625 1.5928124999999997 Q 3.8607008056640626 1.5928124999999997 3.9173258056640625 1.6284374999999998 Q 3.9739508056640624 1.6640624999999998 4.002450805664062 1.7244374999999996 Q 4.030950805664062 1.7848124999999997 4.030950805664062 1.8583124999999998 Q 4.030950805664062 1.9393124999999998 3.9998258056640625 1.9993124999999998 Q 3.9687008056640627 2.0593125 3.9113258056640623 2.0923125 Q 3.8539508056640623 2.1253124999999997 3.7759508056640625 2.1253124999999997 L 3.5952008056640623 2.1253124999999997 M 3.9784508056640626 1.8583124999999998 Q 3.9784508056640626 1.7945624999999996 3.9548258056640626 1.7450624999999997 Q 3.9312008056640626 1.6955624999999996 3.8862008056640622 1.6674374999999997 Q 3.8412008056640623 1.6393124999999997 3.7759508056640625 1.6393124999999997 L 3.6477008056640625 1.6393124999999997 L 3.6477008056640625 2.0788124999999997 L 3.7759508056640625 2.0788124999999997 Q 3.8419508056640623 2.0788124999999997 3.8869508056640623 2.0495624999999995 Q 3.9319508056640626 2.0203124999999997 3.9552008056640626 1.9704374999999996 Q 3.9784508056640626 1.9205624999999997 3.9784508056640626 1.8583124999999998 M 4.490345947265625 2.0788124999999997 L 4.490345947265625 2.1253124999999997 L 4.132595947265624 2.1253124999999997 L 4.132595947265624 1.5928124999999997 L 4.483595947265624 1.5928124999999997 L 4.483595947265624 1.6393124999999997 L 4.185095947265625 1.6393124999999997 L 4.185095947265625 1.8313124999999997 L 4.445345947265625 1.8313124999999997 L 4.445345947265625 1.8755624999999998 L 4.185095947265625 1.8755624999999998 L 4.185095947265625 2.0788124999999997 L 4.490345947265625 2.0788124999999997 M 4.335845947265625 1.5200624999999997 L 4.302095947265625 1.5073124999999998 L 4.3463459472656245 1.4375624999999999 L 4.400345947265625 1.4375624999999999 L 4.335845947265625 1.5200624999999997 M 4.794494750976562 2.1290625 Q 4.738244750976562 2.1290625 4.692494750976562 2.1065625 Q 4.646744750976562 2.0840625 4.613744750976562 2.0454375 Q 4.580744750976562 2.0068124999999997 4.562744750976562 1.9584374999999996 Q 4.544744750976562 1.9100624999999998 4.544744750976562 1.8590624999999998 Q 4.544744750976562 1.8058124999999996 4.563494750976562 1.7574374999999998 Q 4.582244750976562 1.7090624999999997 4.616369750976562 1.6711874999999998 Q 4.650494750976562 1.6333124999999997 4.696244750976562 1.6111874999999998 Q 4.741994750976562 1.5890624999999998 4.795244750976562 1.5890624999999998 Q 4.8514947509765625 1.5890624999999998 4.897244750976562 1.6123124999999998 Q 4.942994750976562 1.6355624999999998 4.975619750976562 1.6745624999999997 Q 5.008244750976562 1.7135624999999997 5.026244750976562 1.7615624999999997 Q 5.044244750976562 1.8095624999999997 5.044244750976562 1.8598124999999996 Q 5.044244750976562 1.9130624999999997 5.025494750976562 1.9614374999999997 Q 5.006744750976562 2.0098125 4.972994750976562 2.0476875 Q 4.939244750976562 2.0855624999999995 4.893494750976562 2.1073125 Q 4.847744750976562 2.1290625 4.794494750976562 2.1290625 M 4.597244750976562 1.8590624999999998 Q 4.597244750976562 1.9025624999999997 4.611494750976562 1.9426874999999997 Q 4.625744750976562 1.9828124999999996 4.651994750976562 2.0139375 Q 4.678244750976562 2.0450625 4.714619750976562 2.0634374999999996 Q 4.750994750976562 2.0818125 4.794494750976562 2.0818125 Q 4.840244750976562 2.0818125 4.8766197509765625 2.0626874999999996 Q 4.912994750976562 2.0435624999999997 4.938869750976562 2.0116875 Q 4.964744750976562 1.9798124999999998 4.978244750976562 1.9400624999999998 Q 4.9917447509765625 1.9003124999999996 4.9917447509765625 1.8590624999999998 Q 4.9917447509765625 1.8155624999999997 4.977494750976562 1.7758124999999998 Q 4.963244750976562 1.7360624999999996 4.936619750976562 1.7045624999999998 Q 4.909994750976562 1.6730624999999997 4.873994750976562 1.6550624999999997 Q 4.837994750976562 1.6370624999999996 4.794494750976562 1.6370624999999996 Q 4.749494750976562 1.6370624999999996 4.713119750976562 1.6558124999999997 Q 4.676744750976562 1.6745624999999997 4.650869750976562 1.7064374999999998 Q 4.624994750976562 1.7383124999999997 4.611119750976562 1.7780624999999997 Q 4.597244750976562 1.8178124999999996 4.597244750976562 1.8590624999999998" fill="#4e888f" fill-rule="nonzero"></path></g><g clip-path="url(#SvgjsClipPath1092)"><g clip-path="url(#SvgjsClipPath1090fd83f82f-e33f-4f7d-b500-d6acf05afd5a)"><path d=" M -0.4162219559637186 0.4228549630262264 C -0.434892509054035 0.4047965592175595 -0.47774295876951633 0.3720465726492988 -0.49886210898643224 0.36225218414290306 C -0.5123293931827262 0.3561306913264057 -0.5248784534565458 0.36470078126950195 -0.5236541548932463 0.37908628938827066 C -0.5132476171052014 0.774840799974822 -0.5392639615753145 1.1816139976310687 -0.6013971136627623 1.5920600909772138 C -0.602927486866887 1.6055273751735077 -0.6136400992957571 1.6134853158349545 -0.6258830849287516 1.6147096143982536 C -0.8128946904727448 1.63399231677022 -1.0981562557215194 1.5534946862332806 -1.57563269540831 1.7790716965212068 C -1.5881817556821296 1.7851931893377042 -1.5814481135839824 1.808454862040394 -1.5682869040285135 1.8044758917096706 C -1.4302472410164988 1.7604011434308897 -1.3020019665108802 1.731936201834177 -1.1866118269199055 1.714183872666335 C -0.9983759228126132 1.8185553251876143 -0.8713549468702935 1.9605739585303517 -0.8052428244521228 2.1405458473353733 C -0.7868783460026303 2.190742088430651 -0.7155629546904372 2.188905640585702 -0.6996470733675437 2.1377911755679495 C -0.6610816686236105 2.013524871393054 -0.6295559806186497 1.8393684007637057 -0.6874040877345498 1.6933707970902447 C -0.638126070561746 1.6970436927801429 -0.6029274868668866 1.7016348123925162 -0.583338709854095 1.7034712602374653 C -0.5545676936165576 1.7065320066457135 -0.5475279768775851 1.6768427664857015 -0.5453854543918117 1.6642937062118823 C -0.4587663310383747 1.24833826933089 -0.40918223922474617 0.8391164745480443 -0.3999999999999999 0.445504486447267 C -0.4009182239224751 0.4360161725816956 -0.4091822392247466 0.4295886051243736 -0.4162219559637186 0.4228549630262264 Z" fill="#404040" transform="matrix(1,0,0,1,0,0)" fill-rule="nonzero"></path></g><g clip-path="url(#SvgjsClipPath1090fd83f82f-e33f-4f7d-b500-d6acf05afd5a)"><path d=" M -0.8046306751704733 1.3340391687618518 C -0.76667741970819 0.9303267175138541 -0.7568830312017942 0.5296750126741047 -0.7767778828554106 0.13881769634075122 C -0.7792264799820097 0.11708639684218569 -0.7816750771086083 0.0953550973436203 -0.7841236742352073 0.07362379784505477 C -0.787184420643456 0.046383154811641764 -0.8089157201420214 0.022509332827302234 -0.8334016914080107 0.014245317525030887 C -1.1143782116852377 -0.08614716466552512 -1.3335276545158417 -0.06013082019541158 -1.4978897366387947 0.012102795039256875 C -1.661333594839273 0.08433641027392519 -1.7699900923321004 0.20278729627314818 -1.7999854071329373 0.2872638971408111 C -1.8036583028228357 0.2976704349288565 -1.8106980195618076 0.30685267415360246 -1.811922318125107 0.3187895851457722 C -1.8486512750240909 0.7708618296440989 -1.887216679768024 1.2269130444731489 -1.9159876960055613 1.6753123932815772 C -1.9190484424138101 1.7267329329401544 -1.8685461266777073 1.7616254419941895 -1.8370204386727462 1.7300997539892284 C -1.51962103613736 1.4182096949886902 -1.0066399381148852 1.3937237237227007 -0.853908692343277 1.3891326041103278 C -0.8278923478731635 1.388520454828678 -0.8058549737337732 1.3640344835626887 -0.8046306751704733 1.3340391687618518 Z" fill="#bab9b4" transform="matrix(1,0,0,1,0,0)" fill-rule="nonzero"></path></g><g clip-path="url(#SvgjsClipPath1090fd83f82f-e33f-4f7d-b500-d6acf05afd5a)"><path d=" M -0.6754671767423801 1.5415577752411107 C -0.6638363403910352 1.5403334766778114 -0.6531237279621647 1.5320694613755401 -0.6518994293988651 1.5189082518200707 C -0.5922148744380165 1.0870369336161851 -0.5698714256578015 0.659144585743023 -0.5870116055439936 0.2447195220661546 C -0.5879298294664679 0.23308868571480973 -0.5989485165361632 0.22727326753913735 -0.608130755760909 0.22023355080016532 C -0.6228223385205025 0.20890878908964539 -0.6665910121584586 0.18411674318283122 -0.6852615652487755 0.1786073996479836 C -0.6978106255225951 0.17493450395808519 -0.7076050140289905 0.18350459390118148 -0.7060746408248662 0.19727795273830045 C -0.6825068934813516 0.6009904039862985 -0.6923012819877474 1.0151093930223418 -0.7348456570624036 1.4319830538258091 C -0.7354578063440531 1.4448381887404538 -0.7452521948504489 1.455244726528499 -0.756576956560969 1.455244726528499 C -0.8116703919094452 1.4546325772468491 -0.9931726539185903 1.459835846140872 -1.1961001407854766 1.4996255494481046 C -1.3987215530115376 1.5400274020369866 -1.6230742647361642 1.6153217636799035 -1.7571349574174555 1.7680530094515117 C -1.764480748797252 1.7763170247537836 -1.755910658854156 1.7922329060766764 -1.7473405689110595 1.7858053386193542 C -1.532170096411179 1.6290951225170225 -1.2903711301595349 1.5718591646827729 -1.0914226136233718 1.5519643130291567 C -0.8918619478055603 1.531763386734715 -0.7351517317032288 1.5495157159025572 -0.6754671767423801 1.5415577752411107 Z" fill="#4e888f" transform="matrix(1,0,0,1,0,0)" fill-rule="nonzero"></path></g><g clip-path="url(#SvgjsClipPath1090fd83f82f-e33f-4f7d-b500-d6acf05afd5a)"><path d=" M -1.8924199486620465 0.25114708952347675 C -2.0928988384023337 0.021285034264002398 -2.294295952065095 -0.0273808336271512 -2.4687584973352688 -0.01085280302260836 C -2.641690669401318 0.005981302222759277 -2.787382198433954 0.08800930596382323 -2.8436999323457295 0.12228966573620814 C -2.8596158136686225 0.13208405424260378 -2.8718587993016174 0.14861208484714672 -2.87767421747729 0.16758871257828825 C -2.997961551321462 0.5553852825033933 -3.09345683925882 0.9324692399996279 -3.154365692782968 1.2869036740748225 C -3.162323633444415 1.3322027209169023 -3.1194731837289336 1.379032140963107 -3.075398435450153 1.3759713945548584 C -2.819520035720565 1.3557704682604172 -2.605573861783984 1.4013755897433222 -2.439069257175257 1.4736092049779907 C -2.2722585779257054 1.5455367455718338 -2.152583393363183 1.6437867052766162 -2.0800437034876893 1.716020320511284 C -2.0411722241029313 1.7548917998960425 -1.9879152365994048 1.7316301271933527 -1.9842423409095065 1.6753123932815772 C -1.955777399312794 1.226300895191499 -1.914457322801437 0.7684132325174999 -1.8731372462900802 0.3141984655333993 C -1.8709947238043059 0.2915489421123591 -1.878034440543278 0.2676751201280196 -1.8924199486620465 0.25114708952347675 Z" fill="#bab9b4" transform="matrix(1,0,0,1,0,0)" fill-rule="nonzero"></path></g><g clip-path="url(#SvgjsClipPath1090fd83f82f-e33f-4f7d-b500-d6acf05afd5a)"><path d=" M -2.1828847828048445 1.6909221999636455 C -2.3282702371966555 1.5614526268947273 -2.647506087576991 1.4081092318414694 -3.01295920872188 1.4374923973606564 C -3.0212232240241517 1.4381045466423064 -3.0282629407631236 1.4420835169730297 -3.029793313967248 1.450347532275301 C -3.034384433579621 1.4806489217169627 -3.038669478551169 1.5106442365177999 -3.0426484488818923 1.5403334766778114 C -3.045403120649316 1.555025059437405 -3.0313236871713722 1.5724713139644222 -3.0169381790526035 1.5715530900419477 C -2.8657373064851197 1.5657376718662752 -2.5192608130713716 1.5375788049103878 -2.1890062756213418 1.7071441559273635 C -2.179211887114946 1.7126534994622107 -2.1743146928617483 1.6982679913434422 -2.1828847828048445 1.6909221999636455 Z" fill="#4e888f" transform="matrix(1,0,0,1,0,0)" fill-rule="nonzero"></path></g><g clip-path="url(#SvgjsClipPath1090fd83f82f-e33f-4f7d-b500-d6acf05afd5a)"><path d=" M -2.290316981734372 1.7138777980255104 C -2.5376252915208637 1.5911418670547388 -2.8834896356529622 1.606139524455157 -2.965211564753201 1.6321558689252709 C -2.970414833647224 1.63399231677022 -2.974699878618772 1.6370530631784688 -2.974699878618772 1.6431745559949658 C -2.975005953259597 1.6792913636123001 -2.9753120279004217 1.7154081712296343 -2.975005953259597 1.7512189042061432 C -2.975005953259597 1.7625436659166636 -2.962762967626602 1.7735623529863584 -2.9532746537610315 1.7708076812189348 C -2.709639239664438 1.7040834095191142 -2.4378449586119575 1.72520255973603 -2.2912352056568466 1.7383637692914993 C -2.278992220023852 1.7398941424956236 -2.2783800707422026 1.7199992908420074 -2.290316981734372 1.7138777980255104 Z" fill="#404040" transform="matrix(1,0,0,1,0,0)" fill-rule="nonzero"></path></g></g></g><defs><clipPath id="SvgjsClipPath1092"><path d=" M -3.1553258056905418 -0.05186702756331263 h 2.755325805690542 v 2.229046555126625 h -2.755325805690542 Z"></path></clipPath><clipPath id="SvgjsClipPath1090fd83f82f-e33f-4f7d-b500-d6acf05afd5a"><path d=" M -3.1553258056905418 -0.05186702756331263 L -0.3999999999999999 -0.05186702756331263 L -0.3999999999999999 2.1771795275633123 L -3.1553258056905418 2.1771795275633123 Z"></path></clipPath></defs></svg>