<svg xmlns="http://www.w3.org/2000/svg" version="1.1" xmlns:xlink="http://www.w3.org/1999/xlink" xmlns:svgjs="http://svgjs.dev/svgjs" viewBox="0 0 11.443396566346992 2.9883841151751174"><g transform="matrix(1,0,0,1,2.923230858969703,0.5130420575875589)"><rect width="11.443396566346992" height="11.443396566346992" x="-2.9232308589697027" y="-4.740548283173497" fill="#ffffff"></rect><g><path d=" M 0.033 0.5324999999999999 Q 0.033 0.43499999999999983 0.06975 0.34124999999999983 Q 0.1065 0.24749999999999983 0.177 0.17099999999999982 Q 0.2475 0.0944999999999998 0.34875 0.04874999999999985 Q 0.45 0.0029999999999998916 0.5775 0.0029999999999998916 Q 0.7305 0.0029999999999998916 0.8445 0.06674999999999986 Q 0.9585 0.13049999999999984 1.014 0.23549999999999982 L 0.7905 0.39449999999999985 Q 0.771 0.34199999999999986 0.7342500000000001 0.3134999999999998 Q 0.6975 0.2849999999999998 0.65475 0.2737499999999998 Q 0.612 0.26249999999999984 0.5715 0.26249999999999984 Q 0.5085000000000001 0.26249999999999984 0.46275 0.2872499999999998 Q 0.417 0.31199999999999983 0.38775 0.3524999999999998 Q 0.3585 0.3929999999999998 0.34425 0.4424999999999998 Q 0.33 0.4919999999999999 0.33 0.5414999999999999 Q 0.33 0.5969999999999998 0.34650000000000003 0.6479999999999999 Q 0.363 0.6989999999999998 0.3945 0.7387499999999998 Q 0.426 0.7784999999999999 0.47175 0.8009999999999998 Q 0.5175 0.8234999999999999 0.5745 0.8234999999999999 Q 0.615 0.8234999999999999 0.657 0.8107499999999999 Q 0.6990000000000001 0.7979999999999998 0.7335 0.7694999999999999 Q 0.768 0.7409999999999999 0.786 0.6929999999999998 L 1.0245 0.8354999999999998 Q 0.993 0.9134999999999999 0.9195 0.9689999999999999 Q 0.846 1.0244999999999997 0.753 1.0537499999999997 Q 0.66 1.0829999999999997 0.5685 1.0829999999999997 Q 0.45 1.0829999999999997 0.35175 1.03575 Q 0.2535 0.9884999999999998 0.18225 0.9097499999999998 Q 0.111 0.8309999999999998 0.07200000000000001 0.7327499999999998 Q 0.033 0.6344999999999998 0.033 0.5324999999999999 M 1.1324685058593749 1.0739999999999998 L 1.1324685058593749 0.008999999999999897 L 1.621468505859375 0.008999999999999897 Q 1.6994685058593748 0.008999999999999897 1.765468505859375 0.04049999999999976 Q 1.831468505859375 0.07199999999999984 1.879468505859375 0.12524999999999986 Q 1.927468505859375 0.17849999999999977 1.9537185058593751 0.24449999999999983 Q 1.979968505859375 0.3104999999999998 1.979968505859375 0.3779999999999998 Q 1.979968505859375 0.4394999999999998 1.961968505859375 0.49649999999999983 Q 1.943968505859375 0.5534999999999999 1.909468505859375 0.6007499999999999 Q 1.8749685058593748 0.6479999999999999 1.826968505859375 0.6824999999999999 L 2.0519685058593753 1.0739999999999998 L 1.7309685058593751 1.0739999999999998 L 1.5434685058593751 0.7469999999999999 L 1.424968505859375 0.7469999999999999 L 1.424968505859375 1.0739999999999998 L 1.1324685058593749 1.0739999999999998 M 1.424968505859375 0.4919999999999999 L 1.609468505859375 0.4919999999999999 Q 1.627468505859375 0.4919999999999999 1.643968505859375 0.4784999999999998 Q 1.660468505859375 0.46499999999999986 1.671718505859375 0.4394999999999998 Q 1.682968505859375 0.4139999999999998 1.682968505859375 0.3779999999999998 Q 1.682968505859375 0.3404999999999998 1.670218505859375 0.31574999999999986 Q 1.657468505859375 0.2909999999999998 1.638718505859375 0.27749999999999986 Q 1.619968505859375 0.2639999999999998 1.6019685058593751 0.2639999999999998 L 1.424968505859375 0.2639999999999998 L 1.424968505859375 0.4919999999999999 M 2.1494501953125 1.0739999999999998 L 2.1494501953125 0.008999999999999897 L 2.4419501953125 0.008999999999999897 L 2.4419501953125 1.0739999999999998 L 2.1494501953125 1.0739999999999998 M 3.45897509765625 0.2639999999999998 L 3.15297509765625 0.2639999999999998 L 3.15297509765625 1.0739999999999998 L 2.8604750976562503 1.0739999999999998 L 2.8604750976562503 0.2639999999999998 L 2.55297509765625 0.2639999999999998 L 2.55297509765625 0.008999999999999897 L 3.45897509765625 0.008999999999999897 L 3.45897509765625 0.2639999999999998 M 3.5700102539062497 1.0739999999999998 L 3.5700102539062497 0.008999999999999897 L 3.8625102539062497 0.008999999999999897 L 3.8625102539062497 1.0739999999999998 L 3.5700102539062497 1.0739999999999998 M 4.53003515625 1.0815 Q 4.40853515625 1.0815 4.30953515625 1.0364999999999998 Q 4.21053515625 0.9914999999999998 4.13928515625 0.9142499999999998 Q 4.06803515625 0.8369999999999999 4.02978515625 0.7402499999999999 Q 3.99153515625 0.6434999999999998 3.99153515625 0.5399999999999998 Q 3.99153515625 0.4334999999999999 4.03203515625 0.3367499999999999 Q 4.07253515625 0.23999999999999988 4.14528515625 0.1649999999999998 Q 4.21803515625 0.08999999999999986 4.31778515625 0.045749999999999735 Q 4.41753515625 0.0014999999999998348 4.53603515625 0.0014999999999998348 Q 4.65753515625 0.0014999999999998348 4.75653515625 0.04799999999999982 Q 4.85553515625 0.0944999999999998 4.92603515625 0.17249999999999988 Q 4.99653515625 0.25049999999999983 5.03478515625 0.34724999999999984 Q 5.0730351562500005 0.44399999999999984 5.0730351562500005 0.5459999999999998 Q 5.0730351562500005 0.6509999999999998 5.03328515625 0.7469999999999999 Q 4.99353515625 0.8429999999999999 4.92078515625 0.9187499999999998 Q 4.84803515625 0.9944999999999998 4.74903515625 1.0379999999999998 Q 4.65003515625 1.0815 4.53003515625 1.0815 M 4.5330351562499995 0.8219999999999998 Q 4.59603515625 0.8219999999999998 4.64253515625 0.7979999999999998 Q 4.68903515625 0.7739999999999998 4.71828515625 0.7334999999999998 Q 4.74753515625 0.6929999999999998 4.76178515625 0.6427499999999998 Q 4.77603515625 0.5924999999999998 4.77603515625 0.5399999999999998 Q 4.77603515625 0.4859999999999999 4.76103515625 0.43574999999999986 Q 4.74603515625 0.38549999999999984 4.71603515625 0.3464999999999998 Q 4.68603515625 0.3074999999999998 4.63953515625 0.2842499999999998 Q 4.59303515625 0.2609999999999998 4.53153515625 0.2609999999999998 Q 4.46853515625 0.2609999999999998 4.42278515625 0.2849999999999998 Q 4.37703515625 0.30899999999999983 4.34703515625 0.3494999999999998 Q 4.31703515625 0.3899999999999998 4.30278515625 0.4402499999999998 Q 4.28853515625 0.4904999999999998 4.28853515625 0.5429999999999998 Q 4.28853515625 0.5969999999999998 4.30353515625 0.6464999999999999 Q 4.31853515625 0.6959999999999998 4.34853515625 0.7357499999999999 Q 4.37853515625 0.7754999999999999 4.42428515625 0.7987499999999998 Q 4.47003515625 0.8219999999999998 4.5330351562499995 0.8219999999999998 M 4.41303515625 0.6239999999999999 L 4.68603515625 0.6239999999999999 L 5.10003515625 1.0739999999999998 L 4.82703515625 1.0739999999999998 L 4.41303515625 0.6239999999999999 M 5.66705712890625 1.0829999999999997 Q 5.53955712890625 1.0829999999999997 5.4480571289062505 1.041 Q 5.35655712890625 0.9989999999999999 5.29880712890625 0.9254999999999999 Q 5.24105712890625 0.8519999999999999 5.2140571289062505 0.7567499999999998 Q 5.18705712890625 0.6614999999999998 5.18705712890625 0.5564999999999999 L 5.18705712890625 0.008999999999999897 L 5.47955712890625 0.008999999999999897 L 5.47955712890625 0.5564999999999999 Q 5.47955712890625 0.6089999999999998 5.49005712890625 0.6569999999999998 Q 5.50055712890625 0.7049999999999998 5.52305712890625 0.7424999999999998 Q 5.54555712890625 0.7799999999999998 5.58080712890625 0.8017499999999999 Q 5.616057128906251 0.8234999999999999 5.66705712890625 0.8234999999999999 Q 5.71955712890625 0.8234999999999999 5.755557128906251 0.8017499999999999 Q 5.79155712890625 0.7799999999999998 5.81330712890625 0.7417499999999999 Q 5.83505712890625 0.7034999999999998 5.8455571289062505 0.6554999999999999 Q 5.85605712890625 0.6074999999999998 5.85605712890625 0.5564999999999999 L 5.85605712890625 0.008999999999999897 L 6.14855712890625 0.008999999999999897 L 6.14855712890625 0.5564999999999999 Q 6.14855712890625 0.6674999999999998 6.11930712890625 0.7634999999999998 Q 6.09005712890625 0.8594999999999998 6.03155712890625 0.9314999999999998 Q 5.97305712890625 1.0034999999999998 5.88230712890625 1.0432499999999998 Q 5.79155712890625 1.0829999999999997 5.66705712890625 1.0829999999999997 M 7.080028564453126 0.8189999999999998 L 7.080028564453126 1.0739999999999998 L 6.321028564453125 1.0739999999999998 L 6.321028564453125 0.008999999999999897 L 7.066528564453125 0.008999999999999897 L 7.066528564453125 0.2639999999999998 L 6.613528564453126 0.2639999999999998 L 6.613528564453126 0.4139999999999998 L 7.000528564453125 0.4139999999999998 L 7.000528564453125 0.6509999999999998 L 6.613528564453126 0.6509999999999998 L 6.613528564453126 0.8189999999999998 L 7.080028564453126 0.8189999999999998 M 7.866005859375001 0.3569999999999999 Q 7.866005859375001 0.3569999999999999 7.840505859375001 0.34199999999999986 Q 7.815005859375001 0.32699999999999985 7.773005859375001 0.3082499999999998 Q 7.731005859375 0.28949999999999987 7.681505859375001 0.27449999999999986 Q 7.632005859375001 0.25949999999999984 7.584005859375001 0.25949999999999984 Q 7.546505859375 0.25949999999999984 7.522505859375 0.27149999999999985 Q 7.498505859375 0.28349999999999986 7.498505859375 0.31199999999999983 Q 7.498505859375 0.33899999999999986 7.522505859375 0.3554999999999998 Q 7.546505859375 0.3719999999999998 7.590755859375 0.38549999999999984 Q 7.635005859375001 0.3989999999999998 7.696505859375001 0.41849999999999987 Q 7.795505859375001 0.4484999999999998 7.867505859375001 0.4874999999999998 Q 7.939505859375 0.5264999999999999 7.978505859375001 0.5872499999999998 Q 8.017505859375001 0.6479999999999999 8.017505859375001 0.7484999999999998 Q 8.017505859375001 0.8444999999999998 7.983005859375001 0.9097499999999998 Q 7.948505859375 0.9749999999999999 7.890005859375001 1.0139999999999998 Q 7.831505859375 1.053 7.759505859375 1.07025 Q 7.687505859375 1.0875 7.612505859375 1.0875 Q 7.536005859375001 1.0875 7.452755859375 1.0717499999999998 Q 7.369505859375001 1.0559999999999998 7.291505859375 1.0282499999999999 Q 7.213505859375 1.0005 7.149005859375 0.9629999999999999 L 7.275005859375001 0.7064999999999999 Q 7.275005859375001 0.7064999999999999 7.305005859375001 0.7244999999999998 Q 7.335005859375 0.7424999999999998 7.384505859375 0.7649999999999999 Q 7.4340058593750005 0.7874999999999999 7.494755859375 0.8054999999999999 Q 7.555505859375001 0.8234999999999999 7.617005859375 0.8234999999999999 Q 7.665005859375 0.8234999999999999 7.683755859375 0.8107499999999999 Q 7.702505859375001 0.7979999999999998 7.702505859375001 0.7769999999999999 Q 7.702505859375001 0.7454999999999998 7.6695058593750005 0.7282499999999998 Q 7.636505859375 0.7109999999999999 7.583255859375001 0.6952499999999998 Q 7.5300058593750006 0.6794999999999998 7.465505859375001 0.6584999999999999 Q 7.372505859375001 0.6269999999999998 7.312505859375 0.5872499999999998 Q 7.252505859375001 0.5474999999999999 7.2240058593750005 0.4927499999999998 Q 7.195505859375 0.43799999999999983 7.195505859375 0.3599999999999999 Q 7.195505859375 0.24149999999999983 7.251005859375001 0.1619999999999998 Q 7.306505859375 0.0824999999999998 7.397255859375001 0.04124999999999979 Q 7.488005859375001 -2.220446049250313e-16 7.593005859375 -2.220446049250313e-16 Q 7.671005859375001 -2.220446049250313e-16 7.743755859375001 0.018749999999999822 Q 7.816505859375001 0.03749999999999987 7.8802558593750005 0.06449999999999978 Q 7.944005859375 0.0914999999999998 7.992005859375 0.11549999999999983 L 7.866005859375001 0.3569999999999999" fill="#404040" fill-rule="nonzero"></path></g><g><path d=" M 0.06675 1.9622999999999995 L 0.06675 1.4297999999999995 L 0.2475 1.4297999999999995 Q 0.33225 1.4297999999999995 0.388875 1.4654249999999995 Q 0.4455 1.5010499999999996 0.47400000000000003 1.5614249999999994 Q 0.5025000000000001 1.6217999999999995 0.5025000000000001 1.6952999999999996 Q 0.5025000000000001 1.7762999999999995 0.471375 1.8362999999999996 Q 0.44025000000000003 1.8962999999999994 0.382875 1.9292999999999996 Q 0.3255 1.9622999999999995 0.2475 1.9622999999999995 L 0.06675 1.9622999999999995 M 0.45 1.6952999999999996 Q 0.45 1.6315499999999994 0.426375 1.5820499999999995 Q 0.40275 1.5325499999999994 0.35775 1.5044249999999995 Q 0.31275000000000003 1.4762999999999995 0.2475 1.4762999999999995 L 0.11925000000000001 1.4762999999999995 L 0.11925000000000001 1.9157999999999995 L 0.2475 1.9157999999999995 Q 0.3135 1.9157999999999995 0.3585 1.8865499999999995 Q 0.4035 1.8572999999999995 0.42675 1.8074249999999994 Q 0.45 1.7575499999999995 0.45 1.6952999999999996 M 0.9618951416015624 1.9157999999999995 L 0.9618951416015624 1.9622999999999995 L 0.6041451416015624 1.9622999999999995 L 0.6041451416015624 1.4297999999999995 L 0.9551451416015624 1.4297999999999995 L 0.9551451416015624 1.4762999999999995 L 0.6566451416015624 1.4762999999999995 L 0.6566451416015624 1.6682999999999995 L 0.9168951416015625 1.6682999999999995 L 0.9168951416015625 1.7125499999999996 L 0.6566451416015624 1.7125499999999996 L 0.6566451416015624 1.9157999999999995 L 0.9618951416015624 1.9157999999999995 M 1.1929222412109375 1.8955499999999994 Q 1.2086722412109374 1.9067999999999994 1.2345472412109375 1.9150499999999995 Q 1.2604222412109374 1.9232999999999996 1.2941722412109373 1.9232999999999996 Q 1.3331722412109375 1.9232999999999996 1.3571722412109375 1.9101749999999995 Q 1.3811722412109373 1.8970499999999995 1.3939222412109373 1.8704249999999996 Q 1.4066722412109374 1.8437999999999994 1.4111722412109373 1.8040499999999995 Q 1.4156722412109375 1.7642999999999995 1.4156722412109375 1.7110499999999995 L 1.4156722412109375 1.4297999999999995 L 1.4681722412109375 1.4297999999999995 L 1.4681722412109375 1.7005499999999996 Q 1.4681722412109375 1.7605499999999994 1.4621722412109375 1.8100499999999995 Q 1.4561722412109375 1.8595499999999996 1.4389222412109375 1.8955499999999994 Q 1.4216722412109375 1.9315499999999994 1.3871722412109375 1.9510499999999995 Q 1.3526722412109373 1.9705499999999996 1.2956722412109374 1.9705499999999996 Q 1.2589222412109373 1.9705499999999996 1.2304222412109374 1.9622999999999995 Q 1.2019222412109374 1.9540499999999994 1.1779222412109374 1.9375499999999994 L 1.1929222412109375 1.8955499999999994 M 1.9538107910156248 1.9157999999999995 L 1.9538107910156248 1.9622999999999995 L 1.596060791015625 1.9622999999999995 L 1.596060791015625 1.4297999999999995 L 1.947060791015625 1.4297999999999995 L 1.947060791015625 1.4762999999999995 L 1.648560791015625 1.4762999999999995 L 1.648560791015625 1.6682999999999995 L 1.908810791015625 1.6682999999999995 L 1.908810791015625 1.7125499999999996 L 1.648560791015625 1.7125499999999996 L 1.648560791015625 1.9157999999999995 L 1.9538107910156248 1.9157999999999995 M 2.2706923828125 1.9660499999999994 Q 2.2076923828124997 1.9660499999999994 2.1641923828125 1.9435499999999994 Q 2.1206923828125 1.9210499999999995 2.0951923828125 1.8831749999999996 Q 2.0696923828125 1.8452999999999995 2.0580673828125 1.7972999999999995 Q 2.0464423828125 1.7492999999999994 2.0464423828125 1.6982999999999995 L 2.0464423828125 1.4297999999999995 L 2.0981923828125 1.4297999999999995 L 2.0981923828125 1.6982999999999995 Q 2.0981923828125 1.7395499999999995 2.1068173828125 1.7792999999999994 Q 2.1154423828124997 1.8190499999999994 2.1349423828124996 1.8505499999999995 Q 2.1544423828125 1.8820499999999996 2.1874423828125 1.9004249999999996 Q 2.2204423828124997 1.9187999999999994 2.2699423828125 1.9187999999999994 Q 2.3209423828124995 1.9187999999999994 2.3543173828125 1.8996749999999996 Q 2.3876923828125 1.8805499999999995 2.4068173828124997 1.8490499999999994 Q 2.4259423828125 1.8175499999999996 2.4341923828125 1.7781749999999994 Q 2.4424423828124997 1.7387999999999995 2.4424423828124997 1.6982999999999995 L 2.4424423828124997 1.4297999999999995 L 2.4949423828125 1.4297999999999995 L 2.4949423828125 1.6982999999999995 Q 2.4949423828125 1.7515499999999995 2.4829423828125 1.8002999999999996 Q 2.4709423828125 1.8490499999999994 2.4443173828124998 1.8857999999999995 Q 2.4176923828124997 1.9225499999999995 2.3749423828125 1.9442999999999995 Q 2.3321923828125 1.9660499999999994 2.2706923828125 1.9660499999999994 M 2.618321044921875 1.4297999999999995 L 2.792321044921875 1.6615499999999994 L 2.965571044921875 1.4297999999999995 L 3.024821044921875 1.4297999999999995 L 2.8208210449218747 1.6997999999999995 L 3.0188210449218746 1.9622999999999995 L 2.9595710449218746 1.9622999999999995 L 2.792321044921875 1.7380499999999994 L 2.624321044921875 1.9622999999999995 L 2.5643210449218747 1.9622999999999995 L 2.7623210449218747 1.6997999999999995 L 2.558321044921875 1.4297999999999995 L 2.618321044921875 1.4297999999999995" fill="#4e888f" fill-rule="nonzero"></path></g><g clip-path="url(#SvgjsClipPath1058)"><g clip-path="url(#SvgjsClipPath1055f5ddf24d-9e0e-4008-9e49-771d57f1b336)"><path d=" M -0.3999832372708019 0.9811583813645988 C -0.3999832372708019 1.5494854988784474 -0.8607033025036963 2.0102055641113417 -1.429030420017545 2.0102055641113417 C -1.9973575375313934 2.0102055641113417 -2.458077602764288 1.5494854988784474 -2.458077602764288 0.9811583813645988 C -2.458077602764288 0.41283126385075036 -1.9973575375313934 -0.04788880138214435 -1.429030420017545 -0.04788880138214435 C -0.8607033025036963 -0.04788880138214435 -0.3999832372708019 0.41283126385075036 -0.3999832372708019 0.9811583813645988 Z" fill="#4e888f" transform="matrix(1,0,0,1,0,0)" fill-rule="nonzero"></path></g><g clip-path="url(#SvgjsClipPath1055f5ddf24d-9e0e-4008-9e49-771d57f1b336)"><path d=" M -0.44132012747350036 1.2697622899695713 C -0.5949505405747715 1.1161989277850932 -0.747659003570142 0.963926295748875 -0.8824816345110607 0.8298915130802704 C -0.8835376864505458 0.8267736454494099 -0.8847278402236161 0.8236390150893513 -0.8861023840178663 0.8205211474584908 C -0.8960789200126364 0.7975441273847926 -0.9157212298376938 0.780166821411437 -0.9397431174520254 0.7730658610984583 C -1.1695098465714049 0.5449083539821031 -1.3350585601325777 0.3821422534678273 -1.341210481748308 0.3799463359428665 C -1.3623414333695665 0.37317880012804266 -1.3853095246083924 0.37522779563592734 -1.4049088527013713 0.3856289011410477 C -1.450168221536443 0.40725282180669276 -1.4494809496393182 0.448522661092599 -1.448894254117382 0.48167933944658803 C -1.448743389554598 0.4904797722756299 -1.4486092877210128 0.4987773232287266 -1.4491289323261562 0.5068234332438503 C -1.45102312072555 0.5362252602574482 -1.4555490576090568 0.5662975964389739 -1.459957655388177 0.5953809315978067 L -1.4610137073276621 0.6024883287778328 C -1.4825538143473165 0.7449715269623172 -1.6218353312549496 0.8381220131165736 -1.6753587255847213 0.8690157230288098 L -1.6753587255847213 0.8429161536672516 C -1.6753587254561495 0.8342878845780705 -1.6823533196426408 0.827293290183124 -1.6909815889646205 0.827293290054553 L -1.9958956333122164 0.827293290054553 C -2.004526618413423 0.8272932850970017 -2.011526008866225 0.834285173523595 -2.011535259654113 0.8429161536672516 L -2.011535259654113 1.38602857968811 C -2.011535259654113 1.3894817019029342 -1.7312289020022367 1.671849875246186 -1.3944489096817099 2.009317139463838 C -0.9504199823213169 1.9943521271873956 -0.5661106985513928 1.6961575916501936 -0.44132012747350036 1.269762289969571 Z" fill="#404040" transform="matrix(1,0,0,1,0,0)" fill-rule="nonzero"></path></g><g clip-path="url(#SvgjsClipPath1055f5ddf24d-9e0e-4008-9e49-771d57f1b336)"><path d=" M -1.4834254762656216 1.406026515621533 C -1.4924043480454974 1.4061123119616241 -1.501374966264125 1.4054563355043868 -1.5102458429827013 1.4040652763053463 C -1.5481966618873684 1.3975948628348513 -1.5836498341415077 1.3722160908288146 -1.6156331214516249 1.3284988930799753 C -1.6285739483926158 1.3107806883175048 -1.6715368233275378 1.2977895731889195 -1.6891712144440172 1.3000022534430784 C -1.6932906276813973 1.3006019201335124 -1.697478021664755 1.2995181471223252 -1.7007892698336557 1.2969952913745917 C -1.704100518002556 1.294472435626858 -1.7062568499257105 1.2907228936616548 -1.706772080102101 1.2865920700845386 C -1.7073342753569427 1.2824786863428694 -1.7062361061018807 1.2783106924755936 -1.7037200419988832 1.2750083583404095 C -1.7012039778958856 1.2717060242052252 -1.6974769613010177 1.269540961644468 -1.6933618967435606 1.268991204426455 C -1.6666756318600666 1.2652363530860642 -1.611576540985667 1.2808927421571592 -1.590371688549976 1.3099257891283977 C -1.5633501690825184 1.3468037933643822 -1.534618851236847 1.3680924594460637 -1.5048817696392853 1.3731380409347145 C -1.4894681462197374 1.3749566807319369 -1.4739077241479437 1.3751757624867385 -1.4584490097603415 1.3737917873734433 C -1.4499335433276688 1.3733391936850925 -1.4415521787285817 1.372920125455138 -1.4336066450886467 1.372920125455138 L -1.0188464365382115 1.372920125455138 C -0.9910164336562295 1.3733084089057028 -0.9646914825411566 1.3603142833434545 -0.948074193863518 1.337986597806142 C -0.9385979860622289 1.3231806748762338 -0.9378858912559407 1.304403183903206 -0.9462135309225208 1.2889220894430846 C -0.9555716162143109 1.2704940379158867 -0.9741728979989641 1.2585763891035122 -0.9948254455972274 1.257776938592876 C -1.0024024984017814 1.2565907377536274 -1.0079946738943693 1.2500748229801801 -1.008017713476191 1.24240551591815 C -1.0080630467231213 1.234744234159237 -1.002534726222357 1.2281855711486902 -0.9949763101600115 1.226933516868235 C -0.9705618985941709 1.2235824754764448 -0.9489026875513182 1.2095463730280849 -0.9358709270072469 1.1886306806504057 C -0.9281369582596486 1.1737443829801966 -0.9281682556743376 1.1560175273003699 -0.935954740653238 1.141158631561175 C -0.9453443218783681 1.1222260066402105 -0.964276125820847 1.1098872724328706 -0.9853880290586547 1.1089406660422838 C -0.9929388637720391 1.1077333334522783 -0.9985027199876348 1.1012327055269142 -0.9985300087500242 1.0935860060967557 C -0.9985640279490027 1.085940537593237 -0.9930598255198078 1.0793936576420167 -0.9855221308922406 1.0781140070468407 C -0.9606678678892908 1.0747311053013173 -0.9386546999357206 1.0603449829558216 -0.9255786112795683 1.0389395089107065 C -0.917469842263053 1.023383403093457 -0.9174135966310384 1.0048598416166579 -0.9254277467167846 0.9892547795673168 C -0.9348238701690303 0.9697838679249104 -0.9541211917004462 0.9570154735116236 -0.9757159343113084 0.95598076210894 C -0.9832534525199106 0.9547587235000874 -0.9887997809756333 0.9482620011657625 -0.9888243885442813 0.9406261021634121 C -0.9888611577402076 0.9329913337557153 -0.9833743967373707 0.9264483358156403 -0.9758500361448932 0.9251541031134967 C -0.9506042424466039 0.9215731592317974 -0.9282959667619575 0.9068568339594107 -0.9150683800723125 0.8850576548714632 C -0.9065473296270568 0.8688196826086678 -0.906391255428582 0.8494664819978127 -0.914649311842358 0.8330931943571217 C -0.9298698699543007 0.7987966504176567 -0.9662114668559432 0.796064325558354 -1.0121413448589418 0.796064325558354 L -1.3247662444048989 0.796064325558354 C -1.3306367903134098 0.7960536123101173 -1.336008028016846 0.7927596846100584 -1.338679309639384 0.7875320963964832 C -1.3413380495662066 0.7823022199782924 -1.340846165157028 0.7760242215979826 -1.3374053422203225 0.7712722490742537 C -1.2884581729616524 0.7037519758640064 -1.2790542818814767 0.5286987948474687 -1.3197709511038425 0.44272275679003054 C -1.325551916025329 0.427825136151618 -1.3370058129322506 0.41582868623331604 -1.3516201365803744 0.4093649256856628 C -1.364938695369229 0.40538921765199953 -1.37930078083563 0.40699239905410345 -1.3914148556968413 0.4138070489231789 C -1.417313272308021 0.42617794307143186 -1.4182352224139205 0.4464273199428269 -1.4176485268919843 0.4811261693830483 C -1.4174976623292006 0.49016128042086404 -1.4173467977664171 0.4995651715010403 -1.4179502560175516 0.5088684862060272 C -1.41989473260454 0.5395610433678847 -1.4245547713216327 0.5702871259881389 -1.4290304200175452 0.6000074448565031 L -1.4301199974154264 0.6071818929533219 C -1.4592368580326556 0.7997688887111504 -1.6736656899357056 0.904267742532571 -1.6827678518903144 0.9086260521240963 C -1.6865059419338304 0.91041849794963 -1.6908036040801644 0.9106499730085758 -1.6947125948860728 0.9092694042525065 C -1.6986215856919813 0.9078888354964375 -1.7018206440389125 0.9050096852190342 -1.7036039242836452 0.901267214006098 C -1.707309308085144 0.893484918289013 -1.7040274606279668 0.8841713648888507 -1.6962618488948453 0.8804311416127667 C -1.6941665077450732 0.8794421405900746 -1.487616158565165 0.7785807990046579 -1.4610137073276621 0.6025218542362295 L -1.4599241299297807 0.5953306434102124 C -1.4555322948798588 0.5662808337097756 -1.4509895952671537 0.5362420229866466 -1.4491121695969582 0.5068569587022467 C -1.4485757622626165 0.49847559410315945 -1.448743389554598 0.490094229504072 -1.448894254117382 0.48171286490498477 C -1.4494641869101197 0.448556186550995 -1.450168221536443 0.4073031099942875 -1.4048920899721735 0.3856624265994441 C -1.385293867926322 0.3752575939645558 -1.3623242418070305 0.3732084615291771 -1.3411937190191097 0.3799798614012632 C -1.3186691363496619 0.389124889548774 -1.3007697343104891 0.4069457589431575 -1.2915257524049182 0.4294299125358779 C -1.2497362685138689 0.5177527326810605 -1.2544298326893581 0.6778703219820245 -1.2973759448950815 0.7649359374373434 L -1.0121413448589416 0.7649359374373434 C -0.9717599302205386 0.7649359374373434 -0.910743595939183 0.7649359374373434 -0.8861023840178663 0.8205379101876888 C -0.8738656556466946 0.8457200404974715 -0.8743951146659363 0.8752327091229776 -0.8875272159997114 0.8999597211286401 C -0.8969908520942209 0.916894606154377 -0.9109019992336715 0.9309216795199894 -0.9277577660753304 0.940525525788223 C -0.9141194257812317 0.9491927558670714 -0.9033886457499476 0.9617450828895202 -0.8969478698090856 0.9765653935642982 C -0.8849437911441724 1.000999936443267 -0.8853926850468663 1.0297104423030583 -0.8981547863113541 1.053757761521893 C -0.9074058122868014 1.0703602602288462 -0.9210452809996947 1.0840983135370283 -0.9375807253854611 1.093468666992369 C -0.9244259690979146 1.1018728252161254 -0.9140369051669341 1.1139642497912396 -0.9077095419543137 1.1282345673493828 C -0.8957988358016462 1.1519358260877668 -0.8960672917551125 1.1799301631887402 -0.9084303393098354 1.2033986450739977 C -0.9174672537375517 1.2196602127858025 -0.9308058547076856 1.2331206009821853 -0.9469846164656368 1.2423049395429613 C -0.9342924927051293 1.2504368697218486 -0.924239949555486 1.2620852395360354 -0.9180521458695876 1.2758303979393104 C -0.9052768375371973 1.3010016138766587 -0.9067296511295826 1.3310455440876112 -0.9218740481267715 1.3548666661087039 C -0.9441920967656072 1.38618041839412 -0.9803949175691851 1.404622892535545 -1.0188464365382115 1.4042664290557245 L -1.4336234078178447 1.4042664290557245 C -1.4410492968526363 1.4042664290557245 -1.448894254117382 1.404702260014877 -1.4568397877573167 1.4051045655156333 C -1.4656737460447546 1.4055571592039844 -1.4745747552489856 1.406026515621533 -1.4834254762656216 1.406026515621533 Z" fill="#bab9b4" transform="matrix(1,0,0,1,0,0)" fill-rule="nonzero"></path></g><g clip-path="url(#SvgjsClipPath1055f5ddf24d-9e0e-4008-9e49-771d57f1b336)"><path d=" M -1.691031877385015 1.4016514433008096 L -1.99596268422901 1.4016514433008096 C -2.0045909535509896 1.4016514433008094 -2.0115855478417077 1.3946568490100906 -2.0115855478417077 1.3860285796881109 L -2.0115855478417077 0.8429999673132431 C -2.0115855479702796 0.834371698224062 -2.0045909537837883 0.8273771038291156 -1.9959626844618086 0.8273771037005441 L -1.691031877385015 0.8273771037005441 C -1.682403608063035 0.8273771037005445 -1.6754090137723163 0.8343716979912632 -1.6754090137723163 0.8429999673132431 L -1.6754090137723163 1.386028579688111 C -1.6754090139008875 1.3946568492428895 -1.6824036082958336 1.4016514434293805 -1.6910318776178135 1.4016514433008096 Z M -1.9803230578871132 1.3704224788046102 L -1.7066547409977142 1.3704224788046102 L -1.7066547409977142 0.8586228309259422 L -1.9803230578871132 0.8586228309259422 Z" fill="#bab9b4" transform="matrix(1,0,0,1,0,0)" fill-rule="nonzero"></path></g><g clip-path="url(#SvgjsClipPath1055f5ddf24d-9e0e-4008-9e49-771d57f1b336)"><path d=" M -1.4834254762656216 1.406026515621533 C -1.4924043480454974 1.4061123119616241 -1.501374966264125 1.4054563355043868 -1.5102458429827013 1.4040652763053463 C -1.5481966618873684 1.3975948628348513 -1.5836498341415077 1.3722160908288146 -1.6156331214516249 1.3284988930799753 C -1.6285739483926158 1.3107806883175048 -1.6715368233275378 1.2977895731889195 -1.6891712144440172 1.3000022534430784 C -1.6932906276813973 1.3006019201335124 -1.697478021664755 1.2995181471223252 -1.7007892698336557 1.2969952913745917 C -1.704100518002556 1.294472435626858 -1.7062568499257105 1.2907228936616548 -1.706772080102101 1.2865920700845386 C -1.7073342753569427 1.2824786863428694 -1.7062361061018807 1.2783106924755936 -1.7037200419988832 1.2750083583404095 C -1.7012039778958856 1.2717060242052252 -1.6974769613010177 1.269540961644468 -1.6933618967435606 1.268991204426455 C -1.6666756318600666 1.2652363530860642 -1.611576540985667 1.2808927421571592 -1.590371688549976 1.3099257891283977 C -1.5633501690825184 1.3468037933643822 -1.534618851236847 1.3680924594460637 -1.5048817696392853 1.3731380409347145 C -1.4894681462197374 1.3749566807319369 -1.4739077241479437 1.3751757624867385 -1.4584490097603415 1.3737917873734433 C -1.4499335433276688 1.3733391936850925 -1.4415521787285817 1.372920125455138 -1.4336066450886467 1.372920125455138 L -1.0188464365382115 1.372920125455138 C -0.9910164336562295 1.3733084089057028 -0.9646914825411566 1.3603142833434545 -0.948074193863518 1.337986597806142 C -0.9385979860622289 1.3231806748762338 -0.9378858912559407 1.304403183903206 -0.9462135309225208 1.2889220894430846 C -0.9555716162143109 1.2704940379158867 -0.9741728979989641 1.2585763891035122 -0.9948254455972274 1.257776938592876 C -1.0024024984017814 1.2565907377536274 -1.0079946738943693 1.2500748229801801 -1.008017713476191 1.24240551591815 C -1.0080630467231213 1.234744234159237 -1.002534726222357 1.2281855711486902 -0.9949763101600115 1.226933516868235 C -0.9705618985941709 1.2235824754764448 -0.9489026875513182 1.2095463730280849 -0.9358709270072469 1.1886306806504057 C -0.9281369582596486 1.1737443829801966 -0.9281682556743376 1.1560175273003699 -0.935954740653238 1.141158631561175 C -0.9453443218783681 1.1222260066402105 -0.964276125820847 1.1098872724328706 -0.9853880290586547 1.1089406660422838 C -0.9929388637720391 1.1077333334522783 -0.9985027199876348 1.1012327055269142 -0.9985300087500242 1.0935860060967557 C -0.9985640279490027 1.085940537593237 -0.9930598255198078 1.0793936576420167 -0.9855221308922406 1.0781140070468407 C -0.9606678678892908 1.0747311053013173 -0.9386546999357206 1.0603449829558216 -0.9255786112795683 1.0389395089107065 C -0.917469842263053 1.023383403093457 -0.9174135966310384 1.0048598416166579 -0.9254277467167846 0.9892547795673168 C -0.9348238701690303 0.9697838679249104 -0.9541211917004462 0.9570154735116236 -0.9757159343113084 0.95598076210894 C -0.9832534525199106 0.9547587235000874 -0.9887997809756333 0.9482620011657625 -0.9888243885442813 0.9406261021634121 C -0.9888611577402076 0.9329913337557153 -0.9833743967373707 0.9264483358156403 -0.9758500361448932 0.9251541031134967 C -0.9506042424466039 0.9215731592317974 -0.9282959667619575 0.9068568339594107 -0.9150683800723125 0.8850576548714632 C -0.9065473296270568 0.8688196826086678 -0.906391255428582 0.8494664819978127 -0.914649311842358 0.8330931943571217 C -0.9298698699543007 0.7987966504176567 -0.9662114668559432 0.796064325558354 -1.0121413448589418 0.796064325558354 L -1.3247662444048989 0.796064325558354 C -1.3306367903134098 0.7960536123101173 -1.336008028016846 0.7927596846100584 -1.338679309639384 0.7875320963964832 C -1.3413380495662066 0.7823022199782924 -1.340846165157028 0.7760242215979826 -1.3374053422203225 0.7712722490742537 C -1.2884581729616524 0.7037519758640064 -1.2790542818814767 0.5286987948474687 -1.3197709511038425 0.44272275679003054 C -1.325551916025329 0.427825136151618 -1.3370058129322506 0.41582868623331604 -1.3516201365803744 0.4093649256856628 C -1.364938695369229 0.40538921765199953 -1.37930078083563 0.40699239905410345 -1.3914148556968413 0.4138070489231789 C -1.417313272308021 0.42617794307143186 -1.4182352224139205 0.4464273199428269 -1.4176485268919843 0.4811261693830483 C -1.4174976623292006 0.49016128042086404 -1.4173467977664171 0.4995651715010403 -1.4179502560175516 0.5088684862060272 C -1.41989473260454 0.5395610433678847 -1.4245547713216327 0.5702871259881389 -1.4290304200175452 0.6000074448565031 L -1.4301199974154264 0.6071818929533219 C -1.4592368580326556 0.7997688887111504 -1.6736656899357056 0.904267742532571 -1.6827678518903144 0.9086260521240963 C -1.6865059419338304 0.91041849794963 -1.6908036040801644 0.9106499730085758 -1.6947125948860728 0.9092694042525065 C -1.6986215856919813 0.9078888354964375 -1.7018206440389125 0.9050096852190342 -1.7036039242836452 0.901267214006098 C -1.707309308085144 0.893484918289013 -1.7040274606279668 0.8841713648888507 -1.6962618488948453 0.8804311416127667 C -1.6941665077450732 0.8794421405900746 -1.487616158565165 0.7785807990046579 -1.4610137073276621 0.6025218542362295 L -1.4599241299297807 0.5953306434102124 C -1.4555322948798588 0.5662808337097756 -1.4509895952671537 0.5362420229866466 -1.4491121695969582 0.5068569587022467 C -1.4485757622626165 0.49847559410315945 -1.448743389554598 0.490094229504072 -1.448894254117382 0.48171286490498477 C -1.4494641869101197 0.448556186550995 -1.450168221536443 0.4073031099942875 -1.4048920899721735 0.3856624265994441 C -1.385293867926322 0.3752575939645558 -1.3623242418070305 0.3732084615291771 -1.3411937190191097 0.3799798614012632 C -1.3186691363496619 0.389124889548774 -1.3007697343104891 0.4069457589431575 -1.2915257524049182 0.4294299125358779 C -1.2497362685138689 0.5177527326810605 -1.2544298326893581 0.6778703219820245 -1.2973759448950815 0.7649359374373434 L -1.0121413448589416 0.7649359374373434 C -0.9717599302205386 0.7649359374373434 -0.910743595939183 0.7649359374373434 -0.8861023840178663 0.8205379101876888 C -0.8738656556466946 0.8457200404974715 -0.8743951146659363 0.8752327091229776 -0.8875272159997114 0.8999597211286401 C -0.8969908520942209 0.916894606154377 -0.9109019992336715 0.9309216795199894 -0.9277577660753304 0.940525525788223 C -0.9141194257812317 0.9491927558670714 -0.9033886457499476 0.9617450828895202 -0.8969478698090856 0.9765653935642982 C -0.8849437911441724 1.000999936443267 -0.8853926850468663 1.0297104423030583 -0.8981547863113541 1.053757761521893 C -0.9074058122868014 1.0703602602288462 -0.9210452809996947 1.0840983135370283 -0.9375807253854611 1.093468666992369 C -0.9244259690979146 1.1018728252161254 -0.9140369051669341 1.1139642497912396 -0.9077095419543137 1.1282345673493828 C -0.8957988358016462 1.1519358260877668 -0.8960672917551125 1.1799301631887402 -0.9084303393098354 1.2033986450739977 C -0.9174672537375517 1.2196602127858025 -0.9308058547076856 1.2331206009821853 -0.9469846164656368 1.2423049395429613 C -0.9342924927051293 1.2504368697218486 -0.924239949555486 1.2620852395360354 -0.9180521458695876 1.2758303979393104 C -0.9052768375371973 1.3010016138766587 -0.9067296511295826 1.3310455440876112 -0.9218740481267715 1.3548666661087039 C -0.9441920967656072 1.38618041839412 -0.9803949175691851 1.404622892535545 -1.0188464365382115 1.4042664290557245 L -1.4336234078178447 1.4042664290557245 C -1.4410492968526363 1.4042664290557245 -1.448894254117382 1.404702260014877 -1.4568397877573167 1.4051045655156333 C -1.4656737460447546 1.4055571592039844 -1.4745747552489856 1.406026515621533 -1.4834254762656216 1.406026515621533 Z" fill="#bab9b4" transform="matrix(1,0,0,1,0,0)" fill-rule="nonzero"></path></g><g clip-path="url(#SvgjsClipPath1055f5ddf24d-9e0e-4008-9e49-771d57f1b336)"><path d=" M -1.691031877385015 1.4016514433008096 L -1.99596268422901 1.4016514433008096 C -2.0045909535509896 1.4016514433008094 -2.0115855478417077 1.3946568490100906 -2.0115855478417077 1.3860285796881109 L -2.0115855478417077 0.8429999673132431 C -2.0115855479702796 0.834371698224062 -2.0045909537837883 0.8273771038291156 -1.9959626844618086 0.8273771037005441 L -1.691031877385015 0.8273771037005441 C -1.682403608063035 0.8273771037005445 -1.6754090137723163 0.8343716979912632 -1.6754090137723163 0.8429999673132431 L -1.6754090137723163 1.386028579688111 C -1.6754090139008875 1.3946568492428895 -1.6824036082958336 1.4016514434293805 -1.6910318776178135 1.4016514433008096 Z M -1.9803230578871132 1.3704224788046102 L -1.7066547409977142 1.3704224788046102 L -1.7066547409977142 0.8586228309259422 L -1.9803230578871132 0.8586228309259422 Z" fill="#bab9b4" transform="matrix(1,0,0,1,0,0)" fill-rule="nonzero"></path></g></g></g><defs><clipPath id="SvgjsClipPath1058"><path d=" M -2.458077602764288 -0.04788880138214435 h 2.058077602764288 v 2.058077602764288 h -2.058077602764288 Z"></path></clipPath><clipPath id="SvgjsClipPath1055f5ddf24d-9e0e-4008-9e49-771d57f1b336"><path d=" M -2.458077602764288 -0.04788880138214435 L -0.3999999999999999 -0.04788880138214435 L -0.3999999999999999 2.010188801382144 L -2.458077602764288 2.010188801382144 Z"></path></clipPath></defs></svg>