<svg xmlns="http://www.w3.org/2000/svg" version="1.1" xmlns:xlink="http://www.w3.org/1999/xlink" xmlns:svgjs="http://svgjs.dev/svgjs" viewBox="0 0 8.13156467201639 2.8409996999448843"><g transform="matrix(1,0,0,1,2.126162606470928,0.43738109997244234)"><rect width="8.13156467201639" height="8.13156467201639" x="-2.1261626064709285" y="-3.082663586008195" fill="#ffffff"></rect><g><path d=" M 0.552 1.0815 Q 0.4485 1.0815 0.35475 1.0447499999999998 Q 0.261 1.0079999999999998 0.189 0.9367499999999999 Q 0.117 0.8654999999999998 0.07575 0.7642499999999999 Q 0.0345 0.6629999999999998 0.0345 0.5324999999999999 Q 0.0345 0.4199999999999998 0.0765 0.32399999999999984 Q 0.11850000000000001 0.22799999999999987 0.19275 0.15524999999999978 Q 0.267 0.0824999999999998 0.366 0.041999999999999815 Q 0.465 0.0014999999999998348 0.5805 0.0014999999999998348 Q 0.7245 0.0014999999999998348 0.8415 0.06374999999999975 Q 0.9585 0.12599999999999978 1.0155 0.23399999999999987 L 0.798 0.40049999999999986 Q 0.7665000000000001 0.3374999999999998 0.7035 0.2992499999999998 Q 0.6405 0.2609999999999998 0.5700000000000001 0.2609999999999998 Q 0.5175 0.2609999999999998 0.47400000000000003 0.2819999999999998 Q 0.4305 0.3029999999999998 0.39825 0.3404999999999998 Q 0.366 0.3779999999999998 0.34875 0.42974999999999985 Q 0.3315 0.4814999999999998 0.3315 0.5429999999999998 Q 0.3315 0.6059999999999999 0.34950000000000003 0.6569999999999998 Q 0.3675 0.7079999999999999 0.39975 0.7447499999999998 Q 0.432 0.7814999999999999 0.47700000000000004 0.8017499999999999 Q 0.522 0.8219999999999998 0.5775 0.8219999999999998 Q 0.648 0.8219999999999998 0.7125 0.7867499999999998 Q 0.777 0.7514999999999998 0.8295 0.6869999999999998 L 0.8295 0.9719999999999999 Q 0.7095 1.0815 0.552 1.0815 M 0.8145 0.7169999999999999 L 0.618 0.7169999999999999 L 0.618 0.5069999999999998 L 1.056 0.5069999999999998 L 1.056 1.0739999999999998 L 0.8145 1.0739999999999998 L 0.8145 0.7169999999999999 M 1.6695205078125 1.0829999999999997 Q 1.5420205078125 1.0829999999999997 1.4505205078125 1.041 Q 1.3590205078125 0.9989999999999999 1.3012705078125 0.9254999999999999 Q 1.2435205078125 0.8519999999999999 1.2165205078124999 0.7567499999999998 Q 1.1895205078125 0.6614999999999998 1.1895205078125 0.5564999999999999 L 1.1895205078125 0.008999999999999897 L 1.4820205078125 0.008999999999999897 L 1.4820205078125 0.5564999999999999 Q 1.4820205078125 0.6089999999999998 1.4925205078125 0.6569999999999998 Q 1.5030205078124999 0.7049999999999998 1.5255205078125 0.7424999999999998 Q 1.5480205078125 0.7799999999999998 1.5832705078125 0.8017499999999999 Q 1.6185205078125 0.8234999999999999 1.6695205078125 0.8234999999999999 Q 1.7220205078125 0.8234999999999999 1.7580205078125 0.8017499999999999 Q 1.7940205078125 0.7799999999999998 1.8157705078125 0.7417499999999999 Q 1.8375205078125 0.7034999999999998 1.8480205078125 0.6554999999999999 Q 1.8585205078125 0.6074999999999998 1.8585205078125 0.5564999999999999 L 1.8585205078125 0.008999999999999897 L 2.1510205078125 0.008999999999999897 L 2.1510205078125 0.5564999999999999 Q 2.1510205078125 0.6674999999999998 2.1217705078125 0.7634999999999998 Q 2.0925205078125 0.8594999999999998 2.0340205078125 0.9314999999999998 Q 1.9755205078125 1.0034999999999998 1.8847705078125 1.0432499999999998 Q 1.7940205078125 1.0829999999999997 1.6695205078125 1.0829999999999997 M 2.323491943359375 1.0739999999999998 L 2.323491943359375 0.008999999999999897 L 2.615991943359375 0.008999999999999897 L 2.615991943359375 1.0739999999999998 L 2.323491943359375 1.0739999999999998 M 2.803516845703125 1.0739999999999998 L 2.803516845703125 0.008999999999999897 L 3.213016845703125 0.008999999999999897 Q 3.390016845703125 0.008999999999999897 3.509266845703125 0.08024999999999982 Q 3.628516845703125 0.15149999999999986 3.6892668457031252 0.2722499999999999 Q 3.750016845703125 0.3929999999999998 3.750016845703125 0.5399999999999998 Q 3.750016845703125 0.7019999999999998 3.683266845703125 0.8219999999999998 Q 3.616516845703125 0.9419999999999998 3.495766845703125 1.0079999999999998 Q 3.375016845703125 1.0739999999999998 3.213016845703125 1.0739999999999998 L 2.803516845703125 1.0739999999999998 M 3.453016845703125 0.5399999999999998 Q 3.453016845703125 0.4574999999999998 3.424516845703125 0.3952499999999999 Q 3.3960168457031252 0.33299999999999985 3.342016845703125 0.2984999999999999 Q 3.288016845703125 0.2639999999999998 3.213016845703125 0.2639999999999998 L 3.096016845703125 0.2639999999999998 L 3.096016845703125 0.8189999999999998 L 3.213016845703125 0.8189999999999998 Q 3.289516845703125 0.8189999999999998 3.342766845703125 0.7829999999999999 Q 3.3960168457031252 0.7469999999999999 3.424516845703125 0.6832499999999999 Q 3.453016845703125 0.6194999999999998 3.453016845703125 0.5399999999999998 M 4.64102197265625 0.8189999999999998 L 4.64102197265625 1.0739999999999998 L 3.8820219726562497 1.0739999999999998 L 3.8820219726562497 0.008999999999999897 L 4.6275219726562495 0.008999999999999897 L 4.6275219726562495 0.2639999999999998 L 4.17452197265625 0.2639999999999998 L 4.17452197265625 0.4139999999999998 L 4.56152197265625 0.4139999999999998 L 4.56152197265625 0.6509999999999998 L 4.17452197265625 0.6509999999999998 L 4.17452197265625 0.8189999999999998 L 4.64102197265625 0.8189999999999998 M 5.426999267578125 0.3569999999999999 Q 5.426999267578125 0.3569999999999999 5.401499267578125 0.34199999999999986 Q 5.375999267578125 0.32699999999999985 5.333999267578125 0.3082499999999998 Q 5.291999267578125 0.28949999999999987 5.2424992675781255 0.27449999999999986 Q 5.192999267578125 0.25949999999999984 5.144999267578125 0.25949999999999984 Q 5.107499267578125 0.25949999999999984 5.083499267578125 0.27149999999999985 Q 5.059499267578125 0.28349999999999986 5.059499267578125 0.31199999999999983 Q 5.059499267578125 0.33899999999999986 5.083499267578125 0.3554999999999998 Q 5.107499267578125 0.3719999999999998 5.151749267578125 0.38549999999999984 Q 5.1959992675781255 0.3989999999999998 5.257499267578125 0.41849999999999987 Q 5.356499267578125 0.4484999999999998 5.428499267578125 0.4874999999999998 Q 5.500499267578125 0.5264999999999999 5.539499267578125 0.5872499999999998 Q 5.578499267578125 0.6479999999999999 5.578499267578125 0.7484999999999998 Q 5.578499267578125 0.8444999999999998 5.543999267578125 0.9097499999999998 Q 5.509499267578125 0.9749999999999999 5.450999267578125 1.0139999999999998 Q 5.392499267578125 1.053 5.320499267578125 1.07025 Q 5.248499267578125 1.0875 5.173499267578125 1.0875 Q 5.096999267578125 1.0875 5.013749267578125 1.0717499999999998 Q 4.930499267578125 1.0559999999999998 4.852499267578125 1.0282499999999999 Q 4.774499267578125 1.0005 4.709999267578125 0.9629999999999999 L 4.835999267578125 0.7064999999999999 Q 4.835999267578125 0.7064999999999999 4.865999267578125 0.7244999999999998 Q 4.895999267578125 0.7424999999999998 4.945499267578125 0.7649999999999999 Q 4.994999267578125 0.7874999999999999 5.055749267578125 0.8054999999999999 Q 5.116499267578125 0.8234999999999999 5.177999267578125 0.8234999999999999 Q 5.225999267578125 0.8234999999999999 5.244749267578125 0.8107499999999999 Q 5.263499267578125 0.7979999999999998 5.263499267578125 0.7769999999999999 Q 5.263499267578125 0.7454999999999998 5.230499267578125 0.7282499999999998 Q 5.197499267578125 0.7109999999999999 5.144249267578125 0.6952499999999998 Q 5.090999267578125 0.6794999999999998 5.026499267578125 0.6584999999999999 Q 4.933499267578125 0.6269999999999998 4.873499267578125 0.5872499999999998 Q 4.813499267578125 0.5474999999999999 4.784999267578125 0.4927499999999998 Q 4.756499267578125 0.43799999999999983 4.756499267578125 0.3599999999999999 Q 4.756499267578125 0.24149999999999983 4.811999267578125 0.1619999999999998 Q 4.867499267578125 0.0824999999999998 4.958249267578125 0.04124999999999979 Q 5.048999267578125 -2.220446049250313e-16 5.153999267578125 -2.220446049250313e-16 Q 5.231999267578125 -2.220446049250313e-16 5.304749267578125 0.018749999999999822 Q 5.377499267578125 0.03749999999999987 5.441249267578125 0.06449999999999978 Q 5.504999267578125 0.0914999999999998 5.552999267578125 0.11549999999999983 L 5.426999267578125 0.3569999999999999" fill="#404040" fill-rule="nonzero"></path></g><g><path d=" M 0.4245 1.9197374999999997 L 0.4245 1.9662374999999996 L 0.06675 1.9662374999999996 L 0.06675 1.4337374999999997 L 0.41775 1.4337374999999997 L 0.41775 1.4802374999999997 L 0.11925000000000001 1.4802374999999997 L 0.11925000000000001 1.6722374999999996 L 0.3795 1.6722374999999996 L 0.3795 1.7164874999999997 L 0.11925000000000001 1.7164874999999997 L 0.11925000000000001 1.9197374999999997 L 0.4245 1.9197374999999997 M 0.902631591796875 1.4802374999999997 L 0.7128815917968749 1.4802374999999997 L 0.7128815917968749 1.9662374999999996 L 0.660381591796875 1.9662374999999996 L 0.660381591796875 1.4802374999999997 L 0.4706315917968749 1.4802374999999997 L 0.4706315917968749 1.4337374999999997 L 0.902631591796875 1.4337374999999997 L 0.902631591796875 1.4802374999999997 M 1.2956260986328125 1.4337374999999997 L 1.3398760986328124 1.4337374999999997 L 1.5611260986328124 1.9662374999999996 L 1.5056260986328125 1.9662374999999996 L 1.4366260986328125 1.7997374999999995 L 1.1973760986328124 1.7997374999999995 L 1.1291260986328124 1.9662374999999996 L 1.0728760986328123 1.9662374999999996 L 1.2956260986328125 1.4337374999999997 M 1.4246260986328125 1.7584874999999995 L 1.3173760986328125 1.4952374999999996 L 1.2086260986328123 1.7584874999999995 L 1.4246260986328125 1.7584874999999995 M 1.9425128173828123 1.5334874999999997 Q 1.9312628173828124 1.5207374999999996 1.9162628173828122 1.5106124999999997 Q 1.901262817382812 1.5004874999999998 1.8825128173828123 1.4929874999999997 Q 1.8637628173828122 1.4854874999999996 1.842387817382812 1.4809874999999997 Q 1.8210128173828122 1.4764874999999997 1.7970128173828122 1.4764874999999997 Q 1.7272628173828122 1.4764874999999997 1.6946378173828123 1.5031124999999996 Q 1.6620128173828121 1.5297374999999995 1.6620128173828121 1.5754874999999997 Q 1.6620128173828121 1.6069874999999996 1.6773878173828123 1.6249874999999996 Q 1.6927628173828122 1.6429874999999996 1.7257628173828121 1.6542374999999996 Q 1.7587628173828123 1.6654874999999996 1.8097628173828122 1.6774874999999996 Q 1.8667628173828121 1.6894874999999996 1.9080128173828124 1.7059874999999995 Q 1.9492628173828122 1.7224874999999997 1.9717628173828121 1.7506124999999997 Q 1.9942628173828123 1.7787374999999996 1.9942628173828123 1.8267374999999997 Q 1.9942628173828123 1.8634874999999997 1.9800128173828122 1.8904874999999997 Q 1.9657628173828123 1.9174874999999996 1.9402628173828123 1.9354874999999996 Q 1.9147628173828122 1.9534874999999996 1.8795128173828122 1.9621124999999997 Q 1.8442628173828122 1.9707374999999996 1.8022628173828124 1.9707374999999996 Q 1.7610128173828121 1.9707374999999996 1.7231378173828122 1.9621124999999997 Q 1.6852628173828121 1.9534874999999996 1.6515128173828122 1.9366124999999996 Q 1.6177628173828122 1.9197374999999997 1.5885128173828122 1.8934874999999995 L 1.6147628173828121 1.8507374999999997 Q 1.6290128173828122 1.8657374999999996 1.6488878173828123 1.8788624999999997 Q 1.6687628173828122 1.8919874999999997 1.6931378173828122 1.9024874999999997 Q 1.7175128173828123 1.9129874999999996 1.7456378173828122 1.9186124999999996 Q 1.7737628173828122 1.9242374999999996 1.8037628173828122 1.9242374999999996 Q 1.8675128173828122 1.9242374999999996 1.9031378173828122 1.9009874999999996 Q 1.9387628173828122 1.8777374999999996 1.9387628173828122 1.8319874999999997 Q 1.9387628173828122 1.7989874999999995 1.9207628173828122 1.7791124999999997 Q 1.9027628173828122 1.7592374999999996 1.8667628173828121 1.7464874999999997 Q 1.830762817382812 1.7337374999999997 1.7782628173828123 1.7217374999999997 Q 1.7227628173828122 1.7089874999999997 1.6845128173828123 1.6932374999999995 Q 1.6462628173828122 1.6774874999999996 1.6271378173828122 1.6516124999999997 Q 1.6080128173828123 1.6257374999999996 1.6080128173828123 1.5829874999999995 Q 1.6080128173828123 1.5334874999999997 1.6323878173828121 1.4993624999999997 Q 1.6567628173828122 1.4652374999999997 1.6995128173828122 1.4476124999999995 Q 1.7422628173828123 1.4299874999999997 1.7977628173828122 1.4299874999999997 Q 1.8330128173828122 1.4299874999999997 1.8633878173828122 1.4371124999999996 Q 1.8937628173828123 1.4442374999999996 1.9196378173828124 1.4577374999999995 Q 1.9455128173828122 1.4712374999999995 1.9680128173828122 1.4914874999999996 L 1.9425128173828123 1.5334874999999997 M 2.4649013671874997 1.4802374999999997 L 2.2751513671874997 1.4802374999999997 L 2.2751513671874997 1.9662374999999996 L 2.2226513671875 1.9662374999999996 L 2.2226513671875 1.4802374999999997 L 2.0329013671875 1.4802374999999997 L 2.0329013671875 1.4337374999999997 L 2.4649013671874997 1.4337374999999997 L 2.4649013671874997 1.4802374999999997 M 2.762265380859375 1.9699874999999996 Q 2.6992653808593747 1.9699874999999996 2.655765380859375 1.9474874999999996 Q 2.612265380859375 1.9249874999999996 2.586765380859375 1.8871124999999997 Q 2.561265380859375 1.8492374999999996 2.549640380859375 1.8012374999999996 Q 2.538015380859375 1.7532374999999996 2.538015380859375 1.7022374999999996 L 2.538015380859375 1.4337374999999997 L 2.589765380859375 1.4337374999999997 L 2.589765380859375 1.7022374999999996 Q 2.589765380859375 1.7434874999999996 2.598390380859375 1.7832374999999996 Q 2.607015380859375 1.8229874999999995 2.6265153808593746 1.8544874999999996 Q 2.646015380859375 1.8859874999999997 2.679015380859375 1.9043624999999997 Q 2.7120153808593748 1.9227374999999995 2.761515380859375 1.9227374999999995 Q 2.8125153808593746 1.9227374999999995 2.845890380859375 1.9036124999999997 Q 2.879265380859375 1.8844874999999996 2.8983903808593747 1.8529874999999996 Q 2.917515380859375 1.8214874999999997 2.925765380859375 1.7821124999999995 Q 2.9340153808593747 1.7427374999999996 2.9340153808593747 1.7022374999999996 L 2.9340153808593747 1.4337374999999997 L 2.986515380859375 1.4337374999999997 L 2.986515380859375 1.7022374999999996 Q 2.986515380859375 1.7554874999999996 2.974515380859375 1.8042374999999997 Q 2.962515380859375 1.8529874999999996 2.935890380859375 1.8897374999999996 Q 2.9092653808593747 1.9264874999999997 2.866515380859375 1.9482374999999996 Q 2.823765380859375 1.9699874999999996 2.762265380859375 1.9699874999999996 M 3.0776440429687497 1.6962374999999996 Q 3.0776440429687497 1.6474874999999995 3.09451904296875 1.6006124999999995 Q 3.1113940429687497 1.5537374999999995 3.14364404296875 1.5151124999999996 Q 3.17589404296875 1.4764874999999997 3.22314404296875 1.4536124999999998 Q 3.27039404296875 1.4307374999999998 3.33039404296875 1.4307374999999998 Q 3.40164404296875 1.4307374999999998 3.4522690429687497 1.4633624999999997 Q 3.50289404296875 1.4959874999999996 3.52689404296875 1.5469874999999997 L 3.48564404296875 1.5724874999999996 Q 3.46839404296875 1.5372374999999996 3.4421440429687498 1.5166124999999997 Q 3.41589404296875 1.4959874999999996 3.38626904296875 1.4869874999999997 Q 3.3566440429687496 1.4779874999999996 3.32739404296875 1.4779874999999996 Q 3.27939404296875 1.4779874999999996 3.2426440429687498 1.4971124999999996 Q 3.2058940429687497 1.5162374999999997 3.18076904296875 1.5481124999999996 Q 3.15564404296875 1.5799874999999997 3.14289404296875 1.6193624999999996 Q 3.13014404296875 1.6587374999999995 3.13014404296875 1.6992374999999997 Q 3.13014404296875 1.7434874999999996 3.14514404296875 1.7839874999999996 Q 3.1601440429687497 1.8244874999999996 3.18714404296875 1.8556124999999997 Q 3.21414404296875 1.8867374999999997 3.25051904296875 1.9051124999999995 Q 3.2868940429687497 1.9234874999999996 3.32964404296875 1.9234874999999996 Q 3.3596440429687497 1.9234874999999996 3.39114404296875 1.9129874999999996 Q 3.42264404296875 1.9024874999999997 3.4500190429687496 1.8807374999999997 Q 3.4773940429687498 1.8589874999999996 3.49389404296875 1.8244874999999996 L 3.53739404296875 1.8469874999999996 Q 3.5208940429687496 1.8867374999999997 3.48639404296875 1.9144874999999997 Q 3.4518940429687497 1.9422374999999996 3.40951904296875 1.9564874999999997 Q 3.36714404296875 1.9707374999999996 3.32664404296875 1.9707374999999996 Q 3.27189404296875 1.9707374999999996 3.22614404296875 1.9471124999999996 Q 3.18039404296875 1.9234874999999996 3.1470190429687497 1.8841124999999996 Q 3.1136440429687497 1.8447374999999997 3.09564404296875 1.7956124999999996 Q 3.0776440429687497 1.7464874999999997 3.0776440429687497 1.6962374999999996 M 3.9862496337890625 1.9197374999999997 L 3.9862496337890625 1.9662374999999996 L 3.6284996337890623 1.9662374999999996 L 3.6284996337890623 1.4337374999999997 L 3.9794996337890622 1.4337374999999997 L 3.9794996337890622 1.4802374999999997 L 3.6809996337890625 1.4802374999999997 L 3.6809996337890625 1.6722374999999996 L 3.9412496337890626 1.6722374999999996 L 3.9412496337890626 1.7164874999999997 L 3.6809996337890625 1.7164874999999997 L 3.6809996337890625 1.9197374999999997 L 3.9862496337890625 1.9197374999999997 M 4.394609985351562 1.5334874999999997 Q 4.383359985351562 1.5207374999999996 4.368359985351562 1.5106124999999997 Q 4.353359985351562 1.5004874999999998 4.334609985351562 1.4929874999999997 Q 4.315859985351562 1.4854874999999996 4.294484985351562 1.4809874999999997 Q 4.273109985351562 1.4764874999999997 4.249109985351562 1.4764874999999997 Q 4.179359985351562 1.4764874999999997 4.146734985351562 1.5031124999999996 Q 4.114109985351562 1.5297374999999995 4.114109985351562 1.5754874999999997 Q 4.114109985351562 1.6069874999999996 4.129484985351562 1.6249874999999996 Q 4.144859985351562 1.6429874999999996 4.177859985351562 1.6542374999999996 Q 4.210859985351562 1.6654874999999996 4.261859985351562 1.6774874999999996 Q 4.318859985351562 1.6894874999999996 4.360109985351562 1.7059874999999995 Q 4.401359985351562 1.7224874999999997 4.423859985351562 1.7506124999999997 Q 4.446359985351562 1.7787374999999996 4.446359985351562 1.8267374999999997 Q 4.446359985351562 1.8634874999999997 4.432109985351562 1.8904874999999997 Q 4.417859985351562 1.9174874999999996 4.392359985351562 1.9354874999999996 Q 4.366859985351562 1.9534874999999996 4.331609985351562 1.9621124999999997 Q 4.296359985351562 1.9707374999999996 4.254359985351562 1.9707374999999996 Q 4.213109985351562 1.9707374999999996 4.175234985351562 1.9621124999999997 Q 4.137359985351562 1.9534874999999996 4.103609985351562 1.9366124999999996 Q 4.069859985351562 1.9197374999999997 4.040609985351562 1.8934874999999995 L 4.066859985351562 1.8507374999999997 Q 4.081109985351562 1.8657374999999996 4.100984985351562 1.8788624999999997 Q 4.120859985351562 1.8919874999999997 4.145234985351562 1.9024874999999997 Q 4.169609985351562 1.9129874999999996 4.197734985351562 1.9186124999999996 Q 4.225859985351562 1.9242374999999996 4.255859985351562 1.9242374999999996 Q 4.319609985351562 1.9242374999999996 4.355234985351562 1.9009874999999996 Q 4.390859985351562 1.8777374999999996 4.390859985351562 1.8319874999999997 Q 4.390859985351562 1.7989874999999995 4.372859985351562 1.7791124999999997 Q 4.354859985351562 1.7592374999999996 4.318859985351562 1.7464874999999997 Q 4.282859985351562 1.7337374999999997 4.230359985351562 1.7217374999999997 Q 4.174859985351562 1.7089874999999997 4.136609985351562 1.6932374999999995 Q 4.098359985351562 1.6774874999999996 4.079234985351562 1.6516124999999997 Q 4.060109985351562 1.6257374999999996 4.060109985351562 1.5829874999999995 Q 4.060109985351562 1.5334874999999997 4.084484985351562 1.4993624999999997 Q 4.108859985351562 1.4652374999999997 4.151609985351562 1.4476124999999995 Q 4.194359985351562 1.4299874999999997 4.249859985351562 1.4299874999999997 Q 4.285109985351562 1.4299874999999997 4.315484985351562 1.4371124999999996 Q 4.345859985351562 1.4442374999999996 4.371734985351562 1.4577374999999995 Q 4.397609985351562 1.4712374999999995 4.420109985351562 1.4914874999999996 L 4.394609985351562 1.5334874999999997" fill="#4e888f" fill-rule="nonzero"></path></g><g clip-path="url(#SvgjsClipPath1262)"><g clip-path="url(#a25aaa916-7a9b-4dd5-8adf-84639a459c8cd4cef243-4790-4fbc-a80a-d2cb16568019)"><path d=" M -1.3794537582665711 1.560384735010241 L -1.3794537582665711 1.595928255137231 L -1.2624131589540506 1.595928255137231 L -1.262554471699728 1.564529908883438 C -1.2617267827607614 1.5529557220946415 -1.2448701909549853 1.2771603467813748 -1.4623774232656046 0.971931545297064 C -1.5096970055323582 0.905588575790818 -1.619725800987945 0.735629717811382 -1.619725800987945 0.5911004248754701 C -1.619725800987945 0.30325309110945065 -1.3855369355090548 0.06905749645219499 -1.0976559558512076 0.06905749645219499 L -1.0390784581788397 0.06905749645219499 C -0.7512243952344548 0.06905749645219499 -0.5170355297555644 0.30325309110945065 -0.5170355297555644 0.5911004248754702 C -0.5170355297555644 0.7356566345248443 -0.6270441376760547 0.9055885757908181 -0.6743637199428081 0.9719315452970643 C -0.8918911397885242 1.2771603467813748 -0.8750076312692856 1.5529557220946415 -0.8743212550759966 1.560384735010241 L -0.8743212550759966 1.595928255137231 L -0.757280655763476 1.595928255137231 L -0.7574286976875189 1.5562395611370443 C -0.7575969271466585 1.5538103277470703 -0.772428036264395 1.3111898017761092 -0.5790381792160122 1.0398895176110492 C -0.5121770629756162 0.9460780420165084 -0.40000165962140954 0.763057848829483 -0.40000165962140954 0.5911004248754701 C -0.40000165962140954 0.23870008304844853 -0.686711762243646 -0.047983102860325734 -1.0390784581788397 -0.047983102860325734 L -1.0976559558512076 -0.047983102860325734 C -1.450056297678229 -0.047983102860325734 -1.7367664003004655 0.23870008304844853 -1.7367664003004655 0.5911004248754698 C -1.7367664003004655 0.7630040154025581 -1.6245573510544309 0.9460780420165082 -1.5576962348140353 1.0398558717192212 C -1.36590792221666 1.308989360450565 -1.3791711327752167 1.5539852863845753 -1.3794537582665711 1.560384735010241" fill="#4e888f" transform="matrix(1,0,0,1,0,0)" fill-rule="nonzero"></path></g><g clip-path="url(#a25aaa916-7a9b-4dd5-8adf-84639a459c8cd4cef243-4790-4fbc-a80a-d2cb16568019)"><path d=" M -0.8296933441554749 0.801205560983952 C -0.7499189346315325 0.801205560983952 -0.6845382376315641 0.7650967898742534 -0.6547683525422414 0.7045745596542335 C -0.6316199789646486 0.657510686165372 -0.6354488814546633 0.6045924274984565 -0.6648284741987824 0.5665052779492777 C -0.6955673609727486 0.5265541459928336 -0.7484317862127394 0.5091861366312734 -0.7994591457589272 0.5225300973302172 C -0.8607283147775265 0.5384715208782744 -0.9038690772792554 0.5920223223115544 -0.9145280958103329 0.6639370515045002 L -0.9241037166245523 0.7134234292049703 L -1.212697989189151 0.7134234292049703 L -1.2219035051932634 0.6657673880199378 C -1.23289898264262 0.5919886764197265 -1.2760464743227145 0.5384446041648122 -1.3373156433413138 0.5225300973302172 C -1.3882555235687488 0.5091861366312734 -1.4411468655222022 0.5265541459928336 -1.471919398187996 0.5665052779492777 C -1.5012922617537496 0.6045924274984565 -1.5051480809572266 0.6574837694519097 -1.4820064365579995 0.7045409137624056 C -1.4522634681821391 0.7650631439824257 -1.3868558544687084 0.801205560983952 -1.307047799052938 0.801205560983952 L -1.2851039484027842 0.801205560983952 L -1.2057669354726044 1.2121968588400724 L -1.1163832592426148 1.2121968588400724 L -1.1957539180646224 0.801205560983952 L -0.9410477877490809 0.801205560983952 L -1.0203915298576263 1.2121968588400724 L -0.931001124449271 1.2121968588400724 L -0.8516641115190913 0.801205560983952 Z M -0.8280379662775423 0.6787143271953123 C -0.8223248938451655 0.6403378229764136 -0.8038600284100159 0.6143631944852777 -0.777373982363096 0.60747924501729 C -0.7604837446654918 0.6031321957931257 -0.7436002361462535 0.6080512251783642 -0.7343408867152164 0.6201099128094824 C -0.7255727673048666 0.6314754950689457 -0.7252564959216845 0.6489982755329142 -0.7335199269546158 0.6658279506252279 C -0.7481760774348474 0.695624752428013 -0.7841435357988688 0.7134234292049703 -0.8296933441554749 0.7134234292049703 L -0.8347267695729282 0.7134234292049703 Z M -1.307047799052938 0.7134234292049703 C -1.3526245241230066 0.7134234292049703 -1.3885650657735655 0.695624752428013 -1.4032279454321628 0.6657943047334001 C -1.411511564000191 0.6489982755329142 -1.4111952926170086 0.6314754950689458 -1.4024271732066587 0.6201099128094824 C -1.3953682651011663 0.61096495941066 -1.383969036949875 0.6059046172797445 -1.371506598616822 0.6059046172797445 C -1.367543112559496 0.6059046172797445 -1.3634517721132235 0.6064227640138941 -1.3593671608453168 0.6074792450172901 C -1.332908031511859 0.6143631944852777 -1.3144498952550752 0.6403378229764136 -1.3083936347260539 0.6805715804242122 L -1.3020480195273127 0.7134234292049703 Z" fill="#404040" transform="matrix(1,0,0,1,0,0)" fill-rule="nonzero"></path></g><g clip-path="url(#SvgjsClipPath1259d4cef243-4790-4fbc-a80a-d2cb16568019)"><path d=" M -1.33092527388038 1.8092023216931032 L -0.8058340276574973 1.8092023216931032 L -0.7609369496023524 1.6921617223805827 L -1.3758156227571594 1.6921617223805827 Z" fill="#404040" transform="matrix(1,0,0,1,0,0)" fill-rule="nonzero"></path></g><g clip-path="url(#SvgjsClipPath1259d4cef243-4790-4fbc-a80a-d2cb16568019)"><path d=" M -1.2971817246073096 1.8971899133812145 L -1.2522846465521646 2.014230512693735 L -0.8844744862679665 2.014230512693735 L -0.8395841373911872 1.8971899133812145 Z" fill="#404040" transform="matrix(1,0,0,1,0,0)" fill-rule="nonzero"></path></g></g></g><defs><clipPath id="SvgjsClipPath1262"><path d=" M -1.7367664003004655 -0.047984893801979345 h 1.3367664003004653 v 2.0622072876039583 h -1.3367664003004653 Z"></path></clipPath><clipPath id="a25aaa916-7a9b-4dd5-8adf-84639a459c8cd4cef243-4790-4fbc-a80a-d2cb16568019"><path d=" M -1.7367664003004655 2.0142274406983702 L -0.40000165962140954 2.0142274406983702 L -0.40000165962140954 -0.047976373681960054 L -1.7367664003004655 -0.047976373681960054 Z"></path></clipPath><clipPath id="SvgjsClipPath1259d4cef243-4790-4fbc-a80a-d2cb16568019"><path d=" M -1.7367664003004655 -0.047984893801979345 L -0.40000000000000013 -0.047984893801979345 L -0.40000000000000013 2.0142223938019788 L -1.7367664003004655 2.0142223938019788 Z"></path></clipPath></defs></svg>