<svg xmlns="http://www.w3.org/2000/svg" version="1.1" xmlns:xlink="http://www.w3.org/1999/xlink" xmlns:svgjs="http://svgjs.dev/svgjs" viewBox="0 0 14.640628060321793 2.3272584346617897"><g transform="matrix(1,0,0,1,3.0553152185677876,0.478129217330895)"><g><path d=" M 0.0915 1.371 L 0.0915 0.30600000000000005 L 0.5805 0.30600000000000005 Q 0.6585 0.30600000000000005 0.7245 0.3374999999999999 Q 0.7905 0.369 0.8385 0.42225 Q 0.8865000000000001 0.4754999999999999 0.9127500000000001 0.5415 Q 0.9390000000000001 0.6074999999999999 0.9390000000000001 0.6749999999999999 Q 0.9390000000000001 0.7364999999999999 0.921 0.7935 Q 0.903 0.8505 0.8685 0.89775 Q 0.834 0.9450000000000001 0.786 0.9795 L 1.0110000000000001 1.371 L 0.6900000000000001 1.371 L 0.5025000000000001 1.044 L 0.384 1.044 L 0.384 1.371 L 0.0915 1.371 M 0.384 0.789 L 0.5685 0.789 Q 0.5865 0.789 0.603 0.7755 Q 0.6195 0.762 0.63075 0.7364999999999999 Q 0.642 0.711 0.642 0.6749999999999999 Q 0.642 0.6375 0.62925 0.61275 Q 0.6165 0.588 0.59775 0.5745 Q 0.579 0.5609999999999999 0.561 0.5609999999999999 L 0.384 0.5609999999999999 L 0.384 0.789 M 1.867481689453125 1.116 L 1.867481689453125 1.371 L 1.1084816894531249 1.371 L 1.1084816894531249 0.30600000000000005 L 1.853981689453125 0.30600000000000005 L 1.853981689453125 0.5609999999999999 L 1.400981689453125 0.5609999999999999 L 1.400981689453125 0.711 L 1.787981689453125 0.711 L 1.787981689453125 0.948 L 1.400981689453125 0.948 L 1.400981689453125 1.116 L 1.867481689453125 1.116 M 1.580981689453125 0.2609999999999999 L 1.400981689453125 0.21300000000000008 L 1.475981689453125 0 L 1.729481689453125 0 L 1.580981689453125 0.2609999999999999 M 2.8379589843749997 0.5609999999999999 L 2.5319589843749997 0.5609999999999999 L 2.5319589843749997 1.371 L 2.239458984375 1.371 L 2.239458984375 0.5609999999999999 L 1.9319589843749998 0.5609999999999999 L 1.9319589843749998 0.30600000000000005 L 2.8379589843749997 0.30600000000000005 L 2.8379589843749997 0.5609999999999999 M 2.9489941406249995 1.371 L 2.9489941406249995 0.30600000000000005 L 3.4379941406249994 0.30600000000000005 Q 3.5159941406249997 0.30600000000000005 3.5819941406249995 0.3374999999999999 Q 3.6479941406249994 0.369 3.6959941406249994 0.42225 Q 3.7439941406249995 0.4754999999999999 3.7702441406249996 0.5415 Q 3.7964941406249997 0.6074999999999999 3.7964941406249997 0.6749999999999999 Q 3.7964941406249997 0.7364999999999999 3.778494140625 0.7935 Q 3.7604941406249996 0.8505 3.7259941406249997 0.89775 Q 3.6914941406249997 0.9450000000000001 3.6434941406249997 0.9795 L 3.8684941406249997 1.371 L 3.5474941406249996 1.371 L 3.3599941406249996 1.044 L 3.2414941406249995 1.044 L 3.2414941406249995 1.371 L 2.9489941406249995 1.371 M 3.2414941406249995 0.789 L 3.425994140625 0.789 Q 3.4439941406249996 0.789 3.4604941406249994 0.7755 Q 3.4769941406249996 0.762 3.4882441406249995 0.7364999999999999 Q 3.4994941406249995 0.711 3.4994941406249995 0.6749999999999999 Q 3.4994941406249995 0.6375 3.4867441406249995 0.61275 Q 3.473994140625 0.588 3.4552441406249996 0.5745 Q 3.4364941406249994 0.5609999999999999 3.4184941406249996 0.5609999999999999 L 3.2414941406249995 0.5609999999999999 L 3.2414941406249995 0.789 M 4.432517578125 1.38 Q 4.311017578125 1.38 4.212017578125 1.33425 Q 4.113017578125 1.2885 4.0417675781249995 1.21125 Q 3.970517578125 1.134 3.932267578125 1.03725 Q 3.8940175781249997 0.9405 3.8940175781249997 0.837 Q 3.8940175781249997 0.7305 3.934517578125 0.6345 Q 3.9750175781249997 0.5385 4.047767578125 0.46275 Q 4.120517578125 0.387 4.220267578125 0.3434999999999999 Q 4.320017578124999 0.30000000000000004 4.4385175781249995 0.30000000000000004 Q 4.560017578125 0.30000000000000004 4.659017578125 0.34575 Q 4.758017578125 0.39149999999999996 4.828517578125 0.46950000000000003 Q 4.899017578125 0.5475 4.937267578125 0.64425 Q 4.975517578125 0.741 4.975517578125 0.843 Q 4.975517578125 0.948 4.935767578125 1.044 Q 4.896017578125 1.14 4.823267578125 1.2157499999999999 Q 4.750517578125 1.2915 4.6515175781249996 1.33575 Q 4.552517578125 1.38 4.432517578125 1.38 M 4.191017578125 0.84 Q 4.191017578125 0.8939999999999999 4.2060175781249995 0.94425 Q 4.221017578125 0.9944999999999999 4.2510175781249995 1.0342500000000001 Q 4.281017578125 1.074 4.326767578125 1.09725 Q 4.372517578125 1.1205 4.435517578124999 1.1205 Q 4.498517578125 1.1205 4.545017578125 1.0965 Q 4.591517578125 1.0725 4.620767578125 1.03125 Q 4.6500175781249995 0.99 4.664267578125 0.93975 Q 4.678517578125 0.8895 4.678517578125 0.837 Q 4.678517578125 0.783 4.663517578125 0.7334999999999999 Q 4.648517578124999 0.6839999999999999 4.618517578125 0.64425 Q 4.588517578125 0.6044999999999999 4.542017578125 0.582 Q 4.495517578125 0.5595 4.434017578125 0.5595 Q 4.371017578125 0.5595 4.325267578125 0.5835 Q 4.279517578125 0.6074999999999999 4.249517578124999 0.64725 Q 4.219517578125 0.6869999999999999 4.2052675781249995 0.73725 Q 4.191017578125 0.7875 4.191017578125 0.84 M 5.5650395507812505 1.3785 Q 5.46153955078125 1.3785 5.36778955078125 1.34175 Q 5.27403955078125 1.305 5.20203955078125 1.23375 Q 5.13003955078125 1.1625 5.08878955078125 1.06125 Q 5.04753955078125 0.96 5.04753955078125 0.8295 Q 5.04753955078125 0.717 5.08953955078125 0.621 Q 5.13153955078125 0.525 5.20578955078125 0.45224999999999993 Q 5.28003955078125 0.37949999999999995 5.37903955078125 0.33899999999999997 Q 5.47803955078125 0.2985 5.59353955078125 0.2985 Q 5.73753955078125 0.2985 5.85453955078125 0.3607499999999999 Q 5.97153955078125 0.42299999999999993 6.02853955078125 0.531 L 5.81103955078125 0.6975 Q 5.77953955078125 0.6345 5.71653955078125 0.59625 Q 5.65353955078125 0.5579999999999999 5.58303955078125 0.5579999999999999 Q 5.53053955078125 0.5579999999999999 5.48703955078125 0.579 Q 5.44353955078125 0.6 5.41128955078125 0.6375 Q 5.37903955078125 0.6749999999999999 5.36178955078125 0.72675 Q 5.34453955078125 0.7785 5.34453955078125 0.84 Q 5.34453955078125 0.903 5.36253955078125 0.954 Q 5.38053955078125 1.005 5.41278955078125 1.04175 Q 5.44503955078125 1.0785 5.49003955078125 1.09875 Q 5.53503955078125 1.119 5.59053955078125 1.119 Q 5.66103955078125 1.119 5.72553955078125 1.08375 Q 5.79003955078125 1.0485 5.84253955078125 0.984 L 5.84253955078125 1.269 Q 5.72253955078125 1.3785 5.5650395507812505 1.3785 M 5.82753955078125 1.014 L 5.63103955078125 1.014 L 5.63103955078125 0.8039999999999999 L 6.06903955078125 0.8039999999999999 L 6.06903955078125 1.371 L 5.82753955078125 1.371 L 5.82753955078125 1.014 M 6.4635600585937505 0.30600000000000005 L 6.7905600585937504 0.30600000000000005 L 7.12956005859375 1.371 L 6.83256005859375 1.371 L 6.7680600585937505 1.1625 L 6.48456005859375 1.1625 L 6.42156005859375 1.371 L 6.12306005859375 1.371 L 6.4635600585937505 0.30600000000000005 M 6.7215600585937505 0.9675 L 6.6270600585937505 0.5925 L 6.52806005859375 0.9675 L 6.7215600585937505 0.9675 M 8.02804833984375 1.371 L 8.02804833984375 0.8099999999999999 L 7.84954833984375 1.2045 L 7.69354833984375 1.2045 L 7.515048339843751 0.8099999999999999 L 7.515048339843751 1.371 L 7.22254833984375 1.371 L 7.22254833984375 0.30600000000000005 L 7.542048339843751 0.30600000000000005 L 7.771548339843751 0.8069999999999999 L 8.00254833984375 0.30600000000000005 L 8.32054833984375 0.30600000000000005 L 8.32054833984375 1.371 L 8.02804833984375 1.371 M 8.50805419921875 1.371 L 8.50805419921875 0.30600000000000005 L 8.80055419921875 0.30600000000000005 L 8.80055419921875 1.371 L 8.50805419921875 1.371 M 9.2805791015625 0.8475 L 9.2805791015625 1.371 L 8.9880791015625 1.371 L 8.9880791015625 0.30600000000000005 L 9.2160791015625 0.30600000000000005 L 9.6435791015625 0.8475 L 9.6435791015625 0.30600000000000005 L 9.9360791015625 0.30600000000000005 L 9.9360791015625 1.371 L 9.7035791015625 1.371 L 9.2805791015625 0.8475 M 10.58412158203125 1.3785 Q 10.48062158203125 1.3785 10.38687158203125 1.34175 Q 10.29312158203125 1.305 10.22112158203125 1.23375 Q 10.14912158203125 1.1625 10.10787158203125 1.06125 Q 10.06662158203125 0.96 10.06662158203125 0.8295 Q 10.06662158203125 0.717 10.10862158203125 0.621 Q 10.150621582031249 0.525 10.22487158203125 0.45224999999999993 Q 10.29912158203125 0.37949999999999995 10.39812158203125 0.33899999999999997 Q 10.49712158203125 0.2985 10.61262158203125 0.2985 Q 10.75662158203125 0.2985 10.87362158203125 0.3607499999999999 Q 10.99062158203125 0.42299999999999993 11.04762158203125 0.531 L 10.83012158203125 0.6975 Q 10.79862158203125 0.6345 10.73562158203125 0.59625 Q 10.67262158203125 0.5579999999999999 10.60212158203125 0.5579999999999999 Q 10.54962158203125 0.5579999999999999 10.50612158203125 0.579 Q 10.46262158203125 0.6 10.430371582031249 0.6375 Q 10.39812158203125 0.6749999999999999 10.38087158203125 0.72675 Q 10.36362158203125 0.7785 10.36362158203125 0.84 Q 10.36362158203125 0.903 10.38162158203125 0.954 Q 10.39962158203125 1.005 10.431871582031249 1.04175 Q 10.46412158203125 1.0785 10.50912158203125 1.09875 Q 10.55412158203125 1.119 10.60962158203125 1.119 Q 10.68012158203125 1.119 10.74462158203125 1.08375 Q 10.80912158203125 1.0485 10.86162158203125 0.984 L 10.86162158203125 1.269 Q 10.74162158203125 1.3785 10.58412158203125 1.3785 M 10.84662158203125 1.014 L 10.65012158203125 1.014 L 10.65012158203125 0.8039999999999999 L 11.088121582031249 0.8039999999999999 L 11.088121582031249 1.371 L 10.84662158203125 1.371 L 10.84662158203125 1.014" fill="#404040" fill-rule="nonzero"></path></g><g></g><g clip-path="url(#SvgjsClipPath1217)"><g clip-path="url(#a835c67ab-3a55-464c-9474-a47d888d9d0a4d802535-2730-404a-975c-29e813c09ac5)"><path d=" M -2.0990642347915967 1.404458465420639 C -1.899492895563446 1.403808117078626 -1.7183193866744306 1.2877491095221618 -1.6342929089571 1.1067278581821531 L -1.376302990814643 1.1067278581821531 C -1.2922765130973128 1.2877491095221618 -1.1111030042082972 1.403808117078626 -0.9115316649801468 1.404458465420639 C -0.6294521095272112 1.404458465420639 -0.4000235577768181 1.1749577890076397 -0.4000235577768181 0.8928782335547042 C -0.4000235577768181 0.610870802764375 -0.6294521095272112 0.3813701263513757 -0.9115316649801464 0.3813701263513757 L -2.0990642347915967 0.3813701263513757 C -2.3811437902445323 0.3813701263513757 -2.6106444666575315 0.6108708027643752 -2.6106444666575315 0.8928782335547042 C -2.610326486179408 1.1752843772363146 -2.3814703784731024 1.4041404849425732 -2.0990642347915447 1.404458465420639 M -1.303673455570177 0.9997669835371256 L -1.7069224442015662 0.9997669835371256 L -1.719904883470686 1.0345310709133249 C -1.7794847212988563 1.1923782101953826 -1.930347922440686 1.29703830046821 -2.0990642347915967 1.2975697154382178 C -2.3224702991282276 1.2973312034219382 -2.5035172046588308 1.116284297891335 -2.50375571667511 0.8928782335547042 C -2.5034774664158355 0.66950033616113 -2.322442178231437 0.4884973123303996 -2.0990642347915474 0.48825887633379705 L -0.9115316649801464 0.48825887633379705 C -0.6881654339720507 0.4884973882632724 -0.5071508196887144 0.6695120025466084 -0.5069123077592397 0.8928782335547042 C -0.5071110714609652 1.1162726304714838 -0.6881373070388532 1.2973311345405887 -0.9115316649801171 1.2975697154382173 C -1.0802479773310572 1.29703830046821 -1.231111178472887 1.1923782101953826 -1.2906910163010572 1.0345310709133249 Z" fill="#4e888f" transform="matrix(1,0,0,1,0,0)" fill-rule="nonzero"></path></g><g clip-path="url(#a835c67ab-3a55-464c-9474-a47d888d9d0a4d802535-2730-404a-975c-29e813c09ac5)"><path d=" M -1.451889637225964 0.4169997096788494 L -1.451889637225964 0.3215787810508173 C -1.451889637225964 0.23950091500493637 -1.530649768791959 0.1727134774315745 -1.6275131906721154 0.1727134774315745 L -1.9289942803661244 0.1727134774315745 C -1.9669389854554047 0.1726737239100294 -1.9976893303083094 0.14192337905712477 -1.9977290838298543 0.10397867396784466 L -1.9977290838298543 -0.01820050448709592 C -1.9977290839556896 -0.02664517517869185 -2.004574842066468 -0.03349093308545046 -2.0130195125302186 -0.03349093295961503 L -2.089327405339757 -0.03349093295961503 C -2.0977720758035074 -0.03349093295961503 -2.104617833812276 -0.02664517495084682 -2.104617833812276 -0.01820050448709592 L -2.104617833812276 0.10397867396784466 C -2.104498614838956 0.20092345919028615 -2.0259390655885556 0.27948300844068197 -1.928994280366119 0.279602227413996 L -1.6275131906721154 0.279602227413996 C -1.588133124889118 0.279602227413996 -1.5587783872083854 0.3017444988341062 -1.5587783872083854 0.3215787810508173 L -1.5587783872083854 0.4169997096788494 Z" fill="#4e888f" transform="matrix(1,0,0,1,0,0)" fill-rule="nonzero"></path></g><g clip-path="url(#a835c67ab-3a55-464c-9474-a47d888d9d0a4d802535-2730-404a-975c-29e813c09ac5)"><path d=" M -0.9497577361614444 1.1219461619920663 L -0.8733777184614551 1.1219461619920663 C -0.864939132936527 1.1219461619920663 -0.8581594146515421 1.1150943190444749 -0.8581594146515421 1.1066557335195473 L -0.8581594146515421 0.6791007335898613 C -0.8581402266292435 0.6750521064082292 -0.8597351042797876 0.6711627165589888 -0.8625911722327617 0.668293112738939 C -0.8654472401857358 0.6654235089188892 -0.8693290458105754 0.6638102596478391 -0.8733777184614551 0.6638103051173423 L -0.9497577361614444 0.6638103051173423 C -0.9582024066251955 0.6638103051173423 -0.9650481646339635 0.6706560631261105 -0.9650481646339635 0.6791007335898613 L -0.9650481646339635 1.1066557335195473 C -0.9650481646339635 1.1150943190444749 -0.9581963216863725 1.1219461619920663 -0.9497577361614444 1.1219461619920663" fill="#4e888f" transform="matrix(1,0,0,1,0,0)" fill-rule="nonzero"></path></g><g clip-path="url(#a835c67ab-3a55-464c-9474-a47d888d9d0a4d802535-2730-404a-975c-29e813c09ac5)"><path d=" M -1.1253812896075956 0.9463947332085213 L -0.6978262896779097 0.9463947332085213 C -0.6893877041529817 0.9463947332085213 -0.6825358612053907 0.9395428902609301 -0.6825358612053907 0.9311043047360023 L -0.6825358612053907 0.8547964116986189 C -0.6825358612053907 0.8463517412348681 -0.6893816192141591 0.8395059832260998 -0.6978262896779097 0.8395059832260998 L -1.1253812896075956 0.8395059832260998 C -1.1338259600713465 0.8395059832260998 -1.1406717180801147 0.8463517412348681 -1.1406717180801147 0.8547964116986189 L -1.1406717180801147 0.9311043047360023 C -1.1406717180801147 0.9395428902609301 -1.1338198751325237 0.9463947332085213 -1.1253812896075956 0.9463947332085213" fill="#4e888f" transform="matrix(1,0,0,1,0,0)" fill-rule="nonzero"></path></g><g clip-path="url(#a835c67ab-3a55-464c-9474-a47d888d9d0a4d802535-2730-404a-975c-29e813c09ac5)"><path d=" M -2.1677990382553265 0.7071572273436818 C -2.1677990386214403 0.6825877630604604 -2.154691385730589 0.659884641764678 -2.1334136056536344 0.6475999095685734 C -2.1121358255766802 0.6353151773724688 -2.085920519343907 0.6353151773724688 -2.0646427392669526 0.6475999095685734 C -2.043364959189998 0.6598846417646779 -2.030257306299147 0.6825877630604604 -2.0302573066652605 0.7071572272412937 C -2.0302573072312233 0.7451383272523546 -2.0610470724492327 0.775928092011561 -2.0990281724602937 0.775928092011561 C -2.1370092724713547 0.775928092011561 -2.167799037689364 0.7451383272523546 -2.1677990382553265 0.7071572272412937" fill="#4e888f" transform="matrix(1,0,0,1,0,0)" fill-rule="nonzero"></path></g><g clip-path="url(#a835c67ab-3a55-464c-9474-a47d888d9d0a4d802535-2730-404a-975c-29e813c09ac5)"><path d=" M -2.2848573656652253 0.961613037018434 C -2.3094268298460587 0.9616130374211274 -2.332129951161356 0.9485053845640774 -2.3444146833891395 0.9272276045054128 C -2.3566994156169234 0.905949824446748 -2.356699415655953 0.8797345182139753 -2.344414683491528 0.8584567381187309 C -2.3321299513271025 0.8371789580234865 -2.309426830050835 0.8240713050988343 -2.2848573658700015 0.8240713054283682 C -2.2468762656541643 0.824071306050878 -2.216086500940799 0.8548610713147283 -2.216086500997346 0.8928421713257891 C -2.2160865010538937 0.93082327133685 -2.2468762658589405 0.961613036509019 -2.2848573658700015 0.961613037018434" fill="#4e888f" transform="matrix(1,0,0,1,0,0)" fill-rule="nonzero"></path></g><g clip-path="url(#a835c67ab-3a55-464c-9474-a47d888d9d0a4d802535-2730-404a-975c-29e813c09ac5)"><path d=" M -2.030401555990473 1.0786713644283328 C -2.0304015556243593 1.103240828711554 -2.0435092085152107 1.1259439500073367 -2.0647869885921653 1.138228682203441 C -2.08606476866912 1.150513414399546 -2.1122800749018924 1.150513414399546 -2.133557854978847 1.138228682203441 C -2.1548356350558016 1.1259439500073367 -2.1679432879466525 1.103240828711554 -2.167943287580539 1.0786713645307207 C -2.1679432870145767 1.04069026451966 -2.137153521796567 1.009900499760454 -2.099172421785506 1.009900499760454 C -2.0611913217744453 1.009900499760454 -2.0304015565564355 1.04069026451966 -2.030401555990473 1.0786713645307207" fill="#4e888f" transform="matrix(1,0,0,1,0,0)" fill-rule="nonzero"></path></g><g clip-path="url(#a835c67ab-3a55-464c-9474-a47d888d9d0a4d802535-2730-404a-975c-29e813c09ac5)"><path d=" M -1.9133432285805743 0.8242155547535805 C -1.888773764399741 0.8242155543508873 -1.8660706430844436 0.8373232072079373 -1.8537859108566601 0.8586009872666021 C -1.8415011786288764 0.8798787673252666 -1.8415011785898463 0.9060940735580393 -1.8537859107542718 0.9273718536532837 C -1.8660706429186975 0.9486496337485281 -1.8887737641949647 0.9617572866731803 -1.913343228375798 0.9617572863436464 C -1.9513243285916353 0.9617572857211366 -1.9821140933050008 0.9309675204572864 -1.9821140932484536 0.8929864204462254 C -1.982114093191906 0.8550053204351646 -1.951324328386859 0.8242155552629957 -1.913343228375798 0.8242155547535805" fill="#4e888f" transform="matrix(1,0,0,1,0,0)" fill-rule="nonzero"></path></g><g clip-path="url(#SvgjsClipPath12154d802535-2730-404a-975c-29e813c09ac5)"><path d=" M -1.4601839734256796 0.9463226085459148 L -1.3481743723982162 0.9463226085459148 L -1.3481743723982162 0.8394338585634935 L -1.4601839734256796 0.8394338585634935 Z M -1.662421527373527 0.9463226085459148 L -1.5504119263460636 0.9463226085459148 L -1.5504119263460636 0.8394338585634935 L -1.662421527373527 0.8394338585634935 Z" fill="#4e888f" transform="matrix(1,0,0,1,0,0)" fill-rule="nonzero"></path></g></g></g><defs><clipPath id="SvgjsClipPath1217"><path d=" M -2.6106444666575315 -0.033458465420639016 h 2.2106444666575316 v 1.437916930841278 h -2.2106444666575316 Z"></path></clipPath><clipPath id="a835c67ab-3a55-464c-9474-a47d888d9d0a4d802535-2730-404a-975c-29e813c09ac5"><path d=" M -2.6106444666575315 1.404458465420639 L -0.4000235577768181 1.404458465420639 L -0.4000235577768181 -0.03349093295961503 L -2.6106444666575315 -0.03349093295961503 Z"></path></clipPath><clipPath id="SvgjsClipPath12154d802535-2730-404a-975c-29e813c09ac5"><path d=" M -2.6106444666575315 -0.033458465420639016 L -0.3999999999999999 -0.033458465420639016 L -0.3999999999999999 1.404458465420639 L -2.6106444666575315 1.404458465420639 Z"></path></clipPath></defs></svg>